<svg xmlns="http://www.w3.org/2000/svg" xmlns:xlink="http://www.w3.org/1999/xlink" id="Layer_1" data-name="Layer 1" viewBox="0 0 2556.43 734.52"><defs><style>.cls-1{fill:url(#linear-gradient);}.cls-2{fill:#0e0c0c;}</style><linearGradient id="linear-gradient" x1="886.83" y1="14.74" x2="907.34" y2="14.74" gradientTransform="matrix(31.24, 0, 0, -31.24, -27696, 827.57)" gradientUnits="userSpaceOnUse"><stop offset="0" stop-color="#f3993e"></stop><stop offset="1" stop-color="#ed4834"></stop></linearGradient></defs><path class="cls-1" d="M616.63,163.65l-33.28-19.21v370L328.43,661.62,73.5,514.44V220.08L328.43,72.9l124.35,71.79V430.5L328.43,502.29,204.07,430.5V302.75l-41.35,17.84A39.23,39.23,0,0,0,139,356.65V439.3a49.94,49.94,0,0,0,24.91,43.14l139.6,80.61a49.93,49.93,0,0,0,49.81,0l139.6-80.6a49.94,49.94,0,0,0,24.91-43.14V106.38h-.41L360.65,15.86a64.66,64.66,0,0,0-64.45,0l-256,147.79A64.63,64.63,0,0,0,8,219.47V515.05a64.6,64.6,0,0,0,32.22,55.81l256,147.79a64.61,64.61,0,0,0,64.45,0l256-147.79a64.62,64.62,0,0,0,32.22-55.81V219.47A64.63,64.63,0,0,0,616.63,163.65Z"></path><path class="cls-2" d="M916.71,434.22a61.81,61.81,0,0,0,45.65-45.33,149,149,0,0,0,2.07-33.84c-.1-2.88-.16-5.75-.16-8.62V253.05h45.66v93.38q0,4,.16,8.14.15,10.69-.32,21.79a143.49,143.49,0,0,1-2.88,22.74,107.51,107.51,0,0,1-104.23,82.37H869.14V435.82h33.52A62.09,62.09,0,0,0,916.71,434.22Z"></path><path class="cls-2" d="M1166.78,443.48l-20.43,38h-51.88l122.91-228.42h47.89l122.91,228.42H1336.3l-20.43-38Zm74.55-138.4-50,92.59h99.93Z"></path><path class="cls-2" d="M1484.7,372.77a68,68,0,0,1-14.21-85.64,70.18,70.18,0,0,1,24.82-24.82,66,66,0,0,1,34.4-9.26H1720V298.7H1529.71a22.89,22.89,0,0,0-22.83,22.83q0,9.41,7.35,16.44,5.74,4.62,14.68,5.66a172.27,172.27,0,0,0,19.95,1h4q26.82.48,53.64.16h5.27q13.08-.16,26-.48c3,0,6-.05,9.1-.16a166.3,166.3,0,0,1,22.59,1,73.65,73.65,0,0,1,23.7,6.86q29.53,15.17,36.4,48.05a70.26,70.26,0,0,1-1,30.49,67,67,0,0,1-15.17,28.25,69.4,69.4,0,0,1-23,16.76,66,66,0,0,1-27.46,5.91h-194.1V435.82H1663q9.27,0,16.45-7.51,7.33-8.3,5.26-19.63-2.23-10.86-11.65-15.64-10.21-4.16-25.38-3.2-4.47.17-8.94.16-13.08.33-26.66.48h-5.26q-27.3.48-54.91-.16h-3.51a168.72,168.72,0,0,1-31.53-2.47Q1500.18,385.06,1484.7,372.77Z"></path><polygon class="cls-2" points="1862.31 481.47 1839.48 481.47 1816.66 481.47 1816.66 253.05 1839.48 253.05 1862.31 253.05 2067.9 253.05 2067.9 298.7 1862.31 298.7 1862.31 344.51 2022.25 344.51 2022.25 390.16 1862.31 390.16 1862.31 435.82 2067.9 435.82 2067.9 481.47 1862.31 481.47"></polygon><path class="cls-2" d="M2152.14,390.16V344.51q0-36.7,26.82-64.64,27.93-26.82,64.49-26.82h83.8q36.55,0,64.65,26.82,24.9,25.36,26.65,60.81h-45.81a46.34,46.34,0,0,0-14.76-30,43.52,43.52,0,0,0-30.73-12h-83.8a45.77,45.77,0,0,0-45.65,45.81v45.65a45.77,45.77,0,0,0,45.65,45.66h83.8a43.49,43.49,0,0,0,30.73-12A46.19,46.19,0,0,0,2372.74,394h45.81q-1.76,35.28-26.65,60.66-28.09,26.82-64.65,26.82h-83.8q-36.55,0-64.49-26.82Q2152.14,426.72,2152.14,390.16Z"></path><rect class="cls-2" x="2502.78" y="253.05" width="45.65" height="228.42"></rect></svg>