<svg xmlns="http://www.w3.org/2000/svg" viewBox="0 0 219.28 200"><defs><style>.cls-1{fill:#e6e6e6;}.cls-2{fill:#e0e0e0;}.cls-3{fill:#f5f5f5;}.cls-4{fill:#fafafa;}.cls-5{fill:#f0f0f0;}.cls-6{fill:#263238;}.cls-7{fill:#ef6236;}.cls-10,.cls-11,.cls-13,.cls-16,.cls-18,.cls-8{fill:#fff;}.cls-8{opacity:0.1;}.cls-10,.cls-11,.cls-16,.cls-18,.cls-8,.cls-9{isolation:isolate;}.cls-14,.cls-16,.cls-9{opacity:0.2;}.cls-10,.cls-17{opacity:0.5;}.cls-11{opacity:0.7;}.cls-12{fill:#ff8b7b;}.cls-15{fill:#ff5652;}.cls-18{opacity:0.3;}</style></defs><g id="Layer_2" data-name="Layer 2"><g id="icons"><g id="freepik--background-complete--inject-26"><path class="cls-1" d="M155.46,75.74s14.35-7.32,19.27-5.24S188.56,90,192.57,92.92c4.63,3.34,11.27,11.25,16.51,20.92S215,142.75,215,142.75h-35.8Z"/><path class="cls-2" d="M78,98.58S61.34,88.87,54.15,84.79s-25.74,20.43-36.61,22.5-14.38,36-14.38,36h68Z"/><path class="cls-1" d="M101.93,95.89S91.4,87.07,85.86,85.4,60.09,103.06,52,103s-28.25,8.86-28.25,8.86l-16,31.49H78.36Z"/><path class="cls-3" d="M208.3,55.79c-.9-2.12-3.19-6.08-7.92-7.16-4.32-1-7.6,4.48-10.26,4.86s-2.38-.8-7.75-2.82c-4.59-1.72-7.66,2.76-8.75,5.09Z"/><path class="cls-3" d="M47.34,34s0-4.82-4.73-5c-2.26-.09-5,1.76-6.77-1.17-2-3.4-5.57-5.4-8.76-4.11-3.52,1.45-5.52,7-9,6.57S8.11,27.52,4.71,34Z"/><path class="cls-3" d="M167.59,12.63s0-4.81-4.73-5c-2.26-.1-5,1.75-6.77-1.18-2-3.4-5.57-5.39-8.76-4.1-3.53,1.45-5.52,7-9,6.56s-10-2.74-13.4,3.73Z"/><circle class="cls-4" cx="82.58" cy="10.66" r="10.66"/><path class="cls-5" d="M134,89s-10.5-11-14.39-11.66S97.35,93.07,94.75,94.69s-10.42,2.43-13.4,3-11.49,4-11.76,5-8.76,10.22-8.76,10.22-34.17,20-40.43,30.48H151.32Z"/></g><g id="freepik--Shadow--inject-26"><path class="cls-5" d="M213.93,196.32c0,2-47.89,3.68-107,3.68S0,198.35,0,196.32s47.89-3.68,107-3.68S213.93,194.29,213.93,196.32Z"/></g><g id="freepik--Flags--inject-26"><polygon class="cls-6" points="135.78 67.26 135.78 32.86 135.41 32.85 135.43 67.25 135.78 67.26"/><path class="cls-7" d="M135.78,32.91a5.72,5.72,0,0,0-5.12.16c-2.5,1.49-5.83-.33-5.83-.33.6,1.46,1.85,3.24,3.2,3.61a8.81,8.81,0,0,1-3.2,2.74s3.08,1.59,5.25,0,5.7.32,5.7.32Z"/><polygon class="cls-6" points="116.7 86.85 116.7 44.62 116.23 44.61 116.27 86.83 116.7 86.85"/><path class="cls-7" d="M116.7,44.68a7,7,0,0,0-6.29.2c-3,1.81-7.17-.41-7.17-.41.75,1.79,2.28,4,4,4.44a10.86,10.86,0,0,1-4,3.36s3.78,1.94,6.45,0,7,.38,7,.38Z"/><polygon class="cls-6" points="94.86 112.28 94.86 61.95 94.31 61.93 94.35 112.27 94.86 112.28"/><path class="cls-7" d="M94.86,62a8.36,8.36,0,0,0-7.5.23c-3.66,2.17-8.53-.49-8.53-.49.89,2.13,2.7,4.75,4.7,5.29a12.82,12.82,0,0,1-4.7,4s4.51,2.31,7.68,0,8.35.46,8.35.46Z"/><polygon class="cls-6" points="151.65 52.15 151.65 20.84 151.3 20.83 151.33 52.14 151.65 52.15"/><path class="cls-7" d="M151.65,20.89A5.21,5.21,0,0,0,147,21c-2.27,1.35-5.31-.3-5.31-.3.54,1.32,1.69,2.95,2.92,3.29a7.89,7.89,0,0,1-2.92,2.49s2.81,1.44,4.78,0,5.2.29,5.2.29Z"/></g><g id="freepik--Mountain--inject-26"><path class="cls-6" d="M219.28,176.43H60s.13-.5.31-1.16c0-.12.07-.24.1-.36s0-.19.08-.29.09-.36.15-.54v0c.34-1.22.8-2.85,1.38-4.82.07-.25.14-.49.22-.75s.16-.54.23-.79c.17-.54.35-1.16.54-1.78.12-.37.23-.76.35-1.16s.28-.91.43-1.38c.1-.31.19-.63.29-.94s.16-.54.24-.8c.14-.42.27-.86.41-1.31.09-.27.18-.54.27-.83l.32-1c.54-1.66,1.08-3.4,1.7-5.17a.56.56,0,0,0,0-.12c.24-.69.47-1.39.71-2.09,0,0,0-.08,0-.11l.48-1.4c.18-.49.35-1,.54-1.5s.33-.9.49-1.36L70,145c.34-.91.68-1.84,1-2.76l1-2.62.45-1.14c.45-1.13.9-2.26,1.37-3.38.15-.36.3-.74.46-1.08.62-1.47,1.26-2.93,1.9-4.31q.67-1.5,1.38-2.94c.84-1.75,1.71-3.43,2.58-5,3.69-6.65,7.56-11.45,11.27-12.37,2.75-.68,5.71-2.78,8.76-5.75,1-1,2.1-2.12,3.16-3.31h0C111,91.78,119.07,79.13,126,70.77l9.83-7.11a12.16,12.16,0,0,0,1.41-1.46c2.43-2.75,7.2-8.58,8.75-10.53,1.38-1.38,4.26-2,7.65-2.32,4.31,3.78,14.33,17.74,22.31,32.29C177,83.6,184.75,92.2,186,94.1c.48.73.94,1.48,1.39,2.24,6.27,10.72,9.45,23.84,17.27,32,.9.94,2.16,1.17,3.13,2a16.1,16.1,0,0,1,2.1,2.27,31,31,0,0,1,4.6,8.81C219.53,155.92,219.28,176.43,219.28,176.43Z"/><path class="cls-8" d="M97.67,111.69s15.86,14.73,20.72,17.24,22.22-12.36,22.22-12.36,3.89-2.73.91-4-13.86,5-20.89,5.9c-5,.63-11.25-4.43-12.33-4.64Z"/><path class="cls-8" d="M160.58,73.34,144.92,74c-6.48.28-16.46-1.08-19-3.31l9.83-7.12a10.17,10.17,0,0,0,1.41-1.45c2.62,2.91,7.2,7.88,8.53,8.28C147.62,71,160.58,73.34,160.58,73.34Z"/><path class="cls-9" d="M209.89,132.54c-8.39,1.62-16.54,4.18-26.62,3.33-16.88-1.41-36.22-.45-35.13-4.15s4.09-15.21,16.34-15.09c7,.06,17.09-11.39,22.9-20.37,6.27,10.72,9.45,23.84,17.27,32,.9.94,2.16,1.17,3.12,2A16.25,16.25,0,0,1,209.89,132.54Z"/><path class="cls-9" d="M219.28,176.43H60l.31-1.17c0-.12.07-.24.1-.36s.06-.19.08-.28l.15-.54v0c.34-1.22.81-2.86,1.38-4.82.07-.25.14-.49.22-.75s.16-.54.23-.79c.18-.54.35-1.16.54-1.77.13-.39.24-.77.36-1.17s.28-.91.43-1.38c.09-.31.18-.63.28-.94l.25-.8.41-1.31c.09-.27.18-.54.26-.82s.21-.68.33-1c.54-1.66,1.08-3.4,1.69-5.18a.61.61,0,0,0,0-.12l.71-2.09a.36.36,0,0,1,0-.11c.15-.46.32-.93.48-1.39l.54-1.51c.15-.45.31-.9.48-1.36L70,145c.34-.91.68-1.84,1-2.76s.67-1.75,1-2.62c.14-.39.29-.76.44-1.14.45-1.13.91-2.26,1.37-3.38l.46-1.1c.62-1.48,1.26-2.93,1.9-4.32.45-1,.91-2,1.38-2.93.84-1.76,1.71-3.43,2.58-5a29.16,29.16,0,0,1,20.09,7.56c7.84,7.16,12.79,22.07,30.77,20.19s32.48,2.1,51.38,9.58c14.57,5.75,28.61-7.23,32.08-17.62C219.54,155.92,219.28,176.43,219.28,176.43Z"/><path class="cls-6" d="M104.75,164.35s9.06-10.17,10.56-10.17,13.16.35,18.65,0,11.51,5.94,16.33,10.17,17.82,8.1,17.82,8.1l2.1,3.86H104.75Z"/><path class="cls-9" d="M170.21,176.31H104.76v-12s9-10.17,10.55-10.17c.32,0,1.08,0,2.09,0,.37,6.51,5.56,11.38,11.25,10.18l.14,0c2.23-.47,9.8.88,12.21,5.44s13.93,4.05,13.93,4.05,10.53.54,15,1.89Z"/><path class="cls-6" d="M116.82,176.31H12.49s.15-.54.44-1.53c.07-.21.13-.45.21-.71.3-1,.69-2.33,1.16-3.83.23-.76.48-1.56.74-2.4.14-.42.28-.85.41-1.29l.65-2,.22-.68c1.08-3.19,2.23-6.58,3.4-9.57.33-.86.67-1.69,1-2.47.25-.59.5-1.15.74-1.68s.49-1,.72-1.5l.46-.88a7.87,7.87,0,0,1,1.91-2.52c8.82-5.94,15.93-13.3,21-16.79,6-4.14,13-5.59,19.61-5.78a107.51,107.51,0,0,1,13.29,1l.85.14c.23,0,.45.1.67.17a7.13,7.13,0,0,1,1.27.54l.39.21a13.58,13.58,0,0,1,1.89,1.4l1.08,1a.09.09,0,0,0,0,.06c.25.26.5.54.73.81a35.17,35.17,0,0,1,2.82,3.71c.46.68.9,1.37,1.35,2.07.21.33.4.66.62,1l.7,1.17.66,1.11c.12.2.23.4.36.6l1.57,2.7a.64.64,0,0,0,.08.14c.18.32.36.62.54.93l.1.16c.32.54.63,1.08,1,1.59.21.35.4.68.61,1,.5.8,1,1.56,1.49,2.23a7.53,7.53,0,0,0,.57.76l.06.09c.16.22.33.41.49.6l0,.06a6.39,6.39,0,0,0,.5.54l.28.27a7.34,7.34,0,0,0,.76.59,2,2,0,0,0,.25.14l.27.13.2.07a1.07,1.07,0,0,0,.3.06A7,7,0,0,1,103.7,151l.61.44.62.49.62.54.64.58c.32.3.64.62,1,.94.11.1.21.21.32.33.54.54,1.08,1.13,1.62,1.72a3.47,3.47,0,0,1,.31.36,72.42,72.42,0,0,1,7.45,10C117.43,167.86,116.82,176.31,116.82,176.31Z"/><path class="cls-8" d="M116.82,176.31H12.49s.15-.54.44-1.53c.07-.21.13-.45.21-.71.3-1,.69-2.33,1.16-3.83.23-.76.48-1.56.74-2.4.14-.42.28-.85.41-1.29l.65-2,.22-.68c1.08-3.19,2.23-6.58,3.4-9.57.33-.86.67-1.69,1-2.47.25-.59.5-1.15.74-1.68s.49-1,.72-1.5l.46-.88a7.87,7.87,0,0,1,1.91-2.52c8.82-5.94,15.93-13.3,21-16.79,6-4.14,13-5.59,19.61-5.78a107.51,107.51,0,0,1,13.29,1l.85.14c.23,0,.45.1.67.17a7.13,7.13,0,0,1,1.27.54l.39.21a13.58,13.58,0,0,1,1.89,1.4l1.08,1a.09.09,0,0,0,0,.06c.25.26.5.54.73.81a35.17,35.17,0,0,1,2.82,3.71c.46.68.9,1.37,1.35,2.07.21.33.4.66.62,1l.7,1.17.66,1.11c.12.2.23.4.36.6l1.57,2.7a.64.64,0,0,0,.08.14c.18.32.36.62.54.93l.1.16c.32.54.63,1.08,1,1.59.21.35.4.68.61,1,.5.8,1,1.56,1.49,2.23a7.53,7.53,0,0,0,.57.76l.06.09c.16.22.33.41.49.6l0,.06a6.39,6.39,0,0,0,.5.54l.28.27a7.34,7.34,0,0,0,.76.59,2,2,0,0,0,.25.14l.27.13.2.07a1.07,1.07,0,0,0,.3.06A7,7,0,0,1,103.7,151l.61.44.62.49.62.54.64.58c.32.3.64.62,1,.94.11.1.21.21.32.33.54.54,1.08,1.13,1.62,1.72a3.47,3.47,0,0,1,.31.36,72.42,72.42,0,0,1,7.45,10C117.43,167.86,116.82,176.31,116.82,176.31Z"/><path class="cls-9" d="M100.17,149.49a59.05,59.05,0,0,0-7.87,0,107.35,107.35,0,0,1-14.57-.12c-2.21-.1.22-5.32,4.18-7.39a60.34,60.34,0,0,0,9-6C94.41,141.94,97.55,148.13,100.17,149.49Z"/><path class="cls-9" d="M112.3,176.31H22c4.61-3.77,15.46-12.23,21-12.41,7.18-.23,14.3,7.49,22.7,4s20.17-8.46,25.86-8.26C102.28,160,110.21,168.72,112.3,176.31Z"/><path class="cls-10" d="M206.81,164.55s-12.61-17.7-15.76-19.64-15,1.21-23,1.21-12.6,11.3-17.45,13.34-21.34,17-21.34,17h81.95Z"/><path class="cls-6" d="M206.81,164.55s-12.61-17.7-15.76-19.64-15,1.21-23,1.21-12.6,11.3-17.45,13.34-21.34,17-21.34,17h81.95Z"/><path class="cls-8" d="M206.81,164.55s-12.61-17.7-15.76-19.64-15,1.21-23,1.21-12.6,11.3-17.45,13.34-21.34,17-21.34,17h81.95Z"/><path class="cls-9" d="M211.17,176.43H129.22l1.43-1.28c4.16-.54,13.53-1.91,16.06-3.45,3.28-2,19.09-4,27.09-2.73s7.63-11.08,11.63-14.36c2.44-2,4-6.69,4.81-10a3.54,3.54,0,0,1,.81.33c3.15,1.94,15.76,19.64,15.76,19.64Z"/></g><g id="freepik--speech-bubble--inject-26"><path class="cls-7" d="M72.33,28.54v8.88a3.13,3.13,0,0,1-3.13,3.13H59a3.16,3.16,0,0,1-1.47-.36l-2.49,1.47,1.22-2.73a3.09,3.09,0,0,1-.39-1.51V28.54A3.13,3.13,0,0,1,59,25.41h10.2A3.13,3.13,0,0,1,72.33,28.54Z"/><path class="cls-11" d="M72.33,28.54v8.88a3.13,3.13,0,0,1-3.13,3.13H59a3.16,3.16,0,0,1-1.47-.36l-2.49,1.47,1.22-2.73a3.09,3.09,0,0,1-.39-1.51V28.54A3.13,3.13,0,0,1,59,25.41h10.2A3.13,3.13,0,0,1,72.33,28.54Z"/><path class="cls-7" d="M68.13,30.51l-5.94,5.93-.07.06a.5.5,0,0,1-.27.18.33.33,0,0,1-.15,0,.38.38,0,0,1-.15,0,.77.77,0,0,1-.3-.06l-.15-.07L61,36.49l-1.74-1.74a.8.8,0,0,1-.25-.54.82.82,0,0,1,.81-.82h0a.78.78,0,0,1,.58.24l1.16,1.16L67,29.4a.81.81,0,0,1,1.15,0A.82.82,0,0,1,68.13,30.51Z"/></g><g id="freepik--Character--inject-26"><polygon class="cls-12" points="45.05 185.51 45.02 193.34 48.19 193.6 49.76 186.27 45.05 185.51"/><path class="cls-6" d="M47.27,192.86s1-1.91,1.59-1.7.82,2.52.82,2.52a32.17,32.17,0,0,0,4.08,1.14c.89.06,1.62.54,1.71,2.3l-10.88,0s.08-3.93.1-4.6,1,.17,1,.17Z"/><path class="cls-13" d="M44.72,194a1.62,1.62,0,0,1,.64,2.2l-.06.1a.08.08,0,0,0,0,.11.07.07,0,0,0,.11,0h0a1.79,1.79,0,0,0-.53-2.48l-.09,0C44.73,193.78,44.62,193.93,44.72,194Z"/><path class="cls-13" d="M44.69,196.46l8.54.12h2a.09.09,0,1,0,0-.17l-8.54-.12-2,0a.09.09,0,0,0,0,.18Z"/><path class="cls-13" d="M49.21,194.36a1.07,1.07,0,0,1,1.48-.34l.1.07c.08.06.19-.09.11-.15a1.3,1.3,0,0,0-1.81.3l0,0C49,194.37,49.13,194.46,49.21,194.36Z"/><path class="cls-13" d="M50.11,194.67a1.08,1.08,0,0,1,1.49-.35l.1.07c.08.07.18-.08.1-.15a1.28,1.28,0,0,0-1.8.3l0,0C49.89,194.67,50,194.76,50.11,194.67Z"/><path class="cls-13" d="M51,194.94a1.07,1.07,0,0,1,1.48-.35.41.41,0,0,1,.11.07c.08.07.18-.08.1-.15a1.29,1.29,0,0,0-1.8.3l0,0C50.82,194.94,51,195,51,194.94Z"/><path class="cls-7" d="M39.42,107c.15,1.39.17,5.69.47,8,.57,4.37,1.32,10,2,15.72.76,6.57,1.39,13.17,1.46,17.76.16,11.8,1.43,40.25,1.43,40.25l5.1-.24s4.84-28.61,5.4-40.58c.47-9.95-1.27-35.41-1.72-41.57Z"/><path class="cls-9" d="M39.89,115c.57,4.37,1.32,10,2,15.72C44,123.17,41.14,112,41.14,112Z"/><polygon class="cls-6" points="44.32 190.04 50.31 189.75 50.66 187.82 44.07 188.06 44.32 190.04"/><polygon class="cls-12" points="18.05 184.34 17.23 192.13 20.36 192.71 22.66 185.58 18.05 184.34"/><path class="cls-6" d="M19.51,191.88s1.18-1.8,1.76-1.53.54,2.59.54,2.59a32,32,0,0,0,3.94,1.55c.88.15,1.54.72,1.48,2.47l-10.84-1.14s.49-3.91.58-4.57,1,.27,1,.27Z"/><path class="cls-13" d="M16.86,192.73a1.63,1.63,0,0,1,.41,2.26l-.07.09a.09.09,0,0,0,0,.12.08.08,0,0,0,.11,0h0a1.79,1.79,0,0,0-.26-2.51L17,192.6C16.9,192.53,16.77,192.67,16.86,192.73Z"/><path class="cls-13" d="M16.58,195.21l8.49,1,2,.23c.11,0,.15-.16,0-.17l-8.48-1-2-.23C16.51,195,16.47,195.19,16.58,195.21Z"/><path class="cls-13" d="M21.28,193.59a1.08,1.08,0,0,1,1.52-.21l.1.09c.08.07.2-.06.13-.14a1.3,1.3,0,0,0-1.83.12l0,0c-.09.09,0,.19.12.11Z"/><path class="cls-13" d="M22.15,194a1.11,1.11,0,0,1,1.57-.16l.05.05c.08.07.2-.06.13-.14a1.31,1.31,0,0,0-1.83.11l0,0c-.08.08,0,.18.13.1Z"/><path class="cls-13" d="M23.05,194.33a1.08,1.08,0,0,1,1.51-.2.87.87,0,0,1,.11.09c.07.07.19-.07.12-.14a1.28,1.28,0,0,0-1.82.11l0,0c-.09.08,0,.18.12.1Z"/><path class="cls-7" d="M34.43,150c-2.6,11.71-12,37.24-12,37.24l-5.07-.63s5.14-25.83,6.4-37.56c.66-6.25,2.36-34.88,2.79-42l17,.7c-.61,6.15-6.93,32.57-9.08,42.29Z"/><polygon class="cls-6" points="16.89 186.69 22.84 187.43 23.51 185.59 16.87 184.7 16.89 186.69"/><path class="cls-13" d="M25.55,107a3.66,3.66,0,0,0,2.31,2.37l26.25-.81c.79,0,1.69-.59,1.62-1.38C55,97.91,51.3,66,50.48,64c-1-2.43-6.06-3.08-8.24-3.18a76,76,0,0,0-10.34.49c-1.67.16-3.2.38-4.46.6-1.92.33-1.55,2.2-1.48,4.15.11,3,0,7.13.32,10.63a5.24,5.24,0,0,0,.06.54c.11,1.21.22,2.41.29,3.59,0,.23,0,.47,0,.71C27.14,93.56,25.86,99.53,25.55,107Z"/><path class="cls-6" d="M36.14,109.53c-3.49.39-12.78.62-12.85-.85-.12-2.44,2.4-19.48,2.55-22.88,0-.54,0-1.22.05-2.06V78c-.06-6.77-.25-15-.25-15s.12-1.87,8.29-1.87a114.66,114.66,0,0,1,3,18.54C37.43,88.39,37.33,109.38,36.14,109.53Z"/><path class="cls-6" d="M42.24,60.84s4.06,9.34,4.35,23.75.64,24.92.64,24.92,8.63.12,9.32-1.2c.38-.73-1.23-13.24-2.16-20.57-1-8.36-3-22.06-3.59-23.69C49.84,61.24,42.24,60.84,42.24,60.84Z"/><path class="cls-9" d="M30,72,25.89,83.74V78Z"/><path class="cls-6" d="M35.32,50.1S33.16,49,33.27,48s.67-.69.67-.69-1.28-2.28-.13-2.73,1.24-.06,1.24-.06-.54-1.89.37-2.5c.68-.47,1,.4,1,.4S37.71,40,39.2,40.18a1.13,1.13,0,0,1,1,1.28s0,0,0,.07,3-1.31,4.54-.49.08,1.62.08,1.62,4.11-.25,4.28.86-1.31,1.66-1.31,1.66,1.85.73,1.3,2.13a1,1,0,0,1-1.22.76,1.08,1.08,0,0,1-.44-.22s1.44,2.15.28,2.57-2.61-2-2.61-2Z"/><path class="cls-6" d="M41.67,42.82A7.22,7.22,0,0,0,36.06,44a3.33,3.33,0,0,0-1.67,3.18,75.51,75.51,0,0,0,2.22,8.35l10-6.77s1.44-2-1.08-4.31A8.46,8.46,0,0,0,41.67,42.82Z"/><path class="cls-12" d="M41.67,62.68a6.54,6.54,0,0,1-.18-.88,5.88,5.88,0,0,1,0-1.11l.41-1.86v0h0l-3.14-3.12-2.16-2.16a22.37,22.37,0,0,1-1.08,7.8C35.69,62.42,41,65.12,41.67,62.68Z"/><path class="cls-13" d="M40.25,63.67C38.92,63,37.46,61.1,36,59.35a2.31,2.31,0,0,0-1.62,2l1.46,4.19Z"/><path class="cls-13" d="M41.47,60.69a5.74,5.74,0,0,1-1.22,3l2.57,1.76.54-3A7,7,0,0,0,41.47,60.69Z"/><g class="cls-14"><path d="M41.88,58.83l-.41,1.86A4.62,4.62,0,0,1,38.77,58c-.23-.86.13-1.7.48-1.75Z"/></g><path class="cls-12" d="M46.31,54.79c-.09.4-.2.8-.3,1.19-1,3.48-5.23,4-8,1.55h0a9.28,9.28,0,0,1-.69-.71C35.59,54.66,35.94,53,36,49.12a5.25,5.25,0,0,1,5.32-5.18,5.4,5.4,0,0,1,2.34.59C47,46.23,47.23,50.74,46.31,54.79Z"/><path class="cls-6" d="M42.28,50.64c0,.3.11.54.31.57s.38-.21.4-.54-.1-.54-.3-.57-.38.21-.41.51"/><path class="cls-6" d="M43.9,55.4H44a.1.1,0,0,0,.1-.11v0a.11.11,0,0,0-.13-.09,1.65,1.65,0,0,1-1.86-1.41.25.25,0,0,1,0-.08.11.11,0,0,0-.12-.1h0a.12.12,0,0,0-.1.13h0A1.89,1.89,0,0,0,43.9,55.4Z"/><path class="cls-6" d="M36,49.46s1.16,0,1.25,1,0,1.13,0,1.13h.15a1,1,0,0,0,1-1,.75.75,0,0,0,0-.21c-.15-.81-.2-1.74.36-1.73,1,0-.54-2.11.8-2.57s5.24-.84,6.83,1.41A5.9,5.9,0,0,0,44,44.12c-1.88-1.16-5.57-1.26-7,.61A7.19,7.19,0,0,0,36,49.46Z"/><path class="cls-12" d="M34.18,51.52a3.62,3.62,0,0,0,1.56,2.32c1.08.7,2-.16,2-1.38s-.54-2.77-1.74-3a1.62,1.62,0,0,0-1.88,1.31,1.68,1.68,0,0,0,0,.74"/><path class="cls-6" d="M45.42,50.85c0,.3.12.54.32.57s.37-.21.4-.51a.5.5,0,0,0-.31-.58c-.2,0-.38.21-.41.54"/><path class="cls-6" d="M46.52,50.11a.15.15,0,0,1-.12-.1.8.8,0,0,0-.4-.48.86.86,0,0,0-.63,0,.16.16,0,0,1-.2-.09.14.14,0,0,1,.08-.19h0a1.27,1.27,0,0,1,.86,0,1.08,1.08,0,0,1,.54.66.15.15,0,0,1-.09.19Z"/><path class="cls-6" d="M41.51,49.87a.16.16,0,0,1-.17-.14.2.2,0,0,1,0-.07A1.27,1.27,0,0,1,42,49a1.07,1.07,0,0,1,.86,0,.16.16,0,0,1,.09.2h0a.16.16,0,0,1-.2.09.81.81,0,0,0-.63,0,.92.92,0,0,0-.43.46A.15.15,0,0,1,41.51,49.87Z"/><path class="cls-15" d="M44,51.17a22.32,22.32,0,0,1,1.08,2.51c.06.35-1.08.4-1.08.4Z"/><path class="cls-6" d="M36,59.37s-2.89-.48-3.4,1.94L33,69.16l1.75,2L33.5,72.5,34,82.6l3.1.87a105,105,0,0,0-.93-15.3A36,36,0,0,1,36,59.37Z"/><path class="cls-16" d="M36,59.37s-2.89-.48-3.4,1.94L33,69.16l1.75,2L33.5,72.5,34,82.6l3.1.87a105,105,0,0,0-.93-15.3A36,36,0,0,1,36,59.37Z"/><path class="cls-6" d="M41.47,60.69a9.54,9.54,0,0,1,2.23,4.38c.82,3.08,2.82,16.64,2.86,18.35L49.47,81,47.72,70.26l-1.84-1,1.41-2s-1.62-4.9-2.57-6.12a5.1,5.1,0,0,0-3-1.46Z"/><path class="cls-16" d="M41.47,60.69a9.54,9.54,0,0,1,2.23,4.38c.82,3.08,2.82,16.64,2.86,18.35L49.47,81,47.72,70.26l-1.84-1,1.41-2s-1.62-4.9-2.57-6.12a5.1,5.1,0,0,0-3-1.46Z"/><path class="cls-6" d="M24.56,64.1c-1.62,3.11-3.08,6.27-4.52,9.44-.73,1.59-1.43,3.18-2.16,4.77l-1.05,2.38-.54,1.16-.26.54-.12.27a1.59,1.59,0,0,0-.09.2l-.06.19,0,.15c0,.11-.06.2-.08.28l-.07.24c-.14.62-.21,1.08-.28,1.59s-.12,1-.17,1.41c-.09.92-.17,1.81-.23,2.7-.11,1.79-.2,3.56-.24,5.32-.1,3.54-.13,7.05,0,10.59a2,2,0,0,0,3.92.32h0c.68-3.43,1.28-6.88,1.89-10.3.31-1.71.6-3.42.92-5.09.17-.85.32-1.68.5-2.49.08-.4.17-.8.27-1.17a8.92,8.92,0,0,1,.28-1l0-.07v0h0v.09l-.05.12v0l0-.09.1-.16.18-.33L23.38,84l1.27-2.32c.82-1.55,1.62-3.1,2.44-4.66,1.62-3.12,3.15-6.25,4.59-9.44a4,4,0,0,0-7.16-3.46Z"/><path class="cls-6" d="M10.73,115.39l-.16-3.24a.21.21,0,0,1,.19-.21h0l1.75-.09,0-.54-1.76.09a.72.72,0,0,0-.68.76h0l.15,3.24Z"/><path class="cls-6" d="M22.7,111.58l.15,3.24.54,0-.15-3.24a.73.73,0,0,0-.76-.69l-1.79.09v.54l1.75-.09a.2.2,0,0,1,.25.15A0,0,0,0,1,22.7,111.58Z"/><path class="cls-6" d="M30.31,115.81l.79,16.3a1.37,1.37,0,0,1-1.3,1.43L6.28,134.68a1.38,1.38,0,0,1-1.43-1.31l-.79-16.29a1.38,1.38,0,0,1,1.31-1.43l23.51-1.14A1.37,1.37,0,0,1,30.31,115.81Z"/><g class="cls-17"><path class="cls-13" d="M30.31,115.81l.79,16.3a1.37,1.37,0,0,1-1.3,1.43L6.28,134.68a1.38,1.38,0,0,1-1.43-1.31l-.79-16.29a1.38,1.38,0,0,1,1.31-1.43l23.51-1.14A1.37,1.37,0,0,1,30.31,115.81Z"/></g><rect class="cls-6" x="26.2" y="114.63" width="1.04" height="19.05" transform="translate(-5.95 1.43) rotate(-2.76)"/><rect class="cls-6" x="7.89" y="115.51" width="1.04" height="19.05" transform="translate(-6.01 0.55) rotate(-2.76)"/><path class="cls-12" d="M18.28,106.38S20.14,110.09,20,111s-1.36-.66-1.36-.66Z"/><rect class="cls-6" x="11.77" y="110.55" width="9.48" height="1.74" transform="translate(-5.35 0.92) rotate(-2.76)"/><rect class="cls-18" x="11.77" y="110.55" width="9.48" height="1.74" transform="translate(-5.35 0.92) rotate(-2.76)"/><path class="cls-12" d="M14.8,106l-1.13,4c-.21,1.12,3.44,2.56,4.77,1.54,1.08-.8-.11-5.24-.11-5.24A3.75,3.75,0,0,0,14.8,106Z"/><path class="cls-12" d="M13.67,109.92c-.21,1.25.06,3.65,2,3.81a4.78,4.78,0,0,0,1.31,0,2,2,0,0,0,1.23,0c1-.36.49-2.83.49-2.83Z"/><path class="cls-6" d="M70.51,61.13c0,.15,0,.3,0,.45a4,4,0,0,1-.1.5,3.34,3.34,0,0,1-.17.44,3.49,3.49,0,0,1-.19.39,6.42,6.42,0,0,1-.38.53c-.12.13-.24.26-.36.37l-.31.27-.27.2a9.68,9.68,0,0,1-1.69.88c-.49.2-.94.35-1.38.49a25.86,25.86,0,0,1-2.58.72c-1.69.39-3.34.71-5,1s-3.29.5-4.95.69l-.61.06-.85.09h0c-1.16.12-2.32.21-3.49.28l-.93-6.79c3.15-.37,6.77-.45,9.92-.84,1.57-.21,3.14-.4,4.65-.67l1.34-.25c-1-1-2.16-1.93-3.24-2.89S57.41,55,56.15,54s-2.54-2-3.78-3.06l1.5-2.44a89.21,89.21,0,0,1,8.79,4.69A48.61,48.61,0,0,1,66.92,56a18.67,18.67,0,0,1,2.16,1.91,7.94,7.94,0,0,1,.58.72,4.68,4.68,0,0,1,.67,1.22A4,4,0,0,1,70.51,61.13Z"/><path class="cls-9" d="M52.48,68.09l-.85.09h0l-.57-3.38Z"/><path class="cls-12" d="M45.58,48.13a8.74,8.74,0,0,0,1.78.62c1,.28,2,.5,2,.5s1.9,2,3.31,1.62l.21-.09c1-.51.89-2,.85-2.31v0c-.63-.13-1.36-.26-2.1-.37A24.19,24.19,0,0,0,47,47.67C45.32,47.85,44.78,47.67,45.58,48.13Z"/><polygon class="cls-7" points="38.73 64.31 40.8 68.06 41.66 64.63 40.25 63.67 38.73 64.31"/><polygon class="cls-7" points="40.07 66.73 40.27 90.32 42.92 95.52 44.71 89.97 41.14 66.68 40.07 66.73"/></g></g></g></svg>