<?xml version="1.0" encoding="UTF-8" standalone="no"?>
<!DOCTYPE svg PUBLIC "-//W3C//DTD SVG 1.1//EN"
 "http://www.w3.org/Graphics/SVG/1.1/DTD/svg11.dtd">
<!-- Generated by graphviz version 2.43.0 (0)
 -->
<!-- Title: main_0 Pages: 1 -->
<svg width="378pt" height="640pt"
 viewBox="0.00 0.00 378.00 640.00" xmlns="http://www.w3.org/2000/svg" xmlns:xlink="http://www.w3.org/1999/xlink">
<g id="graph0" class="graph" transform="scale(1 1) rotate(0) translate(4 636)">
<title>main_0</title>
<polygon fill="white" stroke="transparent" points="-4,4 -4,-636 374,-636 374,4 -4,4"/>
<!-- l_x_ -->
<g id="node1" class="node">
<title>l_x_</title>
<path fill="AliceBlue" stroke="black" d="M112.5,-539.5C112.5,-539.5 257.5,-539.5 257.5,-539.5 263.5,-539.5 269.5,-545.5 269.5,-551.5 269.5,-551.5 269.5,-619.5 269.5,-619.5 269.5,-625.5 263.5,-631.5 257.5,-631.5 257.5,-631.5 112.5,-631.5 112.5,-631.5 106.5,-631.5 100.5,-625.5 100.5,-619.5 100.5,-619.5 100.5,-551.5 100.5,-551.5 100.5,-545.5 106.5,-539.5 112.5,-539.5"/>
<text text-anchor="middle" x="185" y="-616.3" font-family="Times,serif" font-size="14.00" fill="#000000">name=%l_x_</text>
<polyline fill="none" stroke="black" points="100.5,-608.5 269.5,-608.5 "/>
<text text-anchor="middle" x="185" y="-593.3" font-family="Times,serif" font-size="14.00" fill="#000000">op_code=placeholder</text>
<polyline fill="none" stroke="black" points="100.5,-585.5 269.5,-585.5 "/>
<text text-anchor="middle" x="185" y="-570.3" font-family="Times,serif" font-size="14.00" fill="#000000">target=L_x_</text>
<polyline fill="none" stroke="black" points="100.5,-562.5 269.5,-562.5 "/>
<text text-anchor="middle" x="185" y="-547.3" font-family="Times,serif" font-size="14.00" fill="#000000">num_users=2</text>
</g>
<!-- path1 -->
<g id="node2" class="node">
<title>path1</title>
<path fill="#ffe1ff" stroke="black" d="M12,-410.5C12,-410.5 164,-410.5 164,-410.5 170,-410.5 176,-416.5 176,-422.5 176,-422.5 176,-490.5 176,-490.5 176,-496.5 170,-502.5 164,-502.5 164,-502.5 12,-502.5 12,-502.5 6,-502.5 0,-496.5 0,-490.5 0,-490.5 0,-422.5 0,-422.5 0,-416.5 6,-410.5 12,-410.5"/>
<text text-anchor="middle" x="88" y="-487.3" font-family="Times,serif" font-size="14.00" fill="#000000">name=%path1</text>
<polyline fill="none" stroke="black" points="0,-479.5 176,-479.5 "/>
<text text-anchor="middle" x="88" y="-464.3" font-family="Times,serif" font-size="14.00" fill="#000000">op_code=call_function</text>
<polyline fill="none" stroke="black" points="0,-456.5 176,-456.5 "/>
<text text-anchor="middle" x="88" y="-441.3" font-family="Times,serif" font-size="14.00" fill="#000000">target=torch.sin</text>
<polyline fill="none" stroke="black" points="0,-433.5 176,-433.5 "/>
<text text-anchor="middle" x="88" y="-418.3" font-family="Times,serif" font-size="14.00" fill="#000000">num_users=1</text>
</g>
<!-- l_x_&#45;&gt;path1 -->
<g id="edge1" class="edge">
<title>l_x_&#45;&gt;path1</title>
<path fill="none" stroke="black" d="M150.53,-539.37C143.54,-530.21 136.12,-520.5 128.93,-511.09"/>
<polygon fill="black" stroke="black" points="131.54,-508.74 122.69,-502.92 125.98,-512.99 131.54,-508.74"/>
</g>
<!-- path2 -->
<g id="node3" class="node">
<title>path2</title>
<path fill="#ffe7ba" stroke="black" d="M206,-410.5C206,-410.5 358,-410.5 358,-410.5 364,-410.5 370,-416.5 370,-422.5 370,-422.5 370,-490.5 370,-490.5 370,-496.5 364,-502.5 358,-502.5 358,-502.5 206,-502.5 206,-502.5 200,-502.5 194,-496.5 194,-490.5 194,-490.5 194,-422.5 194,-422.5 194,-416.5 200,-410.5 206,-410.5"/>
<text text-anchor="middle" x="282" y="-487.3" font-family="Times,serif" font-size="14.00" fill="#000000">name=%path2</text>
<polyline fill="none" stroke="black" points="194,-479.5 370,-479.5 "/>
<text text-anchor="middle" x="282" y="-464.3" font-family="Times,serif" font-size="14.00" fill="#000000">op_code=call_function</text>
<polyline fill="none" stroke="black" points="194,-456.5 370,-456.5 "/>
<text text-anchor="middle" x="282" y="-441.3" font-family="Times,serif" font-size="14.00" fill="#000000">target=torch.cos</text>
<polyline fill="none" stroke="black" points="194,-433.5 370,-433.5 "/>
<text text-anchor="middle" x="282" y="-418.3" font-family="Times,serif" font-size="14.00" fill="#000000">num_users=1</text>
</g>
<!-- l_x_&#45;&gt;path2 -->
<g id="edge2" class="edge">
<title>l_x_&#45;&gt;path2</title>
<path fill="none" stroke="black" d="M219.47,-539.37C226.46,-530.21 233.88,-520.5 241.07,-511.09"/>
<polygon fill="black" stroke="black" points="244.02,-512.99 247.31,-502.92 238.46,-508.74 244.02,-512.99"/>
</g>
<!-- pow_1 -->
<g id="node4" class="node">
<title>pow_1</title>
<path fill="#ffe4e1" stroke="black" d="M12,-258.5C12,-258.5 164,-258.5 164,-258.5 170,-258.5 176,-264.5 176,-270.5 176,-270.5 176,-361.5 176,-361.5 176,-367.5 170,-373.5 164,-373.5 164,-373.5 12,-373.5 12,-373.5 6,-373.5 0,-367.5 0,-361.5 0,-361.5 0,-270.5 0,-270.5 0,-264.5 6,-258.5 12,-258.5"/>
<text text-anchor="middle" x="88" y="-358.3" font-family="Times,serif" font-size="14.00" fill="#000000">name=%pow_1</text>
<polyline fill="none" stroke="black" points="0,-350.5 176,-350.5 "/>
<text text-anchor="middle" x="88" y="-335.3" font-family="Times,serif" font-size="14.00" fill="#000000">op_code=call_function</text>
<polyline fill="none" stroke="black" points="0,-327.5 176,-327.5 "/>
<text text-anchor="middle" x="88" y="-312.3" font-family="Times,serif" font-size="14.00" fill="#000000">target=_operator.pow</text>
<polyline fill="none" stroke="black" points="0,-304.5 176,-304.5 "/>
<text text-anchor="middle" x="88" y="-289.3" font-family="Times,serif" font-size="14.00" fill="#000000">args=(2,)</text>
<polyline fill="none" stroke="black" points="0,-281.5 176,-281.5 "/>
<text text-anchor="middle" x="88" y="-266.3" font-family="Times,serif" font-size="14.00" fill="#000000">num_users=1</text>
</g>
<!-- path1&#45;&gt;pow_1 -->
<g id="edge3" class="edge">
<title>path1&#45;&gt;pow_1</title>
<path fill="none" stroke="black" d="M88,-410.15C88,-401.67 88,-392.64 88,-383.67"/>
<polygon fill="black" stroke="black" points="91.5,-383.6 88,-373.6 84.5,-383.6 91.5,-383.6"/>
</g>
<!-- pow_2 -->
<g id="node5" class="node">
<title>pow_2</title>
<path fill="#ffe4e1" stroke="black" d="M206,-258.5C206,-258.5 358,-258.5 358,-258.5 364,-258.5 370,-264.5 370,-270.5 370,-270.5 370,-361.5 370,-361.5 370,-367.5 364,-373.5 358,-373.5 358,-373.5 206,-373.5 206,-373.5 200,-373.5 194,-367.5 194,-361.5 194,-361.5 194,-270.5 194,-270.5 194,-264.5 200,-258.5 206,-258.5"/>
<text text-anchor="middle" x="282" y="-358.3" font-family="Times,serif" font-size="14.00" fill="#000000">name=%pow_2</text>
<polyline fill="none" stroke="black" points="194,-350.5 370,-350.5 "/>
<text text-anchor="middle" x="282" y="-335.3" font-family="Times,serif" font-size="14.00" fill="#000000">op_code=call_function</text>
<polyline fill="none" stroke="black" points="194,-327.5 370,-327.5 "/>
<text text-anchor="middle" x="282" y="-312.3" font-family="Times,serif" font-size="14.00" fill="#000000">target=_operator.pow</text>
<polyline fill="none" stroke="black" points="194,-304.5 370,-304.5 "/>
<text text-anchor="middle" x="282" y="-289.3" font-family="Times,serif" font-size="14.00" fill="#000000">args=(2,)</text>
<polyline fill="none" stroke="black" points="194,-281.5 370,-281.5 "/>
<text text-anchor="middle" x="282" y="-266.3" font-family="Times,serif" font-size="14.00" fill="#000000">num_users=1</text>
</g>
<!-- path2&#45;&gt;pow_2 -->
<g id="edge4" class="edge">
<title>path2&#45;&gt;pow_2</title>
<path fill="none" stroke="black" d="M282,-410.15C282,-401.67 282,-392.64 282,-383.67"/>
<polygon fill="black" stroke="black" points="285.5,-383.6 282,-373.6 278.5,-383.6 285.5,-383.6"/>
</g>
<!-- add -->
<g id="node6" class="node">
<title>add</title>
<path fill="#ffe7ba" stroke="black" d="M109,-129.5C109,-129.5 261,-129.5 261,-129.5 267,-129.5 273,-135.5 273,-141.5 273,-141.5 273,-209.5 273,-209.5 273,-215.5 267,-221.5 261,-221.5 261,-221.5 109,-221.5 109,-221.5 103,-221.5 97,-215.5 97,-209.5 97,-209.5 97,-141.5 97,-141.5 97,-135.5 103,-129.5 109,-129.5"/>
<text text-anchor="middle" x="185" y="-206.3" font-family="Times,serif" font-size="14.00" fill="#000000">name=%add</text>
<polyline fill="none" stroke="black" points="97,-198.5 273,-198.5 "/>
<text text-anchor="middle" x="185" y="-183.3" font-family="Times,serif" font-size="14.00" fill="#000000">op_code=call_function</text>
<polyline fill="none" stroke="black" points="97,-175.5 273,-175.5 "/>
<text text-anchor="middle" x="185" y="-160.3" font-family="Times,serif" font-size="14.00" fill="#000000">target=_operator.add</text>
<polyline fill="none" stroke="black" points="97,-152.5 273,-152.5 "/>
<text text-anchor="middle" x="185" y="-137.3" font-family="Times,serif" font-size="14.00" fill="#000000">num_users=1</text>
</g>
<!-- pow_1&#45;&gt;add -->
<g id="edge5" class="edge">
<title>pow_1&#45;&gt;add</title>
<path fill="none" stroke="black" d="M127.73,-258.27C134.22,-249 140.93,-239.43 147.37,-230.24"/>
<polygon fill="black" stroke="black" points="150.32,-232.12 153.19,-221.92 144.58,-228.11 150.32,-232.12"/>
</g>
<!-- pow_2&#45;&gt;add -->
<g id="edge6" class="edge">
<title>pow_2&#45;&gt;add</title>
<path fill="none" stroke="black" d="M242.27,-258.27C235.78,-249 229.07,-239.43 222.63,-230.24"/>
<polygon fill="black" stroke="black" points="225.42,-228.11 216.81,-221.92 219.68,-232.12 225.42,-228.11"/>
</g>
<!-- output -->
<g id="node7" class="node">
<title>output</title>
<path fill="PowderBlue" stroke="black" d="M130.5,-0.5C130.5,-0.5 239.5,-0.5 239.5,-0.5 245.5,-0.5 251.5,-6.5 251.5,-12.5 251.5,-12.5 251.5,-80.5 251.5,-80.5 251.5,-86.5 245.5,-92.5 239.5,-92.5 239.5,-92.5 130.5,-92.5 130.5,-92.5 124.5,-92.5 118.5,-86.5 118.5,-80.5 118.5,-80.5 118.5,-12.5 118.5,-12.5 118.5,-6.5 124.5,-0.5 130.5,-0.5"/>
<text text-anchor="middle" x="185" y="-77.3" font-family="Times,serif" font-size="14.00" fill="#000000">name=%output</text>
<polyline fill="none" stroke="black" points="118.5,-69.5 251.5,-69.5 "/>
<text text-anchor="middle" x="185" y="-54.3" font-family="Times,serif" font-size="14.00" fill="#000000">op_code=output</text>
<polyline fill="none" stroke="black" points="118.5,-46.5 251.5,-46.5 "/>
<text text-anchor="middle" x="185" y="-31.3" font-family="Times,serif" font-size="14.00" fill="#000000">target=output</text>
<polyline fill="none" stroke="black" points="118.5,-23.5 251.5,-23.5 "/>
<text text-anchor="middle" x="185" y="-8.3" font-family="Times,serif" font-size="14.00" fill="#000000">num_users=0</text>
</g>
<!-- add&#45;&gt;output -->
<g id="edge7" class="edge">
<title>add&#45;&gt;output</title>
<path fill="none" stroke="black" d="M185,-129.37C185,-120.86 185,-111.87 185,-103.09"/>
<polygon fill="black" stroke="black" points="188.5,-102.92 185,-92.92 181.5,-102.92 188.5,-102.92"/>
</g>
</g>
</svg>
