<?xml version="1.0" encoding="UTF-8" standalone="no"?><!DOCTYPE svg PUBLIC "-//W3C//DTD SVG 1.1//EN" "http://www.w3.org/Graphics/SVG/1.1/DTD/svg11.dtd"><!-- Generated by graphviz version 2.40.1 (20161225.0304)
 --><!-- Title: root Pages: 1 --><svg xmlns="http://www.w3.org/2000/svg" xmlns:xlink="http://www.w3.org/1999/xlink" width="757pt" height="399pt" viewBox="0.00 0.00 756.72 399.20">
<g id="graph0" class="graph" transform="scale(1 1) rotate(0) translate(4 395.2)">
<title>root</title>
<polygon fill="#ffffff" stroke="transparent" points="-4,4 -4,-395.2 752.7239,-395.2 752.7239,4 -4,4"/>
<!-- n0 -->
<g id="d7bd253991474b4fa995c951358cc2de" class="node">
<title>n0</title>
<ellipse fill="none" stroke="#000000" cx="339.4919" cy="-373.2" rx="38.8652" ry="18"/>
<text text-anchor="middle" x="339.4919" y="-369" font-family="Times,serif" font-size="14.00" fill="#000000">n0:root</text>
</g>
<!-- n1 -->
<g id="a7c0dfbf3871444f8fa650eb60db3100" class="node">
<title>n1</title>
<ellipse fill="none" stroke="#000000" cx="339.4919" cy="-284.4" rx="77.0313" ry="18"/>
<text text-anchor="middle" x="339.4919" y="-280.2" font-family="Times,serif" font-size="14.00" fill="#000000">n1:dialogue_root</text>
</g>
<!-- n0&#45;&gt;n1 -->
<g id="a7dc05794b2c4e3da2a518fd4b5a39ca" class="edge">
<title>n0-&gt;n1</title>
<path fill="none" stroke="#000000" d="M339.4919,-354.8006C339.4919,-342.6949 339.4919,-326.6076 339.4919,-312.8674"/>
<polygon fill="#000000" stroke="#000000" points="342.992,-312.472 339.4919,-302.472 335.992,-312.4721 342.992,-312.472"/>
<text text-anchor="middle" x="346.0992" y="-324.6" font-family="Times,serif" font-size="14.00" fill="#000000">e2</text>
</g>
<!-- n2 -->
<g id="1129cd8d66b94106b8f4abf7bdde41ce" class="node">
<title>n2</title>
<ellipse fill="none" stroke="#000000" cx="197.4919" cy="-195.6" rx="83.9643" ry="18"/>
<text text-anchor="middle" x="197.4919" y="-191.4" font-family="Times,serif" font-size="14.00" fill="#000000">n2:test_drive_state</text>
</g>
<!-- n1&#45;&gt;n2 -->
<g id="405b0a6165fb4e0195aec2ad0049d6f5" class="edge">
<title>n1-&gt;n2</title>
<path fill="none" stroke="#000000" d="M312.4486,-267.4884C290.0883,-253.5053 258.1385,-233.5255 233.5943,-218.1767"/>
<polygon fill="#000000" stroke="#000000" points="235.2527,-215.0858 224.9183,-212.7511 231.5412,-221.0208 235.2527,-215.0858"/>
<text text-anchor="middle" x="335.9288" y="-235.8" font-family="Times,serif" font-size="14.00" fill="#000000">e1:intent_transition</text>
</g>
<!-- n6 -->
<g id="9df743ead2dc429f99284dc5851cd020" class="node">
<title>n6</title>
<ellipse fill="none" stroke="#000000" cx="489.4919" cy="-195.6" rx="56.1821" ry="18"/>
<text text-anchor="middle" x="489.4919" y="-191.4" font-family="Times,serif" font-size="14.00" fill="#000000">n6:faq_root</text>
</g>
<!-- n1&#45;&gt;n6 -->
<g id="0ebf8a1c73e74e78b71ac6ab58e7c376" class="edge">
<title>n1-&gt;n6</title>
<path fill="none" stroke="#000000" d="M368.0588,-267.4884C392.3907,-253.0839 427.4722,-232.3157 453.6781,-216.8018"/>
<polygon fill="#000000" stroke="#000000" points="455.7229,-219.6587 462.545,-211.5526 452.1569,-213.635 455.7229,-219.6587"/>
<text text-anchor="middle" x="482.9288" y="-235.8" font-family="Times,serif" font-size="14.00" fill="#000000">e0:intent_transition</text>
</g>
<!-- n2&#45;&gt;n2 -->
<g id="e16fa62f46d1484ea18fa1e1b8fb2f1b" class="edge">
<title>n2-&gt;n2</title>
<path fill="none" stroke="#000000" d="M273.0985,-203.5353C288.4681,-202.6709 299.4741,-200.0258 299.4741,-195.6 299.4741,-192.2115 293.0226,-189.8668 283.1007,-188.5659"/>
<polygon fill="#000000" stroke="#000000" points="283.3723,-185.0763 273.0985,-187.6647 282.744,-192.0481 283.3723,-185.0763"/>
<text text-anchor="middle" x="353.911" y="-191.4" font-family="Times,serif" font-size="14.00" fill="#000000">e4:intent_transition</text>
</g>
<!-- n3 -->
<g id="8475d54916034a968e2df147dcf55423" class="node">
<title>n3</title>
<ellipse fill="none" stroke="#000000" cx="69.4919" cy="-18" rx="69.4839" ry="18"/>
<text text-anchor="middle" x="69.4919" y="-13.8" font-family="Times,serif" font-size="14.00" fill="#000000">n3:td_canceled</text>
</g>
<!-- n2&#45;&gt;n3 -->
<g id="54ab1bd3837a4bda828eb96d3dcadeca" class="edge">
<title>n2-&gt;n3</title>
<path fill="none" stroke="#000000" d="M136.1438,-183.1334C104.2419,-173.1477 68.1305,-155.5166 49.6181,-124.8 34.9666,-100.4895 44.4108,-67.8511 54.6831,-45.0787"/>
<polygon fill="#000000" stroke="#000000" points="57.8813,-46.5043 59.0685,-35.9762 51.575,-43.4661 57.8813,-46.5043"/>
<text text-anchor="middle" x="108.4288" y="-102.6" font-family="Times,serif" font-size="14.00" fill="#000000">e10:intent_transition</text>
</g>
<!-- n4 -->
<g id="6ca34af59f24461ebe389f1afd847944" class="node">
<title>n4</title>
<ellipse fill="none" stroke="#000000" cx="260.4919" cy="-106.8" rx="85.6957" ry="18"/>
<text text-anchor="middle" x="260.4919" y="-102.6" font-family="Times,serif" font-size="14.00" fill="#000000">n4:td_confirmation</text>
</g>
<!-- n2&#45;&gt;n4 -->
<g id="16e65abd832248099dcfb7f001d3a6e2" class="edge">
<title>n2-&gt;n4</title>
<path fill="none" stroke="#000000" d="M149.4454,-180.7425C128.1715,-171.5959 110.4155,-158.598 122.6181,-142.8 127.1383,-136.948 157.5094,-128.7098 188.599,-121.5907"/>
<polygon fill="#000000" stroke="#000000" points="189.6975,-124.9312 198.6864,-119.3231 188.1622,-118.1017 189.6975,-124.9312"/>
<text text-anchor="middle" x="181.4288" y="-147" font-family="Times,serif" font-size="14.00" fill="#000000">e11:entity_transition</text>
</g>
<!-- n4&#45;&gt;n2 -->
<g id="fc03dd00bc6a42f98c75db60abec292d" class="edge">
<title>n4-&gt;n2</title>
<path fill="none" stroke="#000000" d="M256.9617,-125.0938C254.2568,-135.8424 249.7281,-149.2972 242.4919,-159.6 239.4784,-163.8906 235.8128,-167.9332 231.8885,-171.6495"/>
<polygon fill="#000000" stroke="#000000" points="229.3933,-169.1804 224.1264,-178.3734 233.9765,-174.4714 229.3933,-169.1804"/>
<text text-anchor="middle" x="305.9288" y="-147" font-family="Times,serif" font-size="14.00" fill="#000000">e5:intent_transition</text>
</g>
<!-- n4&#45;&gt;n3 -->
<g id="eed985b8ed434e109a429031a9db0b01" class="edge">
<title>n4-&gt;n3</title>
<path fill="none" stroke="#000000" d="M205.8772,-92.8131C186.9719,-87.0822 165.9404,-79.6853 147.6181,-70.8 130.9065,-62.6958 113.6629,-51.4046 99.641,-41.3429"/>
<polygon fill="#000000" stroke="#000000" points="101.4957,-38.3629 91.3604,-35.2764 97.3588,-44.0097 101.4957,-38.3629"/>
<text text-anchor="middle" x="202.9288" y="-58.2" font-family="Times,serif" font-size="14.00" fill="#000000">e6:intent_transition</text>
</g>
<!-- n5 -->
<g id="46f15405739340fa99633fc46e24650c" class="node">
<title>n5</title>
<ellipse fill="none" stroke="#000000" cx="260.4919" cy="-18" rx="75.3041" ry="18"/>
<text text-anchor="middle" x="260.4919" y="-13.8" font-family="Times,serif" font-size="14.00" fill="#000000">n5:td_confirmed</text>
</g>
<!-- n4&#45;&gt;n5 -->
<g id="7ba2d007905a45e2a3c4ac39ffb976e1" class="edge">
<title>n4-&gt;n5</title>
<path fill="none" stroke="#000000" d="M260.4919,-88.4006C260.4919,-76.2949 260.4919,-60.2076 260.4919,-46.4674"/>
<polygon fill="#000000" stroke="#000000" points="263.992,-46.072 260.4919,-36.072 256.992,-46.0721 263.992,-46.072"/>
<text text-anchor="middle" x="314.9288" y="-58.2" font-family="Times,serif" font-size="14.00" fill="#000000">e9:intent_transition</text>
</g>
<!-- n7 -->
<g id="e6954f3bfe56405e925cc6b948a4a0e9" class="node">
<title>n7</title>
<ellipse fill="none" stroke="#000000" cx="422.4919" cy="-106.8" rx="58.4648" ry="18"/>
<text text-anchor="middle" x="422.4919" y="-102.6" font-family="Times,serif" font-size="14.00" fill="#000000">n7:faq_state</text>
</g>
<!-- n6&#45;&gt;n7 -->
<g id="86fe2dec8e594c8a9e0bd64ae4f65930" class="edge">
<title>n6-&gt;n7</title>
<path fill="none" stroke="#000000" d="M476.2549,-178.056C466.4997,-165.1267 453.0725,-147.3307 442.0774,-132.7581"/>
<polygon fill="#000000" stroke="#000000" points="444.7478,-130.4862 435.9308,-124.6115 439.1599,-134.7023 444.7478,-130.4862"/>
<text text-anchor="middle" x="469.0992" y="-147" font-family="Times,serif" font-size="14.00" fill="#000000">e3</text>
</g>
<!-- n8 -->
<g id="f9c1faf3ddfd43feb961f6deec119e9a" class="node">
<title>n8</title>
<ellipse fill="none" stroke="#000000" cx="556.4919" cy="-106.8" rx="58.4648" ry="18"/>
<text text-anchor="middle" x="556.4919" y="-102.6" font-family="Times,serif" font-size="14.00" fill="#000000">n8:faq_state</text>
</g>
<!-- n6&#45;&gt;n8 -->
<g id="4bb0cdc706dd44f5ac5bdde54d420293" class="edge">
<title>n6-&gt;n8</title>
<path fill="none" stroke="#000000" d="M502.729,-178.056C512.4841,-165.1267 525.9113,-147.3307 536.9065,-132.7581"/>
<polygon fill="#000000" stroke="#000000" points="539.824,-134.7023 543.0531,-124.6115 534.2361,-130.4862 539.824,-134.7023"/>
<text text-anchor="middle" x="536.0992" y="-147" font-family="Times,serif" font-size="14.00" fill="#000000">e7</text>
</g>
<!-- n9 -->
<g id="918105a2bfa9425e907249e45b857180" class="node">
<title>n9</title>
<ellipse fill="none" stroke="#000000" cx="690.4919" cy="-106.8" rx="58.4648" ry="18"/>
<text text-anchor="middle" x="690.4919" y="-102.6" font-family="Times,serif" font-size="14.00" fill="#000000">n9:faq_state</text>
</g>
<!-- n6&#45;&gt;n9 -->
<g id="f8afb3dc7ee148e091a2d30675d2dab6" class="edge">
<title>n6-&gt;n9</title>
<path fill="none" stroke="#000000" d="M522.683,-180.9365C556.7677,-165.8782 609.9689,-142.3743 647.3104,-125.8772"/>
<polygon fill="#000000" stroke="#000000" points="649.1835,-128.8761 656.9163,-121.6334 646.3547,-122.4731 649.1835,-128.8761"/>
<text text-anchor="middle" x="615.0992" y="-147" font-family="Times,serif" font-size="14.00" fill="#000000">e8</text>
</g>
</g>
</svg>