<svg xmlns="http://www.w3.org/2000/svg" viewBox="0 0 220.59 200"><defs><style>.cls-1{fill:#e0e0e0;}.cls-2{fill:#fafafa;}.cls-3{fill:#ebebeb;}.cls-4{fill:#f5f5f5;}.cls-5{fill:#fff;}.cls-6{fill:#b78876;}.cls-7{fill:#aa6550;}.cls-13,.cls-8{fill:#ef6236;}.cls-9{fill:#263238;}.cls-10{opacity:0.3;}.cls-11{fill:#455a64;}.cls-12{opacity:0.2;}.cls-13,.cls-14{fill-rule:evenodd;}.cls-14,.cls-15,.cls-16,.cls-17,.cls-18{fill:none;stroke-miterlimit:10;}.cls-14{stroke:#000;}.cls-14,.cls-18{stroke-width:0.48px;}.cls-15,.cls-16,.cls-17,.cls-18{stroke:#ef6236;}.cls-15,.cls-16,.cls-17{stroke-width:0.5px;}.cls-16{stroke-dasharray:2.62 2.62;}.cls-17{stroke-dasharray:1.93;}</style></defs><g id="Layer_2" data-name="Layer 2"><g id="icons"><g id="freepik--background-complete--inject-359"><rect class="cls-1" x="125.15" y="0.02" width="29.71" height="30.97"/><rect class="cls-2" x="123.13" y="0.02" width="29.71" height="30.97"/><path class="cls-1" d="M152.86,31H123.12V0h29.74Zm-29.72,0h29.7V0h-29.7Z"/><rect class="cls-2" x="127.13" y="4.19" width="21.73" height="22.65"/><path class="cls-1" d="M127.13,27a4.08,4.08,0,0,1-.54.63c-.35.36-.83.86-1.38,1.4s-1,1-1.42,1.36a3.49,3.49,0,0,1-.63.52,4,4,0,0,1,.54-.62c.34-.37.84-.87,1.38-1.4s1-1,1.42-1.37A4,4,0,0,1,127.13,27Z"/><path class="cls-1" d="M148.86,26.93a3.87,3.87,0,0,1,.62.53c.36.35.86.84,1.4,1.39s1,1,1.36,1.44a4,4,0,0,1,.52.63,3.16,3.16,0,0,1-.62-.53c-.37-.36-.86-.84-1.4-1.39s-1-1.05-1.36-1.44A3.11,3.11,0,0,1,148.86,26.93Z"/><path class="cls-1" d="M148.79,4.25a4.08,4.08,0,0,1,.54-.63l1.38-1.4c.55-.54,1-1,1.42-1.35a3.54,3.54,0,0,1,.63-.53,3.16,3.16,0,0,1-.53.62c-.35.37-.84.86-1.39,1.4s-1.05,1-1.44,1.37A3.42,3.42,0,0,1,148.79,4.25Z"/><path class="cls-1" d="M127.07,4.3a2.9,2.9,0,0,1-.62-.54c-.37-.34-.87-.83-1.4-1.37s-1-1-1.36-1.45a3.22,3.22,0,0,1-.53-.63,3.72,3.72,0,0,1,.63.56c.36.35.86.84,1.4,1.39s1,1.05,1.36,1.44A3.3,3.3,0,0,1,127.07,4.3Z"/><path class="cls-1" d="M148.79,26.83V20.57c0-4,0-9.63,0-16.37l.08.08H127.17l.09-.09V26.81l-.08-.08,15.69.05h0l-15.74,0h-.08V4h21.85V4.1c0,6.79,0,12.46-.05,16.44v6.11A.26.26,0,0,1,148.79,26.83Z"/><rect class="cls-3" x="134.37" y="11.89" width="7.25" height="7.25"/><rect class="cls-1" x="10.89" y="12.82" width="41.78" height="43.55"/><rect class="cls-2" x="8.06" y="12.82" width="41.78" height="43.55"/><path class="cls-1" d="M49.85,56.38H8.05V12.81h41.8Zm-41.78,0H49.83V12.83H8.07Z"/><rect class="cls-2" x="13.68" y="18.67" width="30.55" height="31.84"/><path class="cls-1" d="M13.68,50.73a4.84,4.84,0,0,1-.76.87c-.48.52-1.17,1.21-1.92,2S9.52,55,9,55.5a4.38,4.38,0,0,1-.88.73,5.52,5.52,0,0,1,.73-.87c.48-.51,1.18-1.21,1.93-2s1.48-1.45,2-1.93A4.5,4.5,0,0,1,13.68,50.73Z"/><path class="cls-1" d="M44.22,50.64a5.34,5.34,0,0,1,.88.76c.51.48,1.21,1.17,2,1.93s1.44,1.47,1.92,2a5.15,5.15,0,0,1,.74.88,4.43,4.43,0,0,1-.87-.75c-.52-.48-1.22-1.17-2-1.92s-1.44-1.48-1.92-2A4.55,4.55,0,0,1,44.22,50.64Z"/><path class="cls-1" d="M44.14,18.77a5.15,5.15,0,0,1,.75-.87c.48-.52,1.18-1.21,1.93-2s1.47-1.44,2-1.93a4.81,4.81,0,0,1,.89-.73,4.84,4.84,0,0,1-.76.87c-.48.51-1.17,1.21-1.92,2S45.54,17.56,45,18A4.38,4.38,0,0,1,44.14,18.77Z"/><path class="cls-1" d="M13.6,18.84a4.58,4.58,0,0,1-.88-.76c-.52-.48-1.21-1.17-2-1.92s-1.44-1.48-1.93-2a5.59,5.59,0,0,1-.73-.88A4.43,4.43,0,0,1,9,14c.51.48,1.21,1.17,2,1.92s1.45,1.48,1.93,2A4.86,4.86,0,0,1,13.6,18.84Z"/><path class="cls-1" d="M44.14,50.51V48.19c0-1.5,0-3.7,0-6.49,0-5.57,0-13.51-.06-23l.12.12H13.71l.13-.14V50.49l-.11-.11,22.05.06,6.19,0H42l-6.21.08-22.15.06h-.11V18.52H44.26v.12c0,9.54,0,17.51-.06,23.11,0,2.77,0,5,0,6.46v2.13Z"/><rect class="cls-3" x="23.85" y="29.5" width="10.19" height="10.19"/><rect class="cls-1" x="165.34" y="25.3" width="43.68" height="45.53"/><rect class="cls-2" x="162.38" y="25.3" width="43.68" height="45.53"/><path class="cls-1" d="M206.08,70.85H162.37V25.29h43.71Zm-43.68,0h43.65V25.32H162.4Z"/><rect class="cls-2" x="168.26" y="31.42" width="31.94" height="33.29"/><path class="cls-1" d="M168.26,64.94a5.73,5.73,0,0,1-.79.91c-.51.54-1.23,1.27-2,2.06s-1.55,1.49-2.09,2a5.28,5.28,0,0,1-.92.78,4.27,4.27,0,0,1,.78-.91c.51-.54,1.23-1.28,2-2.07s1.54-1.5,2.09-2A4.49,4.49,0,0,1,168.26,64.94Z"/><path class="cls-1" d="M200.19,64.85a5.33,5.33,0,0,1,.92.79c.54.51,1.27,1.23,2.06,2s1.49,1.54,2,2.09a5.17,5.17,0,0,1,.76.92,5.68,5.68,0,0,1-.91-.78c-.54-.51-1.27-1.23-2.06-2s-1.5-1.54-2-2.09A4.88,4.88,0,0,1,200.19,64.85Z"/><path class="cls-1" d="M200.11,31.51a4.87,4.87,0,0,1,.79-.91c.51-.54,1.22-1.27,2-2.06s1.55-1.5,2.09-2a5.61,5.61,0,0,1,.92-.77,4.52,4.52,0,0,1-.78.91c-.51.54-1.23,1.28-2,2.06s-1.54,1.51-2.08,2A5.55,5.55,0,0,1,200.11,31.51Z"/><path class="cls-1" d="M168.17,31.59a5.67,5.67,0,0,1-.92-.78c-.53-.52-1.27-1.23-2.06-2s-1.49-1.54-2-2.08a4.88,4.88,0,0,1-.77-.93,5.73,5.73,0,0,1,.91.79c.54.51,1.27,1.23,2.06,2s1.5,1.54,2,2.09A5.16,5.16,0,0,1,168.17,31.59Z"/><path class="cls-1" d="M200.11,64.72a.49.49,0,0,1,0-.17V62.27c0-1.57,0-3.85,0-6.78,0-5.83,0-14.14-.06-24.07l.12.12H168.29l.14-.14V64.69l-.12-.12,23.06.06,6.48,0h.05l-6.45,0-23.14.06h-.12V31.29H200.3v.12c0,10,0,18.3-.06,24.16,0,2.89,0,5.19,0,6.74v2.23A.24.24,0,0,1,200.11,64.72Z"/><rect class="cls-3" x="178.9" y="42.74" width="10.66" height="10.66"/><polygon class="cls-4" points="10.27 177.64 10.27 199.94 42.87 199.94 78.84 199.94 78.84 177.64 10.27 177.64"/><polygon class="cls-1" points="7.39 171.41 7.39 177.64 81.23 177.64 81.23 171.41 42.87 171.41 7.39 171.41"/><polygon class="cls-1" points="44.31 199.94 78.84 199.94 78.84 177.64 81.23 177.64 81.23 171.41 42.87 171.41 42.87 177.07 44.31 199.94"/><rect class="cls-1" x="19.86" y="181.24" width="13.91" height="3.36"/><rect class="cls-5" x="18.07" y="188.79" width="17.86" height="7.09"/></g><g id="freepik--Character--inject-359"><path class="cls-6" d="M106.61,135.07s-1.12-4.89-5.66-4.65-5.65.25-7.61,0-5-2.6-5.85-1.87-.38,2.33,1.21,3.75A15.88,15.88,0,0,0,93,134.71l-5.8,1s-5.23-2.79-6.45-2.3a1.89,1.89,0,0,0-1.13,1.85s-2.17-1-2.78-.11-.77,1.44-.15,1.92c0,0-.41-.4-1.53-.07-1,.29-.88,2.06,0,2.54l.29.17s8.23,4.74,8.48,4.77c1.44.19,10.31-.18,14.87-.39a4.65,4.65,0,0,1,4.16,2.17l7.35,11.65,8.3-9.58Z"/><path class="cls-7" d="M91.71,137.74a7.75,7.75,0,0,1-1.35.3l-3.44.61h-.06L85,137.8l-4.44-2-1.33-.64a2.12,2.12,0,0,1-.49-.27,2.47,2.47,0,0,1,.52.18l1.37.56,2,.87,2.45,1.12,1.85.86h-.07l3.46-.52A10.48,10.48,0,0,1,91.71,137.74Z"/><path class="cls-7" d="M89.67,139.93a7,7,0,0,0-3.31,2.62A4.15,4.15,0,0,1,89.67,139.93Z"/><path class="cls-7" d="M99.08,133.07s.06.3.21.78a4.12,4.12,0,0,0,1.12,1.72l.17.15-.22.05a11,11,0,0,0-2.25.67,11.94,11.94,0,0,0-3.17,1.92c-.72.62-1.11,1.08-1.14,1s.07-.13.24-.35a8.71,8.71,0,0,1,.78-.83,10.59,10.59,0,0,1,3.19-2,10.89,10.89,0,0,1,2.31-.66l-.06.19a3.94,3.94,0,0,1-1.1-1.85A2,2,0,0,1,99.08,133.07Z"/><path class="cls-7" d="M93.65,134.46a13.94,13.94,0,0,1-3.16.85c-.9.16-1.71.28-2.3.34a3.85,3.85,0,0,1-1,0c0-.07,1.45-.28,3.21-.62l2.26-.44A3.86,3.86,0,0,1,93.65,134.46Z"/><path class="cls-7" d="M85.93,140.88a11.73,11.73,0,0,1-1.38-.56c-.84-.34-2-.79-3.33-1.26s-2.5-.91-3.34-1.27a7.21,7.21,0,0,1-1.34-.65,11,11,0,0,1,1.4.48l3.37,1.2c1.31.48,2.49,1,3.32,1.34A6.61,6.61,0,0,1,85.93,140.88Z"/><path class="cls-7" d="M88,140.68a5.49,5.49,0,0,1-3.55.35c0-.07.81,0,1.78-.13A17.21,17.21,0,0,1,88,140.68Z"/><path class="cls-8" d="M133.76,112.56s-7.34,4.22-8.87,17.12c-.8,6.74-3.73,19.23-3.73,19.23l-6-6.77L106,152.57s9.85,21,15.41,26.74,16.58,7.5,16.58,7.5l2.22-35.12Z"/><path class="cls-8" d="M189.43,106.76l-17-3-21.62,1.07s-18,7.43-17.09,7.7l-3.51,34.75L139,164.1l-2.16,35.77h59.69L193.37,175l-3.91-30,7.41,23.2L198,199.87H214.6c1.76-13.77,2.31-32.91,2.31-32.91l-13.56-44.29A25.81,25.81,0,0,0,191.87,108,13.11,13.11,0,0,0,189.43,106.76Z"/><path class="cls-9" d="M133.57,130.09l0,.18c0,.13.06.3.1.52.08.48.2,1.15.35,2,.29,1.74.71,4.28,1.2,7.41s1.05,6.87,1.53,11,1,8.75,1.28,13.59c0,.45.05.9.07,1.31h0c-.25,9.38-.53,17.81-.8,23.9-.13,3-.25,5.49-.36,7.19-.06.83-.1,1.48-.13,1.92,0,.21,0,.38,0,.51v-.51c0-.46.05-1.11.09-1.93.06-1.71.16-4.16.28-7.19.21-6.09.48-14.51.72-23.89h0c0-.42,0-.86-.07-1.32-.28-4.81-.76-9.41-1.26-13.57s-1-7.9-1.5-11-.85-5.66-1.12-7.43l-.3-2c0-.22-.05-.4-.07-.53A.86.86,0,0,1,133.57,130.09Z"/><path class="cls-9" d="M185.61,132a.9.9,0,0,1-.06-.22c0-.18-.06-.39-.11-.65s0-.3-.06-.48,0-.36,0-.56a12.47,12.47,0,0,1,0-1.37v-.79c0-.27.05-.56.08-.86a17,17,0,0,1,.28-1.88A21.19,21.19,0,0,1,187,121a20.89,20.89,0,0,1,2.29-3.72,17.21,17.21,0,0,1,1.26-1.45c.21-.21.4-.42.61-.61l.6-.52a12.35,12.35,0,0,1,1.07-.84,3.73,3.73,0,0,1,.48-.33l.4-.25.57-.33a1.24,1.24,0,0,1,.2-.1,1.28,1.28,0,0,1-.18.14l-.53.38-.39.26L193,114c-.36.27-.71.56-1,.86l-.59.53c-.2.19-.39.41-.59.62q-.65.69-1.23,1.44a19.58,19.58,0,0,0-3.63,7.78,16.4,16.4,0,0,0-.31,1.86c0,.29-.07.57-.09.84s0,.54,0,.79c0,.48,0,1,0,1.36v.55a3.69,3.69,0,0,0,0,.49c0,.25,0,.48.06.64A1.43,1.43,0,0,1,185.61,132Z"/><path class="cls-9" d="M196.85,168.24a1.45,1.45,0,0,1-.11-.29c-.07-.22-.16-.48-.27-.84l-1-3.08c-.81-2.61-1.92-6.21-3.22-10.16s-2.48-7.54-3.44-10.09c-.49-1.26-1-2.26-1.29-3-.15-.35-.26-.63-.34-.81a1.71,1.71,0,0,1-.09-.3,1.47,1.47,0,0,1,.14.28l.38.79c.32.69.84,1.67,1.36,2.93,1,2.55,2.23,6.12,3.52,10.08s2.38,7.57,3.16,10.19c.38,1.31.69,2.37.89,3.11.09.34.17.62.22.84A1.55,1.55,0,0,1,196.85,168.24Z"/><path class="cls-9" d="M209.36,167.13s-.64-.14-1.69-.3a15.79,15.79,0,0,0-8.09.86c-1,.39-1.56.71-1.59.67a1.66,1.66,0,0,1,.39-.26,10.86,10.86,0,0,1,1.13-.57,14,14,0,0,1,4-1.06,13.82,13.82,0,0,1,4.16.17,8.52,8.52,0,0,1,1.23.31A1.63,1.63,0,0,1,209.36,167.13Z"/><path class="cls-9" d="M134.27,164.68a6,6,0,0,1-.44-.67c-.3-.43-.73-1-1.31-1.76-1.15-1.44-2.84-3.37-4.72-5.5s-3.58-4-4.78-5.46l-1.4-1.7a4.86,4.86,0,0,1-.48-.64,3.78,3.78,0,0,1,.55.58l1.45,1.64,4.81,5.41c1.88,2.13,3.55,4.07,4.67,5.56a18.91,18.91,0,0,1,1.25,1.82,4.42,4.42,0,0,1,.29.53C134.22,164.61,134.28,164.67,134.27,164.68Z"/><g class="cls-10"><path d="M137.59,186.81c.27-9.72.78-18.69-.11-28.29C137.09,167,134,177,130.87,185Z"/></g><g class="cls-10"><path d="M189.44,145s-2.77-6.19-2.58-6.19a94.26,94.26,0,0,0,6.42,35.62Z"/></g><path class="cls-9" d="M181.83,177.87a2.3,2.3,0,0,1-.33.21l-1,.56c-.85.49-2.06,1.22-3.55,2.14s-3.26,2-5.3,3.14a47.47,47.47,0,0,1-6.8,3.22,23.05,23.05,0,0,1-7.38,1.5,11.3,11.3,0,0,1-3.27-.48,7.89,7.89,0,0,1-2.55-1.34,6.43,6.43,0,0,1-2.29-3.42,5.29,5.29,0,0,1-.15-1.12c0-.13,0-.26,0-.39a7.57,7.57,0,0,0,.23,1.49,6.41,6.41,0,0,0,2.3,3.3,7.6,7.6,0,0,0,2.5,1.28,11.2,11.2,0,0,0,3.21.43,23.35,23.35,0,0,0,7.29-1.51,48.12,48.12,0,0,0,6.78-3.18c2-1.13,3.8-2.21,5.3-3.1s2.73-1.59,3.59-2.06l1-.53A2.24,2.24,0,0,1,181.83,177.87Z"/><path class="cls-9" d="M181.76,163.77a5.08,5.08,0,0,1-.19.84,8.69,8.69,0,0,1-.28,1c-.12.37-.25.8-.44,1.26s-.38,1-.64,1.49-.53,1.08-.84,1.65a24.88,24.88,0,0,1-5.39,6.56,18.3,18.3,0,0,1-1.44,1.16c-.48.33-.92.65-1.34.91s-.8.48-1.14.69-.65.34-.9.48a6.81,6.81,0,0,1-.78.34,4.93,4.93,0,0,1,.74-.43c.24-.13.54-.29.86-.48a12.48,12.48,0,0,0,1.13-.71c.4-.29.85-.57,1.31-.93s.93-.74,1.44-1.16a26.07,26.07,0,0,0,5.29-6.54c.31-.56.62-1.1.86-1.63s.48-1,.66-1.44.34-.87.48-1.24a10.13,10.13,0,0,0,.33-1A4.66,4.66,0,0,1,181.76,163.77Z"/><path class="cls-2" d="M134.42,141.57c0,.06-2.52-.43-5.6-1.11s-5.56-1.28-5.54-1.35,2.52.43,5.6,1.1S134.44,141.5,134.42,141.57Z"/><path class="cls-2" d="M134.42,138.75a10.47,10.47,0,0,1-1.58-.18c-1-.15-2.31-.39-3.79-.67l-3.77-.74a12,12,0,0,1-1.55-.35,9.31,9.31,0,0,1,1.58.17c1,.15,2.32.39,3.79.67l3.77.74A12,12,0,0,1,134.42,138.75Z"/><path class="cls-2" d="M185.7,139.13c0,.06-10.84,0-24.21-.06s-24.2-.24-24.2-.31,10.84,0,24.21.06S185.7,139,185.7,139.13Z"/><path class="cls-2" d="M186.5,141.57c0,.06-11.15.12-24.91.12s-24.9-.06-24.9-.12,11.15-.13,24.9-.13S186.5,141.49,186.5,141.57Z"/><path class="cls-2" d="M206.79,135.85h.06c.06,0,0,0-.07,0h0v0H207l-.15,0c-.89.33-4.61,1.59-9,3.27l-6.48,2.48-2,.76a5.85,5.85,0,0,1-.74.25,3.77,3.77,0,0,1,.7-.34l1.92-.83c1.65-.68,3.92-1.6,6.46-2.56,4.4-1.68,8.18-2.86,9.08-3.08v0h-.05v0h0a.06.06,0,0,1,.07,0Z"/><path class="cls-2" d="M206.4,132.74c0,.07-4.2,1.54-9.44,3.3s-9.5,3.13-9.52,3.07,4.2-1.54,9.44-3.31S206.37,132.67,206.4,132.74Z"/><path class="cls-2" d="M174.2,104.15a2.58,2.58,0,0,1,0,.39,10.29,10.29,0,0,1,0,1.11,12,12,0,0,1-.85,4,12.47,12.47,0,0,1-3.58,4.94,12.05,12.05,0,0,1-18.26-3.6,12,12,0,0,1-1.34-3.9,8.32,8.32,0,0,1-.1-1.11,1.27,1.27,0,0,1,0-.39,2.3,2.3,0,0,1,.05.39,8.31,8.31,0,0,0,.15,1.1,12.72,12.72,0,0,0,1.4,3.82,12.44,12.44,0,0,0,4.11,4.33,12.12,12.12,0,0,0,13.86-.84,12.49,12.49,0,0,0,4.47-8.79c0-.48,0-.86,0-1.11A1.51,1.51,0,0,1,174.2,104.15Z"/><path class="cls-2" d="M115.55,143.14a2.23,2.23,0,0,1-.26.48c-.17.29-.44.71-.78,1.21-.69,1-1.69,2.35-2.89,3.78a46.31,46.31,0,0,1-3.26,3.46,13.87,13.87,0,0,1-1,1,2.18,2.18,0,0,1-.42.33,2.23,2.23,0,0,1,.35-.4l1-1c.85-.87,2-2.09,3.19-3.5s2.21-2.74,2.93-3.72l.85-1.15A2,2,0,0,1,115.55,143.14Z"/><g class="cls-10"><path d="M169.93,179.23c-2.43,1.38-5.71,1.6-8.63,1.68a3.75,3.75,0,0,1-1.63-.22,1.38,1.38,0,0,1-.88-1.28c.06-.66.72-1.09,1.34-1.34,2.36-1,5-.93,7.5-1.55,4.22-1.06,8.54-4.08,11.83-6.94a25.75,25.75,0,0,1-9.53,9.63"/></g><path class="cls-6" d="M160.83,115.54h0a10.87,10.87,0,0,1-10-10.93c0-2.7,0-4.87,0-4.87s-8.71-1.35-8.82-10.06S143.46,61,143.46,61h0a30.28,30.28,0,0,1,30.44,3.83l1.29,1-2.66,39.66A10.86,10.86,0,0,1,161,115.55Z"/><path class="cls-7" d="M150.87,99.61a20.31,20.31,0,0,0,11.36-3.23s-2.68,6.26-11.38,5.49Z"/><path class="cls-6" d="M174.11,74.79c.15-.07,6-1.78,5.78,4.18s-6.13,4.54-6.14,4.37S174.11,74.79,174.11,74.79Z"/><path class="cls-7" d="M175.67,81.14s.1.08.27.16a1,1,0,0,0,.77,0A2.57,2.57,0,0,0,178,79.08a3.51,3.51,0,0,0-.24-1.5,1.22,1.22,0,0,0-.76-.82.53.53,0,0,0-.62.26c-.09.17-.05.29-.08.3s-.13-.1-.08-.35a.7.7,0,0,1,.25-.36.8.8,0,0,1,.58-.14,1.45,1.45,0,0,1,1.06,1,3.57,3.57,0,0,1,.3,1.67,2.69,2.69,0,0,1-1.59,2.53,1.12,1.12,0,0,1-1-.19C175.67,81.29,175.65,81.15,175.67,81.14Z"/><path class="cls-9" d="M146.63,74.91a1.24,1.24,0,0,0,1.2,1.26,1.19,1.19,0,0,0,1.28-1.09v0a1.24,1.24,0,0,0-1.2-1.26,1.19,1.19,0,0,0-1.28,1.09Z"/><path class="cls-9" d="M145.12,73.2c.15.16,1.09-.54,2.43-.53s2.32.67,2.47.51-.09-.37-.52-.68a3.47,3.47,0,0,0-2-.61,3.25,3.25,0,0,0-1.93.63C145.18,72.83,145,73.13,145.12,73.2Z"/><path class="cls-9" d="M159.49,75.21a1.23,1.23,0,0,0,1.19,1.25,1.2,1.2,0,0,0,1.29-1.1v0a1.25,1.25,0,0,0-1.2-1.26,1.19,1.19,0,0,0-1.28,1.09Z"/><path class="cls-9" d="M158.28,73.45c.15.16,1.09-.54,2.43-.53s2.32.67,2.47.51-.08-.37-.51-.68a3.48,3.48,0,0,0-2-.61,3.25,3.25,0,0,0-1.92.63C158.34,73.08,158.2,73.38,158.28,73.45Z"/><path class="cls-9" d="M153.41,83.38a8.57,8.57,0,0,0-2.17-.39c-.34,0-.67-.11-.72-.34a1.7,1.7,0,0,1,.23-1c.32-.83.65-1.7,1-2.61a46.22,46.22,0,0,0,2.27-6.8,45.55,45.55,0,0,0-2.82,6.6l-1,2.62a2,2,0,0,0-.18,1.35.91.91,0,0,0,.57.48,2.24,2.24,0,0,0,.57.08A8.08,8.08,0,0,0,153.41,83.38Z"/><path class="cls-9" d="M157.93,68.2c.13.37,1.47.19,3,.38s2.84.62,3.05.29c.1-.15-.13-.48-.64-.85a5.35,5.35,0,0,0-4.64-.51C158.17,67.74,157.87,68,157.93,68.2Z"/><path class="cls-9" d="M145.61,69.32c.23.31,1.15,0,2.26,0s2,.2,2.27-.12c.09-.15-.06-.48-.49-.74a3.05,3.05,0,0,0-1.84-.48,3.13,3.13,0,0,0-1.81.61C145.63,68.84,145.5,69.18,145.61,69.32Z"/><path class="cls-9" d="M139.22,55.44a3.22,3.22,0,0,1,1.19-2.89,2.28,2.28,0,0,1,3,.22,2.66,2.66,0,0,1,2-3.18l.28-.05c1.44-.09,2.63,1,4,1.36a6.29,6.29,0,0,0,4.07-.48c1.29-.53,2.49-1.23,3.8-1.71a11.13,11.13,0,0,1,14.25,6.55,4.94,4.94,0,0,1,5.25,2A8.1,8.1,0,0,1,178.27,63a18.11,18.11,0,0,1-1,4v.33c-.09,4.79-.63,10.42-2.67,10.45-3.57.06-2.72-6.66-2.72-6.66-4.37-1.69-2.74-8.24-3.85-9.23s-3.37-3.3-12.52,1.37a17.75,17.75,0,0,1-10.86,1.18l-.23,0h0l-.07,0a8.26,8.26,0,0,1-2.35-1A4.65,4.65,0,0,1,140,61.13a2.56,2.56,0,0,1,.48-2.73A5.53,5.53,0,0,1,139.22,55.44Z"/><path class="cls-7" d="M152.28,87.5a6.25,6.25,0,0,0,.78,1.52,2,2,0,0,0,1.44.84A1.82,1.82,0,0,0,156,89a3,3,0,0,0,.43-1.75c0-.54-.28-1.2-.83-1.27a1.36,1.36,0,0,0-.66.15l-2.89,1.17"/><path class="cls-9" d="M153.43,89.86a4,4,0,0,0,1.53-.18,2.23,2.23,0,0,0,1.16-1.06,2.32,2.32,0,0,0,0-1.88,2.67,2.67,0,0,0-.25-.43c-.12-.11-.1-.11-.22-.1a4.69,4.69,0,0,0-.48.19l-.48.19c-.62.25-1.18.48-1.64.64a6,6,0,0,1-1.57.48,5.86,5.86,0,0,1,1.42-.8c.46-.22,1-.48,1.6-.74L155,86a4.87,4.87,0,0,1,.53-.21.64.64,0,0,1,.43,0,.75.75,0,0,1,.31.25,2.6,2.6,0,0,1,.23,2.84A2.38,2.38,0,0,1,155.08,90a2.27,2.27,0,0,1-1.24,0C153.55,90,153.41,89.89,153.43,89.86Z"/><path class="cls-11" d="M168.34,61a4.61,4.61,0,0,0,0-1A4.08,4.08,0,0,0,167,57.47a5.5,5.5,0,0,0-3.92-1.29,16.52,16.52,0,0,0-5.1,1.13,27.42,27.42,0,0,1-2.64.77,13.67,13.67,0,0,1-2.55.31,13.68,13.68,0,0,1-7-1.7c-.23-.13-.45-.27-.67-.42a1.84,1.84,0,0,1-.22-.17s.33.19,1,.48a14.43,14.43,0,0,0,2.69,1.05,13.86,13.86,0,0,0,6.74.19c.85-.2,1.73-.48,2.62-.76a16.64,16.64,0,0,1,5.17-1.14,5.7,5.7,0,0,1,4,1.42,4.11,4.11,0,0,1,1.33,2.57A2.26,2.26,0,0,1,168.34,61Z"/><path class="cls-11" d="M175.12,75.7a.93.93,0,0,1-.11-.19,3.11,3.11,0,0,1-.27-.55,11,11,0,0,1-.7-2.17,11.54,11.54,0,0,1-.22-3.37,29.5,29.5,0,0,1,.77-4,7.75,7.75,0,0,0,0-4,3.92,3.92,0,0,0-.84-1.52A3.1,3.1,0,0,0,172.5,59a2.83,2.83,0,0,0-2.14.06,3.16,3.16,0,0,0-.67.48,1.59,1.59,0,0,1,.62-.56,2.84,2.84,0,0,1,2.25-.13,3.12,3.12,0,0,1,1.35.84,4.28,4.28,0,0,1,.91,1.59,8,8,0,0,1,0,4.13,30.39,30.39,0,0,0-.79,4,12.23,12.23,0,0,0,.16,3.31,13.72,13.72,0,0,0,.61,2.17A4.51,4.51,0,0,1,175.12,75.7Z"/><path class="cls-11" d="M169.18,60.27a2,2,0,0,1,0-.35c0-.26,0-.59,0-1a11.35,11.35,0,0,0-.4-3.62,6.38,6.38,0,0,0-1.16-2.2,4.48,4.48,0,0,0-2.34-1.54,5.87,5.87,0,0,0-3.11.12,14.18,14.18,0,0,0-3.12,1.42A26.52,26.52,0,0,1,156,54.69a9.44,9.44,0,0,1-3.19.64,10.26,10.26,0,0,1-2.92-.36,11.11,11.11,0,0,1-2.37-1,9.67,9.67,0,0,1-2.8-2.41,6.77,6.77,0,0,1-.57-.83,1.78,1.78,0,0,1-.17-.3,1.39,1.39,0,0,1,.21.27,9.81,9.81,0,0,0,.6.8,10.1,10.1,0,0,0,2.82,2.3,11.41,11.41,0,0,0,2.33.92,9.86,9.86,0,0,0,2.86.33,9.16,9.16,0,0,0,3.1-.63A25.36,25.36,0,0,0,159,52.87a14.24,14.24,0,0,1,3.18-1.44,6.15,6.15,0,0,1,3.24-.12A4.67,4.67,0,0,1,167.81,53,6.61,6.61,0,0,1,169,55.23a11.36,11.36,0,0,1,.33,3.67c0,.44-.06.78-.09,1A1.49,1.49,0,0,1,169.18,60.27Z"/></g><g id="freepik--Desk--inject-359"><path class="cls-9" d="M220.59,199.87c0,.07-48.92.13-109.27.13S2,199.94,2,199.87s48.91-.12,109.28-.12S220.59,199.78,220.59,199.87Z"/></g><g id="freepik--Plant--inject-359"><path class="cls-8" d="M85.64,180.11c.93,1.31,2.72.86,3.55.06a6.75,6.75,0,0,0,1.48-3.09c.72-2.55,1.45-5.21.88-7.79a4.23,4.23,0,0,0-1-2.12,2.26,2.26,0,0,0-2.14-.7,3.4,3.4,0,0,0-1.86,2,18.65,18.65,0,0,0-1.79,8,6.42,6.42,0,0,0,.89,3.68"/><g class="cls-12"><path d="M85.64,180.11c.93,1.31,2.72.86,3.55.06a6.75,6.75,0,0,0,1.48-3.09c.72-2.55,1.45-5.21.88-7.79a4.23,4.23,0,0,0-1-2.12,2.26,2.26,0,0,0-2.14-.7,3.4,3.4,0,0,0-1.86,2,18.65,18.65,0,0,0-1.79,8,6.42,6.42,0,0,0,.89,3.68"/></g><path class="cls-8" d="M89.13,186.79a8,8,0,0,1,5-.64,4.18,4.18,0,0,1,2.46,1.08,1.77,1.77,0,0,1,0,2.45,2.33,2.33,0,0,1-1.54.4c-1.31,0-2.76-.23-3.81.56-.59.45-1,1.2-1.7,1.45a1.69,1.69,0,0,1-1.86-.82,2.87,2.87,0,0,1-.22-2.13A3.22,3.22,0,0,1,89.13,186.79Z"/><path class="cls-8" d="M83.12,182a4.8,4.8,0,0,0,.72-4.41,8.4,8.4,0,0,0-2.63-3.77,14.06,14.06,0,0,0-4.7-2.74,5,5,0,0,0-2.1-.34,2.19,2.19,0,0,0-1.76,1.08c-.48.94,0,2.07.48,3a36.25,36.25,0,0,0,3.1,4.66,8.5,8.5,0,0,0,3.39,2.89c1.41.54,2.87.46,3.61-.52"/><path class="cls-9" d="M85.7,200a3.07,3.07,0,0,0,.07-.6c0-.43.09-1,.15-1.63s.2-1.61.36-2.41a17.81,17.81,0,0,1,.85-2.84,10.59,10.59,0,0,1,1.44-2.56,5.48,5.48,0,0,1,1.82-1.53,5.14,5.14,0,0,1,1.53-.48,2.89,2.89,0,0,0,.6-.09,3.11,3.11,0,0,0-.61,0,5,5,0,0,0-1.6.43,5.44,5.44,0,0,0-1.92,1.54,10.28,10.28,0,0,0-1.48,2.62,17.1,17.1,0,0,0-.85,2.89,21.75,21.75,0,0,0-.31,2.41c0,.7-.06,1.25-.07,1.64A2.49,2.49,0,0,0,85.7,200Z"/><path class="cls-9" d="M85.8,198.72a1.22,1.22,0,0,0,0-.27v-3.72c0-2.46.24-5.86.62-9.61s.92-7.1,1.41-9.51c.11-.61.23-1.15.33-1.63s.2-.89.28-1.23.14-.57.19-.77a1.26,1.26,0,0,0,0-.27,1.14,1.14,0,0,0-.09.26c-.06.2-.14.45-.23.76s-.2.74-.32,1.22-.25,1-.38,1.62a90.26,90.26,0,0,0-1.47,9.53c-.39,3.75-.56,7.16-.56,9.63,0,1.23,0,2.23.06,2.92,0,.32,0,.59,0,.8A2.68,2.68,0,0,0,85.8,198.72Z"/><path class="cls-9" d="M85.76,192.14a5.61,5.61,0,0,0,0-.82,20.94,20.94,0,0,0-.27-2.25,30.76,30.76,0,0,0-2.14-7.14,20.81,20.81,0,0,0-4.06-6.26,9.91,9.91,0,0,0-1-.87c-.14-.12-.27-.24-.4-.34l-.38-.25a4.49,4.49,0,0,0-.69-.44,24.44,24.44,0,0,1,2.3,2,21.82,21.82,0,0,1,4,6.22,29.53,29.53,0,0,1,1.4,3.85c.37,1.2.61,2.31.8,3.24s.28,1.7.34,2.23A5.63,5.63,0,0,0,85.76,192.14Z"/></g><g id="freepik--Features--inject-359"><circle class="cls-5" cx="55.18" cy="43.04" r="21.2"/><path class="cls-13" d="M52.28,48.31a4.35,4.35,0,0,1,1,.27L54,48l1.27,1-.4.87a3.73,3.73,0,0,1,.53.9l1,.09.21,1.58-.9.34a3.69,3.69,0,0,1-.27,1l.63.74-1,1.27-.87-.4a4.48,4.48,0,0,1-.9.52l-.09,1L51.64,57l-.34-.91a3.85,3.85,0,0,1-1-.26l-.74.62-1.27-1,.4-.89a3.36,3.36,0,0,1-.52-.9l-1-.08L47,52.07l.9-.34a3.51,3.51,0,0,1,.27-1L47.52,50l1-1.27.88.4a3.84,3.84,0,0,1,.9-.52l.08-1,1.58-.22.34.9Zm-.65,2.2A1.72,1.72,0,1,0,53.56,52v0a1.72,1.72,0,0,0-1.92-1.45Z"/><path class="cls-14" d="M57.37,31.24a7,7,0,0,1,1.84.49l1.36-1.13,2.33,1.76L62.17,34a7,7,0,0,1,1,1.65l1.77.16.39,2.9-1.65.62a7.34,7.34,0,0,1-.5,1.85l1.14,1.36-1.77,2.33-1.6-.74a7.81,7.81,0,0,1-1.65,1l-.16,1.76-2.91.4-.61-1.66a7.3,7.3,0,0,1-1.85-.48l-1.36,1.13L50,44.45l.73-1.62a7,7,0,0,1-1-1.65L48,41l-.39-2.9,1.66-.62a7.3,7.3,0,0,1,.48-1.85l-1.14-1.35L50.42,32l1.61.74a6.71,6.71,0,0,1,1.66-1L53.84,30l2.9-.4.62,1.66Zm-1.19,4A3.14,3.14,0,1,0,59.71,38v0a3.15,3.15,0,0,0-3.53-2.65Z"/><circle class="cls-5" cx="113.12" cy="45.14" r="21.2"/><circle class="cls-4" cx="112.5" cy="45.26" r="10.67"/><path d="M117.18,44.9h-4V40.84a.72.72,0,1,0-1.43,0V44.9h-.36a.72.72,0,1,0,0,1.44h.36v.36a.72.72,0,1,0,1.43,0v-.4h4a.7.7,0,1,0,0-1.4Z"/><path d="M119,36.69l-.52-.37-.1-.07a11.27,11.27,0,0,0-1.36-.76,8.89,8.89,0,0,0-1.57-.58,6.33,6.33,0,0,0-.75-.19,2.25,2.25,0,0,0-.36-.06l-.23,0a9.24,9.24,0,0,0-.92-.11h-.67a10.6,10.6,0,0,0-4.54,1,9.53,9.53,0,0,0-1.25.7,10.53,10.53,0,0,0-3.39,3.54,10,10,0,0,0-.66,1.31,10.66,10.66,0,0,0,7.79,14.53l.47.08c.34,0,.68.09,1,.11h.55A10.65,10.65,0,0,0,119,36.69ZM112.48,54.4a9.26,9.26,0,1,1,9.25-9.25A9.26,9.26,0,0,1,112.48,54.4Z"/><circle class="cls-8" cx="120.61" cy="36.34" r="5.59"/><path class="cls-2" d="M123.31,34.59a6,6,0,0,1-.69.9c-.44.53-1.07,1.26-1.78,2l-.58.63-.08.08-.08-.07-1.58-1.45a3.41,3.41,0,0,1-.58-.62,3.42,3.42,0,0,1,.69.51c.41.33,1,.82,1.63,1.38h-.17c.18-.2.36-.42.56-.63.71-.79,1.36-1.5,1.84-2A5,5,0,0,1,123.31,34.59Z"/><circle class="cls-5" cx="42.61" cy="158.52" r="21.2"/><circle class="cls-5" cx="21.42" cy="99.16" r="21.2"/><path class="cls-2" d="M22,89.94l2.3,4.66a.62.62,0,0,0,.45.32l5.14.74a.6.6,0,0,1,.5.68.62.62,0,0,1-.18.35l-3.71,3.62a.6.6,0,0,0-.17.53l.88,5.11a.6.6,0,0,1-.49.69.63.63,0,0,1-.38-.06l-4.59-2.41a.61.61,0,0,0-.56,0l-4.59,2.41a.61.61,0,0,1-.81-.24.66.66,0,0,1-.06-.39l.88-5.11a.6.6,0,0,0-.17-.53l-3.72-3.62a.61.61,0,0,1,0-.86.62.62,0,0,1,.33-.17l5.14-.74a.62.62,0,0,0,.45-.32l2.29-4.66a.61.61,0,0,1,.8-.27A.59.59,0,0,1,22,89.94Z"/><circle class="cls-5" cx="21.42" cy="99.16" r="21.2"/></g><path id="fullLogo" class="cls-8" d="M98.48,104.41l-1.06-.62V115.6l-8.14,4.7-8.14-4.7v-9.39l8.14-4.7,4,2.29v9.12l-4,2.3-4-2.3v-4.07l-1.32.57a1.25,1.25,0,0,0-.76,1.15v2.64a1.59,1.59,0,0,0,.8,1.37l4.46,2.58a1.61,1.61,0,0,0,1.59,0l4.45-2.58a1.59,1.59,0,0,0,.8-1.37V102.58h0l-5-2.89a2.05,2.05,0,0,0-2.06,0l-8.17,4.72a2.07,2.07,0,0,0-1,1.78v9.43a2.08,2.08,0,0,0,1,1.79l8.17,4.71a2.05,2.05,0,0,0,2.06,0l8.17-4.71a2.06,2.06,0,0,0,1-1.79v-9.43A2,2,0,0,0,98.48,104.41Z"/><polyline class="cls-15" points="101.67 119.26 102.71 118.66 102.71 117.46"/><line class="cls-16" x1="102.71" y1="114.84" x2="102.71" y2="105.66"/><polyline class="cls-15" points="102.71 104.35 102.71 103.15 101.67 102.55"/><line class="cls-16" x1="99.4" y1="101.24" x2="91.46" y2="96.65"/><polyline class="cls-15" points="90.32 96 89.28 95.39 88.24 96"/><line class="cls-16" x1="85.97" y1="97.31" x2="78.03" y2="101.89"/><polyline class="cls-15" points="76.89 102.55 75.85 103.15 75.85 104.35"/><line class="cls-16" x1="75.85" y1="106.98" x2="75.85" y2="116.15"/><polyline class="cls-15" points="75.85 117.46 75.85 118.66 76.89 119.26"/><line class="cls-16" x1="79.16" y1="120.57" x2="87.1" y2="125.16"/><polyline class="cls-15" points="88.24 125.81 89.28 126.42 90.32 125.81"/><line class="cls-16" x1="92.59" y1="124.5" x2="100.54" y2="119.92"/><line class="cls-17" x1="65.52" y1="61.45" x2="84.09" y2="98.39"/><line class="cls-17" x1="94.7" y1="98.52" x2="105.95" y2="64.98"/><line class="cls-17" x1="75.85" y1="108.44" x2="41.99" y2="104.24"/><line class="cls-17" x1="79.05" y1="120.51" x2="58.03" y2="143.89"/><circle class="cls-18" cx="42.61" cy="158.52" r="21.17"/><circle class="cls-18" cx="21.41" cy="99.16" r="21.17"/><circle class="cls-18" cx="55.18" cy="43.04" r="21.17"/><circle class="cls-18" cx="113.12" cy="45.14" r="21.17"/><path d="M28,101.46h0v-3.9h0V93.69c0-2.13-2.84-3.8-6.49-3.8s-6.53,1.7-6.53,3.8v3.84h0v3.93h0v3.68c0,2.1,2.91,3.8,6.5,3.8s6.49-1.7,6.49-3.8v-3.59S28,101.49,28,101.46ZM16.26,99.82a9.11,9.11,0,0,0,5.17,1.42,8.91,8.91,0,0,0,5.16-1.42.76.76,0,0,0,.25-.22v1.92c-.09,1.24-2.26,2.54-5.41,2.54s-5.36-1.3-5.42-2.57V99.57A.67.67,0,0,0,16.26,99.82ZM16,97.62V95.83a8.34,8.34,0,0,0,5.42,1.67,8.29,8.29,0,0,0,5.41-1.67v1.76a1.85,1.85,0,0,1-.9,1.33,7.76,7.76,0,0,1-4.51,1.21,8.07,8.07,0,0,1-4.52-1.21A1.77,1.77,0,0,1,16,97.62ZM21.43,91c2.94,0,5.41,1.24,5.41,2.72s-2.47,2.73-5.41,2.73S16,95.21,16,93.72,18.49,91,21.43,91Zm0,16.86c-3.19,0-5.42-1.42-5.42-2.72v-1.58a8.52,8.52,0,0,0,5.42,1.64,8.46,8.46,0,0,0,5.41-1.64v1.58C26.84,106.41,24.61,107.86,21.43,107.86Z"/><path d="M50.87,161.62a2.47,2.47,0,0,0-2.36,1.78h-.73v-2.68a4.89,4.89,0,0,0,2-8A5.17,5.17,0,0,0,47,151.26a4.8,4.8,0,0,0-2.43-1.95A4.27,4.27,0,0,0,43,149a4.72,4.72,0,0,0-4.73,4.42,3.78,3.78,0,0,0-3.34,3.72,3.72,3.72,0,0,0,2.4,3.48v2.64h-.66a2.48,2.48,0,1,0,0,1.26h1.12a.85.85,0,0,0,.83-.84v-2.78H42V162a2.44,2.44,0,1,0,1.25,0v-1.11h3a1.46,1.46,0,0,0,.41,0v2.82a.86.86,0,0,0,.84.84h1.08a2.43,2.43,0,0,0,4.76-.63A2.32,2.32,0,0,0,50.87,161.62Zm-16.56,3.55A1.2,1.2,0,0,1,33.09,164a1.18,1.18,0,0,1,1.22-1.15A1.2,1.2,0,0,1,35.53,164,1.16,1.16,0,0,1,34.31,165.17Zm9.5-.73a1.22,1.22,0,1,1-1.22-1.18A1.2,1.2,0,0,1,43.81,164.44Zm-5-4.66a2.54,2.54,0,1,1,0-5.08h.14a.63.63,0,0,0,.63-.63v-.27a3.52,3.52,0,0,1,3.54-3.48,3.06,3.06,0,0,1,1.15.21,3.7,3.7,0,0,1,2,1.63.67.67,0,0,0,.45.31,3.9,3.9,0,0,1,2.3,1.15,3.76,3.76,0,0,1,1,2.51,3.72,3.72,0,0,1-3.72,3.68H38.8Zm12.07,5.39A1.18,1.18,0,1,1,52.09,164,1.2,1.2,0,0,1,50.87,165.17Z"/></g></g></svg>