<svg xmlns="http://www.w3.org/2000/svg" viewBox="0 0 209.79 200.26"><defs><style>.cls-1{fill:#e6e6e6;}.cls-2{fill:#f5f5f5;}.cls-3{fill:#f0f0f0;}.cls-4{fill:#ebebeb;stroke:#ebebeb;}.cls-17,.cls-4,.cls-5,.cls-8{stroke-miterlimit:10;}.cls-4,.cls-8{stroke-width:0.52px;}.cls-16,.cls-17,.cls-5{fill:none;}.cls-5{stroke:#e0e0e0;stroke-width:1.05px;}.cls-6{opacity:0.12;}.cls-10,.cls-15,.cls-18,.cls-19,.cls-6,.cls-8,.cls-9{isolation:isolate;}.cls-7{fill:#ef6236;}.cls-18,.cls-8,.cls-9{fill:#fff;}.cls-17,.cls-8{stroke:#fff;}.cls-8{opacity:0.7;}.cls-9{opacity:0.8;}.cls-10,.cls-18{opacity:0.2;}.cls-11{fill:#fafafa;}.cls-12{fill:#b55b52;}.cls-13{fill:#263238;}.cls-14{fill:#a02724;}.cls-15{opacity:0.3;}.cls-16{stroke:#fafafa;stroke-miterlimit:9.97;stroke-width:0.52px;}.cls-17{stroke-width:0.26px;}.cls-19{opacity:0.1;}</style></defs><g id="Layer_2" data-name="Layer 2"><g id="icons"><g id="freepik--background-complete--inject-321"><path class="cls-1" d="M50,171.81s10.26-5.74,10.94-13.94S53.55,148,50,145.15s-3.69-5.47-3.83-10.26a19.37,19.37,0,0,0-7-14.63c-5.33-4.78-5.88-6.56-5.22-13s-3.7-14.5-9.17-13.13-5.88,10-4.79,15.45A21.94,21.94,0,0,1,17.19,125c-2.62,4.11-3.7,11.36,0,16s6.15,8.75,4.37,13.67-7.25,6.84-1,17.09Z"/><path class="cls-2" d="M140.38,171.72H158a232.2,232.2,0,0,0,1.37-26.26c-.27-11.76-1-30.36-8.36-29.81S135.18,135.2,140.38,171.72Z"/><path class="cls-3" d="M149.74,171.72s17.17-38.29,31-30.77-14.82,31-14.82,31Z"/><path class="cls-1" d="M147.68,171.91a64.63,64.63,0,0,0-3.56-25.2c-4.69-12.75-10.5-20.38-17.06-17.92s-6,19,2.81,42.93Z"/><path class="cls-1" d="M158,171.72S165.49,160,169.61,149s5.07-19.33,1.32-21.37-21.38,17-23.25,44.33Z"/><path class="cls-3" d="M135.21,171.72s-9.65-37.36-26.15-31.75,13.06,31.94,13.06,31.94h13.93"/><path class="cls-4" d="M166,161.52s2-12.28,17.71-27.54,20.44-26.58,17.64-42c0,0,14.33,20.11,5.06,44.85s-23.66,33-35.46,36.27S166,161.52,166,161.52Z"/><path class="cls-5" d="M166.2,173.32c3.18-8.3,8-13.18,13.47-18.13,2-1.81,4.07-3.66,6.17-5.64,1.43-1.36,2.88-2.81,4.32-4.4h0a68.62,68.62,0,0,0,4.45-5.45h0a66.77,66.77,0,0,0,4.3-6.69h0c.27-.47.53-.95.81-1.45.34-.65.67-1.28,1-1.92a44,44,0,0,0,1.42-36.43,22.07,22.07,0,0,0-1.18-2.45"/><path class="cls-5" d="M195.63,120.13a15.65,15.65,0,0,1,5.06,9.5"/><path class="cls-5" d="M194.61,139.7h0c-.14-3.61-3.33-8.86-5.19-11.63"/><path class="cls-5" d="M180.64,137.11c1.46,2.31,4.49,7.56,5.2,12.44"/><path class="cls-5" d="M179.7,155.19s9-1.4,16.32,1"/><path class="cls-5" d="M204.05,142.56c-6.14-.7-13.68,2.5-13.89,2.58h0"/><path class="cls-5" d="M208.7,128.66a26.63,26.63,0,0,0-9.78,4.34h0"/></g><g id="freepik--Shadow--inject-321"><g id="freepik--Shadow--inject-58--inject-321"><ellipse id="freepik--path--inject-58--inject-321" class="cls-2" cx="101.32" cy="194.35" rx="101.32" ry="5.92"/></g></g><g id="freepik--Character--inject-321"><path class="cls-6" d="M92.76,53.33c-1.4-.39-1.42-2.18-1.42-2.18l1.33.27A6.14,6.14,0,0,0,92.76,53.33Z"/><path class="cls-7" d="M166.25,4.47V79.8A4.22,4.22,0,0,1,162,84H48.2A4.21,4.21,0,0,1,44,79.8V4.47A4.21,4.21,0,0,1,48.2.26H162A4.22,4.22,0,0,1,166.25,4.47Z"/><path class="cls-8" d="M166.25,4.47V79.8A4.22,4.22,0,0,1,162,84H48.2A4.21,4.21,0,0,1,44,79.8V4.47A4.21,4.21,0,0,1,48.2.26H162A4.22,4.22,0,0,1,166.25,4.47Z"/><circle class="cls-7" cx="159.16" cy="5.46" r="1.13"/><path class="cls-7" d="M153.74,5.46a1.14,1.14,0,1,1-1.14-1.14h0A1.14,1.14,0,0,1,153.74,5.46Z"/><path class="cls-7" d="M147.19,5.46a1.14,1.14,0,0,1-2.28,0A1.13,1.13,0,0,1,146,4.32h0A1.15,1.15,0,0,1,147.19,5.46Z"/><path class="cls-7" d="M157.29,19.76V95.09a4.2,4.2,0,0,1-4.2,4.18H39.24A4.2,4.2,0,0,1,35,95.09V19.76a4.21,4.21,0,0,1,4.2-4.21H153.09A4.21,4.21,0,0,1,157.29,19.76Z"/><path class="cls-9" d="M157.29,19.76V95.09a4.2,4.2,0,0,1-4.2,4.18H39.24A4.2,4.2,0,0,1,35,95.09V19.76a4.21,4.21,0,0,1,4.2-4.21H153.09A4.21,4.21,0,0,1,157.29,19.76Z"/><rect class="cls-7" x="130.03" y="24.39" width="27.27" height="68.91"/><rect class="cls-10" x="130.03" y="24.39" width="27.27" height="68.91"/><rect class="cls-11" x="130.03" y="45.09" width="27.27" height="0.88"/><rect class="cls-11" x="130.03" y="66.72" width="27.27" height="0.88"/><rect class="cls-11" x="130.03" y="88.03" width="27.27" height="0.88"/><polygon class="cls-11" points="141.92 51.12 141.92 61.41 149.69 56.27 141.92 51.12"/><polygon class="cls-11" points="141.92 72.66 141.92 82.96 149.69 77.81 141.92 72.66"/><polygon class="cls-11" points="141.92 29.2 141.92 39.5 149.69 34.35 141.92 29.2"/><path class="cls-12" d="M75,66.72s-7,10.39-9.14,12.46c0,0-11.69,1-16.49-2.25l-1.22,3s11.1,6.27,18.62,4.74,13.06-16,13.06-16Z"/><path class="cls-12" d="M108.9,60.54a78.8,78.8,0,0,0,10.82,2.17s3.13-7.28,3.65-13.89l2.37.13s2.17,12.88-3.53,18.09C118.27,70.65,105.12,64,105.12,64Z"/><path class="cls-13" d="M90.15,32.14s-9-.87-10,8.33a34.36,34.36,0,0,0,2.69,16.72S88.33,68.31,95,66.76,107.19,61.63,106,55.63s-3.35-5.75-3.27-14.11S95,28.31,90.15,32.14Z"/><path class="cls-12" d="M100,45.32c-1,4.61-3.06,6.45-7.32,6.1a6.13,6.13,0,0,0,.08,1.91,3.51,3.51,0,0,0,3,3c3.66.63,1.66,5.34,1.66,5.34l-3.66,1.8-4.81-2.78-3.66-3.9h1.28s2.48-3.75,0-10a3.91,3.91,0,0,1-1.91-3.06,1.7,1.7,0,0,1,2.87-1.43s3.72-1.62,3.16-7.88A11.8,11.8,0,0,0,99,36.29,17,17,0,0,1,100,45.32Z"/><path class="cls-14" d="M96.65,41.48l0,3.23a2,2,0,0,0,1.61-.09Z"/><path class="cls-13" d="M91.7,37.85h-.1a.19.19,0,0,1-.06-.25h0a1.92,1.92,0,0,1,2.32-.73.16.16,0,0,1,.11.21h0a.19.19,0,0,1-.23.11,1.56,1.56,0,0,0-1.9.59A.22.22,0,0,1,91.7,37.85Z"/><path class="cls-13" d="M99.79,38.85a.19.19,0,0,1-.13-.05c-.52-.48-1.43-.13-1.44-.12a.18.18,0,0,1-.23-.11.16.16,0,0,1,.1-.22h0s1.15-.43,1.82.2a.18.18,0,0,1,0,.25A.34.34,0,0,1,99.79,38.85Z"/><path class="cls-13" d="M95.27,46.25h0a3.45,3.45,0,0,1-3.07-1.61.14.14,0,0,1,.09-.17.13.13,0,0,1,.14.05A3.19,3.19,0,0,0,95.28,46a.13.13,0,0,1,.13.13.14.14,0,0,1-.14.14Z"/><path class="cls-13" d="M94.34,40.93c0,.38-.2.7-.46.71s-.48-.3-.49-.69.19-.7.45-.71S94.33,40.54,94.34,40.93Z"/><path class="cls-13" d="M99,41c0,.38-.19.7-.45.71s-.48-.3-.5-.69.19-.7.45-.71S99,40.58,99,41Z"/><path class="cls-13" d="M93.77,40.26,95,39.92S94.74,40.55,93.77,40.26Z"/><path class="cls-13" d="M98.48,40.28l.88-.12a.53.53,0,0,1-.88.12Z"/><path class="cls-7" d="M111.16,60.33l-4.1,9-2.17-.79s.22,16.35-1.57,24.76H82.06L80.83,71l-1.11,2.33-7.84-4.4S74.05,60,77.44,58.46c1.61-.74,5-1.32,8.6-1.69a73.4,73.4,0,0,1,9.72-.46h.93A32.52,32.52,0,0,1,111.16,60.33Z"/><path class="cls-12" d="M123.37,48.82A9.3,9.3,0,0,1,121.81,45a9.43,9.43,0,0,1,.4-4.44l4.22-.15.52,3.7a7,7,0,0,1-1.2,4.86Z"/><path class="cls-12" d="M49.39,76.93,47.19,73l-2.68-.93-1.9,3.55L44.31,78s2.24,1.91,3.86,2Z"/><path class="cls-12" d="M96.66,56.31c0,5.63-3.56,11.8-3.56,11.8C90,65.09,86.83,58.6,86,56.76a73.56,73.56,0,0,1,9.73-.46S96.09,56.29,96.66,56.31Z"/><polygon class="cls-6" points="79.72 73.31 80.81 67.27 80.83 70.99 79.72 73.31"/><polygon class="cls-6" points="107.08 69.34 103.56 66.72 104.9 68.55 107.08 69.34"/><polygon class="cls-12" points="83.94 166.61 88.97 172.05 77.31 183.15 73.15 180.19 83.94 166.61"/><path class="cls-13" d="M78.32,182.89a14.55,14.55,0,0,0,3.1,6.89c.53.74-.86,2.12-2.44.66s-3.83-3.75-5-4.8c-1.85-1.72-2.61-2.29-4.12-3.63l-.06,0a.8.8,0,0,1,0-1.12h0l3.31-2.68a.38.38,0,0,1,.52,0l4.22,3.9A1.45,1.45,0,0,1,78.32,182.89Z"/><path class="cls-7" d="M77.69,182.79a.17.17,0,0,1,0-.14.11.11,0,0,1,.11,0c.24.07,2.39.74,2.61,1.4a.36.36,0,0,1,0,.36.61.61,0,0,1-.53.26,2,2,0,0,1-1.09-.63A9.56,9.56,0,0,1,77.69,182.79Zm.4.15c.72.91,1.37,1.46,1.77,1.46a.37.37,0,0,0,.34-.18.12.12,0,0,0,0-.14.49.49,0,0,0-.14-.18A7.06,7.06,0,0,0,78.09,182.94Z"/><path class="cls-7" d="M77.66,182.74a.11.11,0,0,1,0-.11,3,3,0,0,1,1.79-.84.94.94,0,0,1,.62.32c.23.25.19.44.12.52-.3.47-1.86.41-2.48.18l0,0Zm1.81-.71a2.53,2.53,0,0,0-1.46.65c.69.16,1.83.11,2-.16,0,0,.06-.09-.09-.26l-.05,0a.64.64,0,0,0-.41-.18Z"/><polygon class="cls-12" points="81.66 176.55 88.51 176.45 87.56 193.67 82.63 193.49 81.66 176.55"/><path class="cls-13" d="M88.72,192.4a10.76,10.76,0,0,0,6,3.1c.87.19.9,2.24-1.17,2.22s-4.26-.2-5.75-.2c-2.43,0-3.35.11-5.27.11h0a.88.88,0,0,1-.86-.88h0l.34-4.36a.35.35,0,0,1,.37-.33l5.53,0A1.4,1.4,0,0,1,88.72,192.4Z"/><path class="cls-7" d="M85.51,87.13c-.6,10.69,13.45,42.63,15,53.82C95.69,152.19,83,166.52,83,166.52l6,6.54s21-18.72,22.1-31.77c.9-11.15-7-53.09-7-53.09Z"/><path class="cls-13" d="M85.51,87.13c-.6,10.69,13.45,42.63,15,53.82C95.69,152.19,83,166.52,83,166.52l6,6.54s21-18.72,22.1-31.77c.9-11.15-7-53.09-7-53.09Z"/><polygon class="cls-7" points="83.18 165 91.03 172.45 88.92 173.77 81.74 167.31 83.18 165"/><path class="cls-15" d="M90,107.41c3.29,10.17,7.51,21.25,9.49,28.81.36-8.23.08-22.88-5.67-30.83C91.16,101.64,90.1,103.51,90,107.41Z"/><path class="cls-7" d="M81.93,87.26c-4.08,11.24-.9,36.61-.68,54.79-1.23,13.71.41,34.49.41,34.49l7.37.31s2.22-24.53,3.73-39.84c1.29-12.88,5.88-49.12,5.88-49.12Z"/><path class="cls-13" d="M81.7,86.86c-4.08,11.24-.67,37-.45,55.19-1.23,13.71.41,34.49.41,34.49l7.37.31s2.22-24.53,3.73-39.84c1.29-12.88,5.88-49.12,5.88-49.12Z"/><polygon class="cls-7" points="80.59 174.74 90.14 175 89.55 177.66 81.11 177.9 80.59 174.74"/><path class="cls-7" d="M90.56,192.74c-.44.43-1.56.22-2.23.07a.13.13,0,0,1-.1-.1.1.1,0,0,1,0-.11c.16-.11,1.57-1,2.18-.8a.4.4,0,0,1,.25.33.58.58,0,0,1-.11.52A.1.1,0,0,1,90.56,192.74Zm-1.91-.12c.87.17,1.51.15,1.75-.07a.41.41,0,0,0,.08-.41.15.15,0,0,0-.11-.15c-.3-.14-1.14.28-1.72.64Z"/><path class="cls-7" d="M88.41,192.77h-.12a.13.13,0,0,1-.06-.1c0-.06-.09-1.48.41-1.95a.55.55,0,0,1,.49-.15.45.45,0,0,1,.41.33,1.86,1.86,0,0,1-.55,1.32A2.33,2.33,0,0,1,88.41,192.77Zm0-.33c.45-.37,1-1.16.86-1.5a.18.18,0,0,0-.2-.14.31.31,0,0,0-.3.1l0,0a2.77,2.77,0,0,0-.31,1.49Z"/><rect class="cls-11" x="84.79" y="55.54" width="1.8" height="10.62"/><rect class="cls-11" x="80.57" y="55.54" width="1.8" height="10.62"/><circle class="cls-16" cx="83.25" cy="61.3" r="8.61"/><path class="cls-7" d="M157.29,19.76v4.63H35V19.76a4.21,4.21,0,0,1,4.2-4.21H153.09A4.21,4.21,0,0,1,157.29,19.76Z"/><path class="cls-7" d="M157.29,93.31v1.78a4.2,4.2,0,0,1-4.2,4.18H39.24A4.2,4.2,0,0,1,35,95.09V93.31Z"/><path class="cls-17" d="M59.18,22.27H41.32a1.94,1.94,0,0,1-1.94-1.94h0a1.94,1.94,0,0,1,1.94-1.94H59.18a1.94,1.94,0,0,1,1.94,1.94h0A2,2,0,0,1,59.18,22.27Z"/><path class="cls-17" d="M68.88,22.27H66.26a1.94,1.94,0,0,1-1.93-1.94h0a2,2,0,0,1,1.93-1.94h2.62a1.94,1.94,0,0,1,1.94,1.94h0A2,2,0,0,1,68.88,22.27Z"/><rect class="cls-17" x="37.88" y="26.77" width="89.58" height="64.55" rx="7.86"/><rect class="cls-7" x="29.52" y="32.34" width="40.19" height="19.87" rx="4.31"/><path class="cls-7" d="M71.25,35.73V48.8a3.39,3.39,0,0,1-3.36,3.41H55.77c-3.66,1.26-1.37,6.33-1.29,6.51a6.47,6.47,0,0,1-1.93-1,6.56,6.56,0,0,1-2.25-5.46H34.43A3.39,3.39,0,0,1,31,48.82h0V35.76a3.39,3.39,0,0,1,3.39-3.39H67.87A3.38,3.38,0,0,1,71.25,35.73Z"/><path class="cls-18" d="M69.71,35.73V48.8a3.39,3.39,0,0,1-3.36,3.41H54.22c-2.67.92-2.17,3.86-1.67,5.46a6.56,6.56,0,0,1-2.25-5.46H32.91a3.39,3.39,0,0,1-3.39-3.39h0V35.75a3.38,3.38,0,0,1,3.38-3.39H66.31a3.38,3.38,0,0,1,3.4,3.37Z"/><rect class="cls-7" x="32.44" y="35.5" width="34.13" height="1.81"/><rect class="cls-7" x="32.44" y="38.81" width="34.13" height="1.81"/><rect class="cls-7" x="32.44" y="42.14" width="34.13" height="1.81"/><rect class="cls-19" x="32.44" y="35.5" width="34.13" height="1.81"/><rect class="cls-19" x="32.44" y="38.81" width="34.13" height="1.81"/><rect class="cls-19" x="32.44" y="42.14" width="34.13" height="1.81"/></g></g></g></svg>