<svg xmlns="http://www.w3.org/2000/svg" viewBox="0 0 212.01 200"><defs><style>.cls-1{fill:#ef6236;}.cls-2,.cls-4{fill:#fff;}.cls-2{opacity:0.7;isolation:isolate;}.cls-3{fill:#263238;}</style></defs><g id="Layer_2" data-name="Layer 2"><g id="icons"><g id="freepik--background-simple--inject-75"><path class="cls-1" d="M205,98.78c-2.22,18.75-10.77,40.55-27.88,50.57-25.83,15.13-23.67,38.41-74.1,48.53A103.56,103.56,0,0,1,80.67,200a84.08,84.08,0,0,1-11-.9c-32-4.68-53.62-27-61.53-53.83-10.4-35.4,10.39-58.54,24.17-72.49S56.2,15.36,105.7,5a100.78,100.78,0,0,1,23-2.18c17.61.45,36.81,6.21,50.1,18.28,1,.9,2,1.84,2.92,2.82C200.17,42.9,208,73.22,205,98.78Z"/><path class="cls-2" d="M205,98.78c-2.22,18.75-10.77,40.55-27.88,50.57-25.83,15.13-23.67,38.41-74.1,48.53A103.56,103.56,0,0,1,80.67,200a84.08,84.08,0,0,1-11-.9c-32-4.68-53.62-27-61.53-53.83-10.4-35.4,10.39-58.54,24.17-72.49S56.2,15.36,105.7,5a100.78,100.78,0,0,1,23-2.18c17.61.45,36.81,6.21,50.1,18.28,1,.9,2,1.84,2.92,2.82C200.17,42.9,208,73.22,205,98.78Z"/></g><g id="freepik--Table--inject-75"><path class="cls-3" d="M208.59,119h-6.83a.22.22,0,1,1,0-.44h6.83a.22.22,0,0,1,0,.44Z"/><path class="cls-3" d="M198.72,119H3.86a.22.22,0,0,1,0-.44H198.72a.22.22,0,0,1,0,.44Z"/></g><g id="freepik--Gears--inject-75"><path class="cls-3" d="M177.8,80.13h-3.9l-.49-3.41a12.3,12.3,0,0,1-4.48-1.88l-2.75,2.06-2.75-2.76,2.06-2.75a12.44,12.44,0,0,1-1.84-4.49l-3.4-.49V62.52l3.41-.49a12.43,12.43,0,0,1,1.87-4.49l-2.06-2.74L166.23,52,169,54.1a12.32,12.32,0,0,1,4.48-1.84l.49-3.4h3.9l.49,3.41a12.23,12.23,0,0,1,4.48,1.88l2.75-2.06,2.76,2.75-2.07,2.76a12.24,12.24,0,0,1,1.85,4.48l3.39.49v3.9L188.1,67a12.25,12.25,0,0,1-1.87,4.49l2.06,2.74L185.53,77l-2.75-2.08a12.17,12.17,0,0,1-4.48,1.85Zm-3.51-.45h3.14l.47-3.33.17,0a11.88,11.88,0,0,0,4.59-1.9l.14-.09,2.69,2,2.21-2.21-2-2.7.09-.13a11.92,11.92,0,0,0,1.93-4.6l0-.16,3.37-.48V62.94l-3.33-.47,0-.17a11.8,11.8,0,0,0-1.89-4.61l-.09-.14,2-2.69-2.2-2.2-2.7,2-.13-.09a11.88,11.88,0,0,0-4.61-1.92l-.15,0-.5-3.32h-3.14l-.48,3.32-.15,0a11.89,11.89,0,0,0-4.62,1.9l-.14.09-2.69-2-2.21,2.21,2,2.69-.09.14a11.9,11.9,0,0,0-1.92,4.6l0,.16-3.35.48V66l3.33.48,0,.15A11.9,11.9,0,0,0,166,71.28l.09.14-2,2.69,2.21,2.21,2.69-2,.13.09a11.75,11.75,0,0,0,4.6,1.92l.16,0Zm1.6-6.46a8.74,8.74,0,1,1,8.73-8.74A8.74,8.74,0,0,1,175.89,73.22Zm0-17a8.29,8.29,0,1,0,8.29,8.29h0a8.3,8.3,0,0,0-8.29-8.28Z"/><path class="cls-3" d="M191.43,97.2h-2.89l-.35-2.45a8.9,8.9,0,0,1-3.14-1.32l-2,1.48-2.05-2,1.48-2a8.94,8.94,0,0,1-1.3-3.14l-2.44-.35V84.47l2.45-.35A8.8,8.8,0,0,1,182.54,81l-1.48-2L183.11,77l2,1.48a8.74,8.74,0,0,1,3.14-1.29l.35-2.44h2.9l.35,2.45A9,9,0,0,1,195,78.47l2-1.48L199,79l-1.48,2a8.81,8.81,0,0,1,1.29,3.14l2.44.35v2.92l-2.45.35a8.78,8.78,0,0,1-1.31,3.14l1.48,2-2,2.06-2-1.49a9,9,0,0,1-3.14,1.3Zm-2.51-.45h2.13l.33-2.37.17,0A8.46,8.46,0,0,0,194.82,93l.13-.09,1.93,1.44,1.5-1.5-1.44-1.91.09-.14a8.45,8.45,0,0,0,1.37-3.27l0-.16,2.38-.34V84.91l-2.38-.34,0-.16a8.43,8.43,0,0,0-1.35-3.28L197,81l1.44-1.92-1.49-1.52L195,79l-.13-.09a8.45,8.45,0,0,0-3.27-1.37l-.16,0-.33-2.38H189l-.34,2.38-.16,0a8.31,8.31,0,0,0-3.27,1.34l-.14.09-1.93-1.41-1.5,1.51L183.08,81l-.09.14a8.3,8.3,0,0,0-1.37,3.27l0,.15-2.38.34V87l2.37.34,0,.16A8.31,8.31,0,0,0,183,90.76l.09.13-1.44,1.93,1.49,1.5L185,92.88l.13.09a8.54,8.54,0,0,0,3.27,1.35l.16,0ZM190,92.26A6.31,6.31,0,1,1,196.32,86,6.31,6.31,0,0,1,190,92.26Zm0-12.17A5.86,5.86,0,1,0,195.87,86,5.86,5.86,0,0,0,190,80.09Z"/><path class="cls-3" d="M39.39,101.42H35.81l-.45-3.11a11.21,11.21,0,0,1-4.08-1.7l-2.51,1.87L26.23,96l1.89-2.52a11.46,11.46,0,0,1-1.68-4.09l-3.1-.45V85.32l3.11-.45a11.48,11.48,0,0,1,1.71-4.08l-1.88-2.5,2.54-2.55,2.51,1.89A11.28,11.28,0,0,1,35.44,76l.45-3.11h3.59L39.93,76A11.16,11.16,0,0,1,44,77.66l2.51-1.88,2.54,2.54-1.89,2.52a11.11,11.11,0,0,1,1.68,4.09l3.11.44V89l-3.14.45a11.46,11.46,0,0,1-1.7,4.08L49,96l-2.55,2.53-2.51-1.88a11.29,11.29,0,0,1-4.09,1.68Zm-3.2-.45H39l.45-3,.16,0a10.81,10.81,0,0,0,4.21-1.73l.13-.09,2.46,1.85,2-2L46.59,93.5l.09-.14a10.76,10.76,0,0,0,1.76-4.2l0-.15,3-.45V85.75l-3-.45,0-.16a10.75,10.75,0,0,0-1.73-4.21l-.09-.13,1.85-2.46-2-2L44,78.18l-.13-.09a10.89,10.89,0,0,0-4.2-1.75l-.15,0-.45-3H36.26l-.45,3-.16,0a10.81,10.81,0,0,0-4.21,1.73l-.13.09L28.84,76.3l-2,2,1.84,2.45-.1.14a10.91,10.91,0,0,0-1.75,4.19l0,.16-3,.45V88.5l3,.44,0,.16a10.81,10.81,0,0,0,1.73,4.21l.09.13-1.85,2.47,2,2,2.46-1.84.13.1a10.89,10.89,0,0,0,4.2,1.75l.15,0Zm1.44-5.83a8,8,0,1,1,8-8h0a8,8,0,0,1-8,8Zm0-15.53a7.55,7.55,0,1,0,7.54,7.55h0a7.55,7.55,0,0,0-7.54-7.56h0Z"/><path class="cls-3" d="M25.37,77.86H23L22.75,76a7.06,7.06,0,0,1-2.4-1L18.81,76.1l-1.66-1.68,1.16-1.54a6.87,6.87,0,0,1-1-2.41l-1.9-.28V67.85l1.91-.28a7,7,0,0,1,1-2.4l-1.15-1.51L18.83,62l1.55,1.16a6.87,6.87,0,0,1,2.41-1l.28-1.91h2.34l.27,1.92a7,7,0,0,1,2.41,1L29.61,62l1.66,1.66-1.16,1.55a7,7,0,0,1,1,2.41L33,67.9v2.34l-1.92.28a7.08,7.08,0,0,1-1,2.41l1.15,1.53-1.63,1.66L28.06,75a6.79,6.79,0,0,1-2.41,1Zm-1.95-.45H25l.26-1.84.16,0a6.45,6.45,0,0,0,2.53-1l.14-.1,1.49,1.12,1.11-1.11-1.12-1.48.09-.13a6.5,6.5,0,0,0,1.06-2.53l0-.16,1.85-.26V68.29L30.73,68l0-.16a6.62,6.62,0,0,0-1-2.53l-.09-.14,1.11-1.49-1.1-1.11L28.1,63.72,28,63.63a6.5,6.5,0,0,0-2.53-1.06l-.16,0L25,60.7H23.45l-.26,1.84-.16,0a6.47,6.47,0,0,0-2.53,1l-.13.08-1.49-1.11-1.11,1.11,1.11,1.48-.09.14a6.53,6.53,0,0,0-1.05,2.52l0,.16-1.85.26v1.57l1.84.26,0,.16a6.47,6.47,0,0,0,1,2.53l.09.13-1.12,1.5,1.11,1.11,1.48-1.12.14.09A6.4,6.4,0,0,0,23,75.54l.16,0ZM24.23,74a5,5,0,1,1,4.93-5h0A5,5,0,0,1,24.23,74Zm0-9.46a4.51,4.51,0,1,0,4.48,4.54V69A4.5,4.5,0,0,0,24.23,64.56Z"/><path class="cls-3" d="M104.22,45.77h-3.07l-.37-2.61a9.56,9.56,0,0,1-3.39-1.42l-2.1,1.58-2.18-2.17L94.7,39a9.38,9.38,0,0,1-1.39-3.38l-2.6-.38V32.2l2.6-.39a9.24,9.24,0,0,1,1.41-3.38l-1.58-2.1,2.19-2.14,2.11,1.58a9.5,9.5,0,0,1,3.39-1.39l.37-2.61h3.07l.38,2.62A9.32,9.32,0,0,1,108,25.8l2.1-1.61,2.18,2.17-1.59,2.11a9.32,9.32,0,0,1,1.39,3.39l2.61.37v3.08l-2.62.37a9.24,9.24,0,0,1-1.41,3.38l1.58,2.11-2.17,2.17L108,41.76a9.5,9.5,0,0,1-3.39,1.39Zm-2.69-.45h2.29l.36-2.54.17,0a9,9,0,0,0,3.5-1.45l.14-.09,2.06,1.55,1.65-1.63-1.54-2,.09-.13a9.11,9.11,0,0,0,1.47-3.5l0-.16,2.54-.36v-2.3l-2.56-.38,0-.16a8.86,8.86,0,0,0-1.44-3.51l-.09-.13,1.53-2-1.63-1.62-2,1.53-.13-.09a8.94,8.94,0,0,0-3.5-1.46l-.16,0-.36-2.55h-2.3l-.36,2.54-.16,0a9.16,9.16,0,0,0-3.51,1.44l-.13.09-2.06-1.54-1.59,1.61,1.53,2.05-.09.13a9,9,0,0,0-1.46,3.51l0,.15-2.55.37v2.29l2.54.37,0,.15a8.9,8.9,0,0,0,1.44,3.52l.09.13-1.54,2.06,1.62,1.62,2-1.54.13.09a8.94,8.94,0,0,0,3.5,1.46l.16,0Zm1.2-4.83a6.73,6.73,0,1,1,6.72-6.73h0A6.72,6.72,0,0,1,102.73,40.49Zm0-13A6.28,6.28,0,1,0,109,33.76a6.28,6.28,0,0,0-6.28-6.28Z"/></g><g id="freepik--Device--inject-75"><path class="cls-3" d="M45.27,32.26H168.66a3.59,3.59,0,0,1,3.59,3.59v85.86H41.72V35.85A3.59,3.59,0,0,1,45.27,32.26Z"/><path class="cls-3" d="M172.25,121.93H41.72a.22.22,0,0,1-.22-.22V35.85a3.8,3.8,0,0,1,3.8-3.8H168.66a3.81,3.81,0,0,1,3.81,3.8v85.86A.22.22,0,0,1,172.25,121.93Zm-130.32-.45H172V35.85a3.36,3.36,0,0,0-3.35-3.37H45.27a3.37,3.37,0,0,0-3.35,3.36h0Z"/><polygon class="cls-4" points="191.82 161.25 22.11 161.25 41.7 121.71 172.24 121.71 191.82 161.25"/><path class="cls-3" d="M191.82,161.48H22.11a.27.27,0,0,1-.19-.11.22.22,0,0,1,0-.22L41.5,121.61a.23.23,0,0,1,.21-.13H172.25a.22.22,0,0,1,.2.13L192,161.15a.22.22,0,0,1,0,.22A.24.24,0,0,1,191.82,161.48ZM22.47,161h169l-19.36-39.1H41.84Z"/><rect class="cls-1" x="49.6" y="39.34" width="114.73" height="75.29"/><path class="cls-3" d="M164.34,114.85H49.6a.22.22,0,0,1-.22-.23V39.34a.22.22,0,0,1,.22-.22H164.34a.22.22,0,0,1,.22.22v75.28A.22.22,0,0,1,164.34,114.85ZM49.82,114.4H164.11V39.57H49.82Z"/><polygon class="cls-3" points="101.52 134.23 101.75 129.41 94.85 129.41 94.39 134.23 101.52 134.23"/><path class="cls-4" d="M101.52,134.45H94.39a.24.24,0,0,1-.16-.07.23.23,0,0,1-.06-.18l.45-4.81a.23.23,0,0,1,.23-.21h6.89a.26.26,0,0,1,.17.07.25.25,0,0,1,.06.17l-.23,4.81A.22.22,0,0,1,101.52,134.45ZM94.64,134h6.67l.21-4.37H95.06Z"/><polygon class="cls-3" points="115.78 134.23 115.54 129.41 108.65 129.41 108.65 134.23 115.78 134.23"/><path class="cls-4" d="M115.78,134.45h-7.13a.22.22,0,0,1-.22-.22v-4.82a.21.21,0,0,1,.2-.23h6.92a.22.22,0,0,1,.22.21l.24,4.82a.25.25,0,0,1-.06.17A.23.23,0,0,1,115.78,134.45Zm-6.9-.45h6.66l-.21-4.37h-6.46Z"/><polygon class="cls-3" points="152.91 139.38 160.28 139.38 158.55 134.23 151.42 134.23 152.91 139.38"/><path class="cls-4" d="M160.28,139.6h-7.37a.24.24,0,0,1-.22-.16l-1.48-5.15a.24.24,0,0,1,0-.2.21.21,0,0,1,.18-.09h7.13a.22.22,0,0,1,.21.15l1.74,5.15a.23.23,0,0,1,0,.21A.21.21,0,0,1,160.28,139.6Zm-7.2-.45H160l-1.58-4.7h-6.67Z"/><polygon class="cls-3" points="94.39 134.23 94.85 129.41 87.95 129.41 87.27 134.23 94.39 134.23"/><path class="cls-4" d="M94.39,134.45H87.26a.25.25,0,0,1-.17-.08.19.19,0,0,1,0-.18l.68-4.81a.23.23,0,0,1,.22-.2h6.9a.25.25,0,0,1,.17.08.2.2,0,0,1,0,.17l-.44,4.82A.23.23,0,0,1,94.39,134.45ZM87.53,134H94.2l.42-4.37H88.15Z"/><polygon class="cls-3" points="80.14 134.23 81.06 129.41 74.16 129.41 73.01 134.23 80.14 134.23"/><path class="cls-4" d="M80.14,134.45H73a.21.21,0,0,1-.18-.09.21.21,0,0,1,0-.19l1.15-4.82a.22.22,0,0,1,.22-.17h6.9a.23.23,0,0,1,.17.08.26.26,0,0,1,0,.19l-.92,4.82A.23.23,0,0,1,80.14,134.45ZM73.29,134H80l.83-4.37H74.33Z"/><polygon class="cls-3" points="144.29 134.23 143.14 129.41 136.24 129.41 137.17 134.23 144.29 134.23"/><path class="cls-4" d="M144.29,134.45h-7.12a.22.22,0,0,1-.22-.18l-.93-4.82a.21.21,0,0,1,.17-.26h6.95a.21.21,0,0,1,.21.17l1.16,4.82a.21.21,0,0,1,0,.19A.21.21,0,0,1,144.29,134.45Zm-6.94-.45H144l-1.05-4.37h-6.43Z"/><polygon class="cls-3" points="151.42 134.23 150.03 129.41 143.14 129.41 144.29 134.23 151.42 134.23"/><path class="cls-4" d="M151.42,134.45h-7.13a.23.23,0,0,1-.22-.17l-1.15-4.82a.21.21,0,0,1,0-.19.24.24,0,0,1,.18-.09H150a.23.23,0,0,1,.22.17l1.37,4.81a.21.21,0,0,1,0,.2A.24.24,0,0,1,151.42,134.45Zm-6.95-.45h6.66l-1.26-4.37h-6.45Z"/><polygon class="cls-3" points="73.01 134.23 74.16 129.41 67.26 129.41 65.88 134.23 73.01 134.23"/><path class="cls-4" d="M73,134.45H65.88a.21.21,0,0,1-.18-.09.24.24,0,0,1,0-.2L67,129.35a.23.23,0,0,1,.22-.17h6.9a.26.26,0,0,1,.17.09.21.21,0,0,1,0,.19l-1.14,4.82A.23.23,0,0,1,73,134.45ZM66.18,134h6.65l1-4.37H67.43Z"/><polygon class="cls-3" points="122.91 134.23 122.44 129.41 115.54 129.41 115.78 134.23 122.91 134.23"/><path class="cls-4" d="M122.91,134.45h-7.13a.22.22,0,0,1-.22-.22l-.24-4.81a.27.27,0,0,1,.06-.17.24.24,0,0,1,.17-.07h6.91a.23.23,0,0,1,.23.21l.45,4.81a.23.23,0,0,1-.21.25ZM116,134h6.66l-.42-4.37h-6.46Z"/><polygon class="cls-3" points="158.55 134.23 156.93 129.41 150.03 129.41 151.42 134.23 158.55 134.23"/><path class="cls-4" d="M158.55,134.45h-7.13a.22.22,0,0,1-.21-.16l-1.38-4.82a.23.23,0,0,1,.16-.28h6.95a.21.21,0,0,1,.21.16l1.62,4.81a.26.26,0,0,1,0,.21A.22.22,0,0,1,158.55,134.45Zm-7-.45h6.65l-1.47-4.37h-6.44Z"/><polygon class="cls-3" points="137.17 134.23 136.24 129.41 129.34 129.41 130.03 134.23 137.17 134.23"/><path class="cls-4" d="M137.17,134.45H130a.22.22,0,0,1-.22-.19l-.69-4.82a.22.22,0,0,1,.18-.25h6.94a.23.23,0,0,1,.22.18l.93,4.82a.24.24,0,0,1-.19.27Zm-6.94-.45h6.66l-.84-4.37H129.6Z"/><polygon class="cls-3" points="130.03 134.23 129.34 129.41 122.44 129.41 122.91 134.23 130.03 134.23"/><path class="cls-4" d="M130,134.45h-7.12a.23.23,0,0,1-.22-.2l-.45-4.82a.2.2,0,0,1,.05-.17.25.25,0,0,1,.17-.08h6.9a.22.22,0,0,1,.22.19l.7,4.82a.19.19,0,0,1-.06.18A.21.21,0,0,1,130,134.45Zm-6.92-.45h6.67l-.63-4.37h-6.46Z"/><polygon class="cls-3" points="108.65 134.23 108.65 129.41 101.75 129.41 101.52 134.23 108.65 134.23"/><path class="cls-4" d="M108.65,134.45h-7.13a.24.24,0,0,1-.16-.07.27.27,0,0,1-.06-.17l.22-4.82a.24.24,0,0,1,.23-.21h6.9a.22.22,0,0,1,.22.23v4.82a.19.19,0,0,1-.07.15A.17.17,0,0,1,108.65,134.45Zm-6.89-.45h6.67v-4.37H102Z"/><polygon class="cls-3" points="58.75 134.23 51.62 134.23 49.65 139.38 57.03 139.38 58.75 134.23"/><path class="cls-4" d="M57,139.6H49.65a.24.24,0,0,1-.18-.09.28.28,0,0,1,0-.22l2-5.14a.24.24,0,0,1,.21-.15h7.15a.22.22,0,0,1,.18.1.2.2,0,0,1,0,.2l-1.74,5.17A.22.22,0,0,1,57,139.6ZM50,139.15h6.89l1.57-4.7H51.78Z"/><polygon class="cls-3" points="60.36 129.41 53.46 129.41 51.62 134.23 58.75 134.23 60.36 129.41"/><path class="cls-4" d="M58.77,134.45H51.62a.22.22,0,0,1-.18-.1.19.19,0,0,1,0-.2l1.85-4.82a.21.21,0,0,1,.2-.15h6.9a.23.23,0,0,1,.23.22s0,0,0,.08L59,134.3A.24.24,0,0,1,58.77,134.45ZM52,134h6.64l1.46-4.37H53.62Z"/><polygon class="cls-3" points="65.88 134.23 67.26 129.41 60.36 129.41 58.75 134.23 65.88 134.23"/><path class="cls-4" d="M65.88,134.45H58.77a.21.21,0,0,1-.22-.23.2.2,0,0,1,0-.07l1.61-4.81a.23.23,0,0,1,.21-.16h6.9a.26.26,0,0,1,.18.09.24.24,0,0,1,0,.2l-1.38,4.82A.23.23,0,0,1,65.88,134.45ZM59.06,134h6.65L67,129.63H60.52Z"/><polygon class="cls-3" points="47.55 144.9 45.28 150.83 53.2 150.83 55.18 144.9 47.55 144.9"/><path class="cls-4" d="M53.2,151.06H45.28a.3.3,0,0,1-.19-.1.22.22,0,0,1,0-.21l2.26-5.93a.24.24,0,0,1,.22-.15h7.62a.22.22,0,0,1,.18.1.18.18,0,0,1,0,.2l-2,5.93A.23.23,0,0,1,53.2,151.06Zm-7.6-.45H53l1.83-5.49H47.7Z"/><polygon class="cls-3" points="57.03 139.38 49.65 139.38 47.55 144.9 55.18 144.9 57.03 139.38"/><path class="cls-4" d="M55.18,145.12H47.55a.22.22,0,0,1-.22-.22.19.19,0,0,1,0-.08l2.11-5.53a.24.24,0,0,1,.21-.14H57a.22.22,0,0,1,.18.1.23.23,0,0,1,0,.2L55.4,145A.22.22,0,0,1,55.18,145.12Zm-7.32-.45H55l1.7-5.07H49.8Z"/><polygon class="cls-3" points="55.18 144.9 53.2 150.83 61.12 150.83 62.82 144.9 55.18 144.9"/><path class="cls-4" d="M61.13,151.06H53.2a.24.24,0,0,1-.22-.23.17.17,0,0,1,0-.07l2-5.91a.23.23,0,0,1,.21-.15h7.63A.21.21,0,0,1,63,145l-1.69,5.93A.23.23,0,0,1,61.13,151.06Zm-7.63-.45h7.44l1.57-5.49H55.34Z"/><polygon class="cls-3" points="87.27 134.23 87.95 129.41 81.06 129.41 80.14 134.23 87.27 134.23"/><path class="cls-4" d="M87.26,134.45H80.14a.25.25,0,0,1-.18-.08.25.25,0,0,1,0-.19l.89-4.82a.25.25,0,0,1,.23-.18h6.89a.23.23,0,0,1,.23.23v0l-.68,4.82A.25.25,0,0,1,87.26,134.45ZM80.41,134h6.66l.63-4.37H81.24Z"/><polygon class="cls-3" points="86.53 139.38 87.27 134.23 80.14 134.23 79.16 139.38 86.53 139.38"/><path class="cls-4" d="M86.53,139.6H79.15a.22.22,0,0,1-.22-.22.11.11,0,0,1,0,0l1-5.15a.23.23,0,0,1,.22-.18h7.12a.25.25,0,0,1,.18.08.23.23,0,0,1,0,.18l-.74,5.15A.22.22,0,0,1,86.53,139.6Zm-7.11-.45h6.92l.69-4.7H80.34Z"/><polygon class="cls-3" points="79.16 139.38 80.14 134.23 73.01 134.23 71.78 139.38 79.16 139.38"/><path class="cls-4" d="M79.15,139.6H71.78a.21.21,0,0,1-.18-.09.2.2,0,0,1,0-.18l1.23-5.16A.22.22,0,0,1,73,134h7.12a.21.21,0,0,1,.17.08.19.19,0,0,1,0,.19l-1,5.15A.23.23,0,0,1,79.15,139.6Zm-7.09-.45H79l.9-4.7H73.18Z"/><polygon class="cls-3" points="93.9 139.38 94.39 134.23 87.27 134.23 86.53 139.38 93.9 139.38"/><path class="cls-4" d="M93.9,139.6H86.53a.22.22,0,0,1-.22-.22v0l.72-5.15a.22.22,0,0,1,.22-.19h7.12a.24.24,0,0,1,.17.07.28.28,0,0,1,.06.18l-.49,5.15A.22.22,0,0,1,93.9,139.6Zm-7.11-.45H93.7l.45-4.7H87.48Z"/><polygon class="cls-3" points="65.88 134.23 58.75 134.23 57.03 139.38 64.41 139.38 65.88 134.23"/><path class="cls-4" d="M64.41,139.6H57a.21.21,0,0,1-.18-.09.21.21,0,0,1,0-.2l1.72-5.16a.23.23,0,0,1,.21-.15h7.13a.21.21,0,0,1,.18.09.21.21,0,0,1,0,.2l-1.47,5.15A.23.23,0,0,1,64.41,139.6Zm-7.07-.45h6.9l1.34-4.7H58.91Z"/><polygon class="cls-3" points="154.5 144.9 162.14 144.9 160.28 139.38 152.91 139.38 154.5 144.9"/><path class="cls-4" d="M162.14,145.12h-7.63a.21.21,0,0,1-.21-.16l-1.6-5.52a.28.28,0,0,1,0-.2.24.24,0,0,1,.18-.09h7.37a.23.23,0,0,1,.22.15l1.84,5.55a.24.24,0,0,1,0,.2A.21.21,0,0,1,162.14,145.12Zm-7.48-.45h7.18l-1.7-5.07H153.2Z"/><polygon class="cls-3" points="71.78 139.38 73.01 134.23 65.88 134.23 64.41 139.38 71.78 139.38"/><path class="cls-4" d="M71.78,139.6H64.41a.21.21,0,0,1-.18-.09.19.19,0,0,1,0-.19l1.47-5.16a.24.24,0,0,1,.22-.16H73a.2.2,0,0,1,.17.09.22.22,0,0,1,0,.19L72,139.43A.23.23,0,0,1,71.78,139.6Zm-7.08-.45h6.9l1.12-4.7H66.05Z"/><polygon class="cls-3" points="57.03 139.38 55.18 144.9 62.82 144.9 64.41 139.38 57.03 139.38"/><path class="cls-4" d="M62.81,145.12H55.18A.21.21,0,0,1,55,145a.19.19,0,0,1,0-.2l1.84-5.52a.24.24,0,0,1,.21-.16H64.4a.22.22,0,0,1,.22.24v.05L63,145A.21.21,0,0,1,62.81,145.12Zm-7.33-.45h7.17l1.46-5.07H57.19Z"/><polygon class="cls-3" points="138.16 139.38 137.17 134.23 130.03 134.23 130.78 139.38 138.16 139.38"/><path class="cls-4" d="M138.16,139.6h-7.38a.22.22,0,0,1-.22-.19l-.75-5.15a.23.23,0,0,1,.06-.18A.21.21,0,0,1,130,134h7.14a.23.23,0,0,1,.22.18l1,5.15a.24.24,0,0,1-.18.27Zm-7.17-.45h6.9l-.89-4.7h-6.69Z"/><polygon class="cls-3" points="130.78 139.38 130.03 134.23 122.91 134.23 123.41 139.38 130.78 139.38"/><path class="cls-4" d="M130.78,139.6h-7.37a.23.23,0,0,1-.23-.2l-.5-5.15a.28.28,0,0,1,.06-.18.24.24,0,0,1,.17-.07H130a.23.23,0,0,1,.23.19l.73,5.15a.23.23,0,0,1-.2.26h0Zm-7.18-.45h6.94l-.68-4.7h-6.71Z"/><polygon class="cls-3" points="152.91 139.38 151.42 134.23 144.29 134.23 145.53 139.38 152.91 139.38"/><path class="cls-4" d="M152.91,139.6h-7.38a.23.23,0,0,1-.22-.17l-1.24-5.15a.25.25,0,0,1,.05-.19.21.21,0,0,1,.17-.09h7.13a.24.24,0,0,1,.22.16l1.48,5.16a.22.22,0,0,1,0,.19A.23.23,0,0,1,152.91,139.6Zm-7.2-.45h6.9l-1.35-4.7h-6.68Z"/><polygon class="cls-3" points="108.66 139.38 108.65 134.23 101.52 134.23 101.28 139.38 108.66 139.38"/><path class="cls-4" d="M108.66,139.6h-7.38a.2.2,0,0,1-.16-.07.19.19,0,0,1-.06-.16l.24-5.16a.23.23,0,0,1,.22-.21h7.13a.23.23,0,0,1,.23.23v5.15a.26.26,0,0,1-.07.16A.22.22,0,0,1,108.66,139.6Zm-7.14-.45h6.91v-4.7h-6.69Z"/><polygon class="cls-3" points="123.41 139.38 122.91 134.23 115.78 134.23 116.03 139.38 123.41 139.38"/><path class="cls-4" d="M123.41,139.6H116a.21.21,0,0,1-.22-.21l-.25-5.16a.17.17,0,0,1,.06-.16.2.2,0,0,1,.16-.07h7.13a.24.24,0,0,1,.23.2l.49,5.16a.22.22,0,0,1,0,.17A.28.28,0,0,1,123.41,139.6Zm-7.18-.45h6.91l-.45-4.7H116Z"/><polygon class="cls-3" points="116.03 139.38 115.78 134.23 108.65 134.23 108.66 139.38 116.03 139.38"/><path class="cls-4" d="M116,139.6h-7.37a.22.22,0,0,1-.23-.22v-5.15a.23.23,0,0,1,.07-.17.23.23,0,0,1,.16-.06h7.12a.21.21,0,0,1,.22.21l.26,5.16a.24.24,0,0,1-.23.23Zm-7.15-.45h6.92l-.24-4.7h-6.68Z"/><polygon class="cls-3" points="101.28 139.38 101.52 134.23 94.39 134.23 93.9 139.38 101.28 139.38"/><path class="cls-4" d="M101.28,139.6H93.9a.24.24,0,0,1-.16-.07.27.27,0,0,1-.06-.17l.49-5.16a.23.23,0,0,1,.22-.2h7.13a.21.21,0,0,1,.22.21,0,0,0,0,1,0,0l-.23,5.16A.23.23,0,0,1,101.28,139.6Zm-7.13-.45h6.92l.22-4.7H94.6Z"/><polygon class="cls-3" points="123.41 139.38 123.94 144.9 131.58 144.9 130.78 139.38 123.41 139.38"/><path class="cls-4" d="M131.58,145.12H124a.23.23,0,0,1-.22-.2l-.54-5.52a.25.25,0,0,1,.06-.17.21.21,0,0,1,.17-.08h7.37a.24.24,0,0,1,.23.19l.78,5.51a.24.24,0,0,1-.05.18A.22.22,0,0,1,131.58,145.12Zm-7.43-.45h7.17l-.73-5.07h-6.94Z"/><polygon class="cls-3" points="130.78 139.38 131.58 144.9 139.22 144.9 138.16 139.38 130.78 139.38"/><path class="cls-4" d="M139.22,145.12h-7.63a.22.22,0,0,1-.22-.19l-.8-5.52a.24.24,0,0,1,.22-.26h7.37a.23.23,0,0,1,.22.18l1.06,5.52a.24.24,0,0,1-.05.18A.2.2,0,0,1,139.22,145.12Zm-7.44-.45H139l-1-5.07H131Z"/><polygon class="cls-3" points="64.41 139.38 62.82 144.9 70.46 144.9 71.78 139.38 64.41 139.38"/><path class="cls-4" d="M70.46,145.12H62.81a.2.2,0,0,1-.18-.09.21.21,0,0,1,0-.2l1.58-5.51a.23.23,0,0,1,.22-.17h7.39a.22.22,0,0,1,.22.23.09.09,0,0,1,0,.05L70.68,145A.23.23,0,0,1,70.46,145.12Zm-7.34-.45H70.3l1.2-5.07H64.57Z"/><polygon class="cls-3" points="138.16 139.38 139.22 144.9 146.86 144.9 145.53 139.38 138.16 139.38"/><path class="cls-4" d="M146.86,145.12h-7.63a.23.23,0,0,1-.22-.18l-1.07-5.52a.2.2,0,0,1,0-.18.23.23,0,0,1,.18-.09h7.37a.22.22,0,0,1,.22.18l1.34,5.52a.22.22,0,0,1-.23.27Zm-7.45-.45h7.17l-1.24-5.07h-6.91Z"/><polygon class="cls-3" points="108.66 139.38 108.66 144.9 116.3 144.9 116.03 139.38 108.66 139.38"/><path class="cls-4" d="M116.3,145.12h-7.63a.22.22,0,0,1-.22-.22v-5.52a.23.23,0,0,1,.06-.16.26.26,0,0,1,.16-.07h7.38a.22.22,0,0,1,.22.22l.27,5.52a.19.19,0,0,1-.06.16A.21.21,0,0,1,116.3,145.12Zm-7.41-.45h7.17l-.25-5.07h-6.93Z"/><polygon class="cls-3" points="145.53 139.38 146.86 144.9 154.5 144.9 152.91 139.38 145.53 139.38"/><path class="cls-4" d="M154.5,145.12h-7.63a.23.23,0,0,1-.22-.17l-1.34-5.52a.21.21,0,0,1,0-.19.21.21,0,0,1,.18-.09h7.37a.23.23,0,0,1,.22.17l1.59,5.53a.24.24,0,0,1,0,.2A.24.24,0,0,1,154.5,145.12Zm-7.46-.45h7.17l-1.46-5.07h-6.94Z"/><polygon class="cls-3" points="116.03 139.38 116.3 144.9 123.94 144.9 123.41 139.38 116.03 139.38"/><path class="cls-4" d="M123.94,145.12h-7.63a.22.22,0,0,1-.22-.21l-.27-5.52a.27.27,0,0,1,.06-.17.24.24,0,0,1,.16-.07h7.37a.23.23,0,0,1,.22.21l.53,5.51a.2.2,0,0,1-.06.18A.2.2,0,0,1,123.94,145.12Zm-7.42-.45h7.17l-.49-5.07h-6.93Z"/><polygon class="cls-3" points="79.16 139.38 78.1 144.9 85.74 144.9 86.53 139.38 79.16 139.38"/><path class="cls-4" d="M85.74,145.12H78.12A.21.21,0,0,1,78,145a.24.24,0,0,1,0-.18l1-5.53a.23.23,0,0,1,.22-.18h7.38a.23.23,0,0,1,.22.23v0L86,144.93A.22.22,0,0,1,85.74,145.12Zm-7.37-.45h7.18l.73-5.07H79.34Z"/><polygon class="cls-3" points="71.78 139.38 70.46 144.9 78.1 144.9 79.16 139.38 71.78 139.38"/><path class="cls-4" d="M78.1,145.12H70.48a.23.23,0,0,1-.18-.08.22.22,0,0,1,0-.19l1.31-5.52a.23.23,0,0,1,.22-.18h7.38a.2.2,0,0,1,.17.09.23.23,0,0,1,0,.18l-1,5.52A.24.24,0,0,1,78.1,145.12Zm-7.35-.45h7.18l1-5.07H72Z"/><polygon class="cls-3" points="101.28 139.38 101.02 144.9 108.66 144.9 108.66 139.38 101.28 139.38"/><path class="cls-4" d="M108.66,145.12H101a.22.22,0,0,1-.17-.07.23.23,0,0,1-.06-.16l.26-5.52a.24.24,0,0,1,.23-.22h7.37a.22.22,0,0,1,.22.23v5.52a.23.23,0,0,1-.06.16A.27.27,0,0,1,108.66,145.12Zm-7.4-.45h7.17V139.6h-6.94Z"/><polygon class="cls-3" points="93.9 139.38 93.38 144.9 101.02 144.9 101.28 139.38 93.9 139.38"/><path class="cls-4" d="M101,145.12H93.4a.21.21,0,0,1-.17-.07.27.27,0,0,1-.06-.17l.53-5.52a.22.22,0,0,1,.22-.21h7.38a.26.26,0,0,1,.16.07.27.27,0,0,1,.06.17l-.26,5.52A.22.22,0,0,1,101,145.12Zm-7.39-.45h7.18l.23-5.07H94.11Z"/><polygon class="cls-3" points="86.53 139.38 85.74 144.9 93.38 144.9 93.9 139.38 86.53 139.38"/><path class="cls-4" d="M93.38,145.12H85.76a.22.22,0,0,1-.23-.22v0l.79-5.53a.22.22,0,0,1,.22-.19h7.38a.21.21,0,0,1,.16.08.18.18,0,0,1,.06.17l-.52,5.52A.22.22,0,0,1,93.38,145.12ZM86,144.67h7.18l.48-5.07H86.73Z"/><polygon class="cls-3" points="145.53 139.38 144.29 134.23 137.17 134.23 138.16 139.38 145.53 139.38"/><path class="cls-4" d="M145.53,139.6h-7.37a.22.22,0,0,1-.22-.18l-1-5.15a.25.25,0,0,1,.05-.19.21.21,0,0,1,.17-.08h7.13a.23.23,0,0,1,.22.17l1.23,5.16a.17.17,0,0,1,0,.18A.21.21,0,0,1,145.53,139.6Zm-7.17-.45h6.9l-1.13-4.7h-6.69Z"/><polygon class="cls-3" points="60.36 129.41 62.01 124.47 55.35 124.47 53.46 129.41 60.36 129.41"/><path class="cls-4" d="M60.36,129.63h-6.9a.22.22,0,0,1-.22-.22.19.19,0,0,1,0-.08l1.88-4.94a.22.22,0,0,1,.21-.14H62a.22.22,0,0,1,.22.23.2.2,0,0,1,0,.07l-1.64,4.93A.24.24,0,0,1,60.36,129.63Zm-6.57-.45H60.2l1.5-4.48H55.5Z"/><polygon class="cls-3" points="53.46 129.41 47.1 129.41 45.04 134.23 51.62 134.23 53.46 129.41"/><path class="cls-4" d="M51.62,134.45H45a.21.21,0,0,1-.19-.31l2.06-4.82a.26.26,0,0,1,.2-.14h6.37a.26.26,0,0,1,.19.1.23.23,0,0,1,0,.2l-1.84,4.83A.24.24,0,0,1,51.62,134.45ZM45.38,134h6.09l1.67-4.37h-5.9Z"/><polygon class="cls-3" points="55.35 124.47 49.2 124.47 47.1 129.41 53.46 129.41 55.35 124.47"/><path class="cls-4" d="M53.46,129.63H47.11a.23.23,0,0,1-.19-.1.2.2,0,0,1,0-.21l2.1-4.94a.22.22,0,0,1,.21-.13h6.14a.23.23,0,0,1,.19.1.22.22,0,0,1,0,.21l-1.88,4.93A.22.22,0,0,1,53.46,129.63Zm-6-.45h5.87L55,124.7H49.35Z"/><polygon class="cls-3" points="51.62 134.23 45.04 134.23 42.84 139.38 49.65 139.38 51.62 134.23"/><path class="cls-4" d="M49.65,139.6H42.84a.22.22,0,0,1-.22-.23.31.31,0,0,1,0-.08l2.2-5.15A.2.2,0,0,1,45,134h6.58a.23.23,0,0,1,.19.1.22.22,0,0,1,0,.21l-2,5.16A.22.22,0,0,1,49.65,139.6Zm-6.46-.45H49.5l1.8-4.7H45.19Z"/><polygon class="cls-3" points="49.65 139.38 42.84 139.38 40.49 144.9 47.55 144.9 49.65 139.38"/><path class="cls-4" d="M47.55,145.12H40.49a.21.21,0,0,1-.22-.21.16.16,0,0,1,0-.1l2.33-5.52a.23.23,0,0,1,.21-.14h6.81a.23.23,0,0,1,.22.23s0,.05,0,.08L47.74,145A.22.22,0,0,1,47.55,145.12Zm-6.72-.45h6.55l2-5.07H43Z"/><polygon class="cls-3" points="47.55 144.9 40.49 144.9 37.96 150.83 45.28 150.83 47.55 144.9"/><path class="cls-4" d="M45.28,151.06H38a.23.23,0,0,1-.18-.11.2.2,0,0,1,0-.21l2.53-5.93a.22.22,0,0,1,.2-.14h7a.23.23,0,0,1,.19.1.26.26,0,0,1,0,.21l-2.27,5.93A.24.24,0,0,1,45.28,151.06Zm-7-.45h6.82l2.1-5.49H40.64Z"/><polygon class="cls-3" points="165.68 134.23 167.66 139.38 174.18 139.38 171.98 134.23 165.68 134.23"/><path class="cls-4" d="M174.18,139.6h-6.52a.23.23,0,0,1-.21-.14l-2-5.15a.22.22,0,0,1,0-.21.23.23,0,0,1,.19-.1H172a.22.22,0,0,1,.21.14l2.2,5.15a.26.26,0,0,1,0,.21A.23.23,0,0,1,174.18,139.6Zm-6.37-.45h6l-2-4.7H166Z"/><polygon class="cls-3" points="169.78 144.9 176.54 144.9 174.18 139.38 167.66 139.38 169.78 144.9"/><path class="cls-4" d="M176.54,145.12h-6.76a.22.22,0,0,1-.21-.14l-2.12-5.51a.21.21,0,0,1,.13-.29.11.11,0,0,1,.08,0h6.52a.24.24,0,0,1,.21.14l2.35,5.51a.22.22,0,0,1-.12.29.15.15,0,0,1-.09,0Zm-6.61-.45h6.28l-2.16-5.07H168Z"/><polygon class="cls-3" points="172.06 150.83 179.06 150.83 176.54 144.9 169.78 144.9 172.06 150.83"/><path class="cls-4" d="M179.06,151.06h-7a.24.24,0,0,1-.22-.15L169.56,145a.23.23,0,0,1,.14-.29l.07,0h6.76a.24.24,0,0,1,.21.14l2.52,5.93a.2.2,0,0,1,0,.21A.23.23,0,0,1,179.06,151.06Zm-6.85-.45h6.52l-2.34-5.49h-6.28Z"/><polygon class="cls-3" points="115.54 129.41 115.3 124.47 108.64 124.47 108.65 129.41 115.54 129.41"/><path class="cls-4" d="M115.55,129.63h-6.9a.22.22,0,0,1-.23-.22v-4.94a.23.23,0,0,1,.07-.15.2.2,0,0,1,.16-.07h6.64a.22.22,0,0,1,.22.22l.24,4.93a.27.27,0,0,1-.06.17A.25.25,0,0,1,115.55,129.63Zm-6.68-.45h6.44l-.22-4.48h-6.22Z"/><polygon class="cls-3" points="165.68 134.23 171.98 134.23 169.93 129.41 163.83 129.41 165.68 134.23"/><path class="cls-4" d="M172,134.45h-6.3a.23.23,0,0,1-.21-.14l-1.85-4.83a.21.21,0,0,1,.13-.28l.08,0h6.1a.24.24,0,0,1,.21.14l2.05,4.82a.2.2,0,0,1,0,.21A.21.21,0,0,1,172,134.45Zm-6.15-.45h5.84l-1.87-4.37h-5.62Z"/><polygon class="cls-3" points="162.14 144.9 169.78 144.9 167.66 139.38 160.28 139.38 162.14 144.9"/><path class="cls-4" d="M169.78,145.12h-7.63a.22.22,0,0,1-.21-.15l-1.87-5.5a.23.23,0,0,1,.14-.29h7.45a.24.24,0,0,1,.21.14l2.14,5.51a.2.2,0,0,1,0,.21A.21.21,0,0,1,169.78,145.12Zm-7.48-.45h7.15l-1.95-5.07h-6.91Z"/><polygon class="cls-3" points="67.26 129.41 68.67 124.47 62.01 124.47 60.36 129.41 67.26 129.41"/><path class="cls-4" d="M67.26,129.63h-6.9a.22.22,0,0,1-.22-.22.15.15,0,0,1,0-.07l1.65-4.94a.22.22,0,0,1,.21-.15h6.66a.21.21,0,0,1,.18.09.24.24,0,0,1,0,.2l-1.42,4.93A.21.21,0,0,1,67.26,129.63Zm-6.59-.45h6.42l1.28-4.48h-6.2Z"/><polygon class="cls-3" points="156.93 129.41 158.55 134.23 165.68 134.23 163.83 129.41 156.93 129.41"/><path class="cls-4" d="M165.68,134.45h-7.13a.22.22,0,0,1-.21-.15l-1.62-4.82a.26.26,0,0,1,0-.21.24.24,0,0,1,.18-.09h6.9a.23.23,0,0,1,.21.15l1.85,4.82a.24.24,0,0,1,0,.2A.26.26,0,0,1,165.68,134.45Zm-7-.45h6.64l-1.67-4.37h-6.44Z"/><polygon class="cls-3" points="169.93 129.41 167.83 124.47 161.94 124.47 163.83 129.41 169.93 129.41"/><path class="cls-4" d="M169.93,129.63h-6.1a.22.22,0,0,1-.21-.14l-1.89-4.93a.22.22,0,0,1,0-.21.23.23,0,0,1,.19-.1h5.89a.23.23,0,0,1,.21.13l2.1,4.94a.22.22,0,0,1,0,.21A.23.23,0,0,1,169.93,129.63Zm-5.94-.45h5.6l-1.91-4.48h-5.42Z"/><polygon class="cls-3" points="163.83 129.41 161.94 124.47 155.28 124.47 156.93 129.41 163.83 129.41"/><path class="cls-4" d="M163.83,129.63h-6.9a.22.22,0,0,1-.21-.15l-1.66-4.93a.26.26,0,0,1,0-.21.24.24,0,0,1,.18-.09h6.67a.24.24,0,0,1,.21.14l1.89,4.94a.23.23,0,0,1-.14.29Zm-6.73-.45h6.41l-1.72-4.48h-6.21Z"/><polygon class="cls-3" points="139.22 144.9 140.36 150.83 148.28 150.83 146.86 144.9 139.22 144.9"/><path class="cls-4" d="M148.28,151.06h-7.92a.22.22,0,0,1-.22-.19L139,144.94a.22.22,0,0,1,.05-.19.21.21,0,0,1,.17-.08h7.62a.23.23,0,0,1,.22.18l1.42,5.93a.19.19,0,0,1,0,.19A.24.24,0,0,1,148.28,151.06Zm-7.74-.45H148l-1.31-5.49h-7.18Z"/><polygon class="cls-3" points="164.13 150.83 172.06 150.83 169.78 144.9 162.14 144.9 164.13 150.83"/><path class="cls-4" d="M172.06,151.06h-7.93a.24.24,0,0,1-.21-.16l-2-5.93a.21.21,0,0,1,0-.2.22.22,0,0,1,.18-.1h7.63a.24.24,0,0,1,.21.15l2.26,5.93a.2.2,0,0,1,0,.21A.24.24,0,0,1,172.06,151.06Zm-7.77-.45h7.44l-2.11-5.49h-7.17Z"/><polygon class="cls-3" points="156.93 129.41 155.28 124.47 148.61 124.47 150.03 129.41 156.93 129.41"/><path class="cls-4" d="M156.93,129.63H150a.22.22,0,0,1-.21-.16l-1.42-4.94a.21.21,0,0,1,0-.19.23.23,0,0,1,.18-.09h6.66a.24.24,0,0,1,.22.15l1.66,4.93a.23.23,0,0,1,0,.2A.22.22,0,0,1,156.93,129.63Zm-6.73-.45h6.42l-1.51-4.48h-6.18Z"/><polygon class="cls-3" points="154.5 144.9 156.21 150.83 164.13 150.83 162.14 144.9 154.5 144.9"/><path class="cls-4" d="M164.13,151.06h-7.92a.23.23,0,0,1-.22-.17L154.28,145a.24.24,0,0,1,0-.2.24.24,0,0,1,.18-.09h7.62a.25.25,0,0,1,.22.16l2,5.93a.23.23,0,0,1-.2.3Zm-7.76-.45h7.45L162,145.12H154.8Z"/><polygon class="cls-3" points="146.86 144.9 148.28 150.83 156.21 150.83 154.5 144.9 146.86 144.9"/><path class="cls-4" d="M156.21,151.06h-7.93a.22.22,0,0,1-.21-.18L146.64,145a.21.21,0,0,1,0-.19.21.21,0,0,1,.18-.09h7.63a.23.23,0,0,1,.21.16l1.71,5.94a.24.24,0,0,1,0,.2A.26.26,0,0,1,156.21,151.06Zm-7.75-.45h7.45l-1.6-5.49h-7.18Z"/><polygon class="cls-3" points="160.28 139.38 167.66 139.38 165.68 134.23 158.55 134.23 160.28 139.38"/><path class="cls-4" d="M167.66,139.6h-7.38a.22.22,0,0,1-.21-.15l-1.72-5.15a.23.23,0,0,1,.14-.29h7.2a.24.24,0,0,1,.21.15l2,5.14a.21.21,0,0,1-.11.29l-.09,0Zm-7.22-.45h6.88l-1.8-4.7h-6.66Z"/><polygon class="cls-3" points="94.85 129.41 95.32 124.47 88.66 124.47 87.95 129.41 94.85 129.41"/><path class="cls-4" d="M94.85,129.63H88a.21.21,0,0,1-.16-.08.19.19,0,0,1-.06-.17l.71-4.94a.21.21,0,0,1,.22-.19h6.66a.24.24,0,0,1,.16.07.2.2,0,0,1,.06.18l-.45,4.93A.22.22,0,0,1,94.85,129.63Zm-6.64-.45h6.44l.42-4.48H88.85Z"/><polygon class="cls-3" points="150.03 129.41 148.61 124.47 141.95 124.47 143.14 129.41 150.03 129.41"/><path class="cls-4" d="M150,129.63h-6.89a.22.22,0,0,1-.22-.17l-1.19-4.94a.27.27,0,0,1,0-.19.25.25,0,0,1,.18-.08h6.66a.22.22,0,0,1,.22.16l1.42,4.93a.23.23,0,0,1-.16.28Zm-6.73-.45h6.44l-1.3-4.48h-6.2Z"/><polygon class="cls-3" points="87.95 129.41 88.66 124.47 81.99 124.47 81.06 129.41 87.95 129.41"/><path class="cls-4" d="M88,129.63H81.06a.23.23,0,0,1-.18-.08.25.25,0,0,1,0-.19l.94-4.93a.21.21,0,0,1,.22-.18h6.67a.2.2,0,0,1,.17.07.24.24,0,0,1,0,.18l-.7,4.94A.24.24,0,0,1,88,129.63Zm-6.62-.45h6.43l.64-4.48H82.18Z"/><polygon class="cls-3" points="108.65 129.41 108.64 124.47 101.98 124.47 101.75 129.41 108.65 129.41"/><path class="cls-4" d="M108.65,129.63h-6.9a.2.2,0,0,1-.16-.07.21.21,0,0,1-.07-.17l.24-4.93a.21.21,0,0,1,.22-.21h6.66a.22.22,0,0,1,.23.22v4.93a.23.23,0,0,1-.23.23Zm-6.67-.45h6.44V124.7h-6.23Z"/><polygon class="cls-3" points="81.06 129.41 81.99 124.47 75.33 124.47 74.16 129.41 81.06 129.41"/><path class="cls-4" d="M81.06,129.63h-6.9a.23.23,0,0,1-.18-.08.24.24,0,0,1,0-.2l1.17-4.93a.23.23,0,0,1,.22-.17H82a.25.25,0,0,1,.18.08.2.2,0,0,1,0,.18l-.93,4.94A.22.22,0,0,1,81.06,129.63Zm-6.62-.45h6.43l.86-4.48H75.51Z"/><polygon class="cls-3" points="74.16 129.41 75.33 124.47 68.67 124.47 67.26 129.41 74.16 129.41"/><path class="cls-4" d="M74.16,129.63h-6.9a.21.21,0,0,1-.18-.09.26.26,0,0,1,0-.19l1.42-4.94a.22.22,0,0,1,.21-.16h6.66a.21.21,0,0,1,.18.09.21.21,0,0,1,0,.19l-1.18,4.93A.21.21,0,0,1,74.16,129.63Zm-6.6-.45H74l1.07-4.48H68.84Z"/><polygon class="cls-3" points="101.75 129.41 101.98 124.47 95.32 124.47 94.85 129.41 101.75 129.41"/><path class="cls-4" d="M101.75,129.63h-6.9a.28.28,0,0,1-.17-.07.22.22,0,0,1-.05-.17l.47-4.94a.22.22,0,0,1,.22-.2H102a.24.24,0,0,1,.16.07.26.26,0,0,1,.07.16l-.24,4.94A.21.21,0,0,1,101.75,129.63Zm-6.65-.45h6.43l.21-4.48H95.52Z"/><polygon class="cls-3" points="143.14 129.41 141.95 124.47 135.29 124.47 136.24 129.41 143.14 129.41"/><path class="cls-4" d="M143.14,129.63h-6.9a.22.22,0,0,1-.22-.18l-1-4.94a.23.23,0,0,1,.18-.26H142a.22.22,0,0,1,.22.17l1.18,4.93a.22.22,0,0,1-.16.27Zm-6.73-.45h6.43l-1.08-4.48h-6.2Z"/><polygon class="cls-3" points="136.24 129.41 135.29 124.47 128.63 124.47 129.34 129.41 136.24 129.41"/><path class="cls-4" d="M136.24,129.63h-6.9a.22.22,0,0,1-.22-.19l-.71-4.93a.23.23,0,0,1,.05-.18.21.21,0,0,1,.17-.08h6.66a.23.23,0,0,1,.22.18l1,4.94a.24.24,0,0,1-.05.18A.23.23,0,0,1,136.24,129.63Zm-6.71-.45H136l-.86-4.48h-6.21Z"/><polygon class="cls-3" points="122.44 129.41 121.97 124.47 115.3 124.47 115.54 129.41 122.44 129.41"/><path class="cls-4" d="M122.46,129.63h-6.91a.23.23,0,0,1-.23-.21l-.24-4.94a.19.19,0,0,1,.06-.16.2.2,0,0,1,.16-.07H122a.22.22,0,0,1,.22.2l.47,4.93a.23.23,0,0,1-.21.25h0Zm-6.68-.45h6.41l-.44-4.48h-6.21Z"/><polygon class="cls-3" points="139.22 144.9 131.58 144.9 123.94 144.9 116.3 144.9 108.66 144.9 101.02 144.9 93.38 144.9 85.74 144.9 78.1 144.9 70.46 144.9 62.82 144.9 61.12 150.83 69.05 150.83 76.97 150.83 84.9 150.83 92.82 150.83 100.74 150.83 108.67 150.83 116.59 150.83 124.51 150.83 132.43 150.83 140.36 150.83 139.22 144.9"/><path class="cls-4" d="M140.36,151.06H61.13A.24.24,0,0,1,61,151a.21.21,0,0,1,0-.2l1.7-5.92a.21.21,0,0,1,.21-.16h76.4a.22.22,0,0,1,.22.18l1.14,5.93a.22.22,0,0,1,0,.18A.25.25,0,0,1,140.36,151.06Zm-79-.45h78.68L139,145.12H63Z"/><polygon class="cls-3" points="129.34 129.41 128.63 124.47 121.97 124.47 122.44 129.41 129.34 129.41"/><path class="cls-4" d="M129.34,129.63h-6.88a.23.23,0,0,1-.22-.2l-.48-4.94a.27.27,0,0,1,.06-.17.21.21,0,0,1,.17-.07h6.66a.22.22,0,0,1,.22.19l.72,4.93a.28.28,0,0,1-.06.18A.21.21,0,0,1,129.34,129.63Zm-6.69-.45h6.43l-.65-4.48h-6.22Z"/><rect class="cls-3" x="22.11" y="161.25" width="169.79" height="2.41"/><path class="cls-3" d="M191.9,163.88H22.11a.22.22,0,0,1-.22-.22v-2.41a.22.22,0,0,1,.22-.22H191.9a.22.22,0,0,1,.22.22v2.41A.22.22,0,0,1,191.9,163.88Zm-169.55-.44H191.68v-2H22.34Z"/><path class="cls-3" d="M64.4,46H57a.67.67,0,0,1-.68-.67A.68.68,0,0,1,57,44.6h7.4a.68.68,0,0,1,.67.68A.67.67,0,0,1,64.4,46Z"/><path class="cls-4" d="M84.78,49.75H57a.67.67,0,0,1,0-1.34H84.78a.67.67,0,1,1,0,1.34Z"/><path class="cls-4" d="M127.77,49.75H100a.67.67,0,0,1,0-1.34h27.79a.67.67,0,0,1,0,1.34Z"/><path class="cls-3" d="M97.58,49.75h-11a.67.67,0,0,1,0-1.34h11a.67.67,0,1,1,0,1.34Z"/><path class="cls-3" d="M73,53.55H57a.68.68,0,1,1,0-1.35H73a.68.68,0,0,1,0,1.35Z"/><path class="cls-3" d="M91,53.55H75a.68.68,0,0,1,0-1.35H91a.68.68,0,1,1,0,1.35Z"/><path class="cls-3" d="M109,53.55H93a.68.68,0,0,1,0-1.35h16a.68.68,0,0,1,0,1.35Z"/><path class="cls-3" d="M117.77,53.55H111a.68.68,0,1,1,0-1.35h6.79a.68.68,0,0,1,0,1.35Z"/><path class="cls-3" d="M73.79,46h-7.4a.67.67,0,0,1-.67-.67.68.68,0,0,1,.67-.68h7.4a.68.68,0,0,1,.67.68A.67.67,0,0,1,73.79,46Z"/><path class="cls-3" d="M117.77,46h-7.4a.67.67,0,0,1-.67-.67.68.68,0,0,1,.67-.68h7.4a.68.68,0,0,1,.67.68.67.67,0,0,1-.67.67Z"/><path class="cls-4" d="M108,46h-7.39a.67.67,0,0,1-.67-.67.68.68,0,0,1,.67-.68H108a.68.68,0,0,1,.68.68A.67.67,0,0,1,108,46Z"/><path class="cls-3" d="M97.38,46H75.81a.67.67,0,0,1-.67-.67.68.68,0,0,1,.67-.68H97.4a.69.69,0,0,1,.68.68.68.68,0,0,1-.68.67h0Z"/><path class="cls-3" d="M64.4,69.14H57a.67.67,0,0,1-.68-.67.68.68,0,0,1,.68-.68h7.4a.68.68,0,0,1,.67.68A.67.67,0,0,1,64.4,69.14Z"/><path class="cls-4" d="M84.78,72.94H57a.67.67,0,0,1-.67-.67.68.68,0,0,1,.67-.68H84.78a.68.68,0,0,1,.68.68A.67.67,0,0,1,84.78,72.94Z"/><path class="cls-3" d="M127.77,72.94H100a.67.67,0,0,1-.67-.67.68.68,0,0,1,.67-.68h27.79a.68.68,0,0,1,.67.68.67.67,0,0,1-.67.67Z"/><path class="cls-3" d="M97.58,72.94h-11a.67.67,0,0,1-.67-.67.68.68,0,0,1,.67-.68h11a.69.69,0,0,1,.68.68.68.68,0,0,1-.68.67Z"/><path class="cls-3" d="M73,76.74H57a.68.68,0,1,1,0-1.35H73a.68.68,0,0,1,0,1.35Z"/><path class="cls-3" d="M91,76.74H75a.68.68,0,0,1,0-1.35H91a.68.68,0,1,1,0,1.35Z"/><path class="cls-4" d="M109,76.74H93a.68.68,0,0,1,0-1.35h16a.68.68,0,0,1,0,1.35Z"/><path class="cls-3" d="M117.77,76.74H111a.68.68,0,1,1,0-1.35h6.79a.68.68,0,0,1,0,1.35Z"/><path class="cls-3" d="M73.79,69.14h-7.4a.67.67,0,0,1-.67-.67.68.68,0,0,1,.67-.68h7.4a.68.68,0,0,1,.67.68A.67.67,0,0,1,73.79,69.14Z"/><path class="cls-3" d="M117.77,69.14h-7.4a.67.67,0,0,1-.67-.67.68.68,0,0,1,.67-.68h7.4a.68.68,0,0,1,.67.68.67.67,0,0,1-.67.67Z"/><path class="cls-4" d="M108,69.14h-7.39a.67.67,0,0,1-.67-.67.68.68,0,0,1,.67-.68H108a.68.68,0,0,1,.68.68A.67.67,0,0,1,108,69.14Z"/><path class="cls-3" d="M97.38,69.14H75.81a.67.67,0,0,1-.67-.67.68.68,0,0,1,.67-.68H97.4a.69.69,0,0,1,.68.68.68.68,0,0,1-.68.67h0Z"/><path class="cls-3" d="M64.4,103.32H57A.67.67,0,1,1,57,102h7.4a.67.67,0,1,1,0,1.34Z"/><path class="cls-4" d="M84.78,107.12H57a.67.67,0,1,1,0-1.34H84.78a.67.67,0,1,1,0,1.34Z"/><path class="cls-3" d="M127.77,107.12H100a.67.67,0,0,1,0-1.34h27.79a.67.67,0,0,1,0,1.34Z"/><path class="cls-3" d="M97.58,107.12h-11a.67.67,0,0,1,0-1.34h11a.67.67,0,1,1,0,1.34Z"/><path class="cls-3" d="M73,110.92H57a.67.67,0,1,1,0-1.34H73a.67.67,0,0,1,0,1.34Z"/><path class="cls-3" d="M91,110.92H75a.67.67,0,0,1,0-1.34H91a.67.67,0,1,1,0,1.34Z"/><path class="cls-4" d="M109,110.92H93a.67.67,0,0,1,0-1.34h16a.67.67,0,0,1,0,1.34Z"/><path class="cls-3" d="M117.77,110.92H111a.67.67,0,1,1,0-1.34h6.79a.67.67,0,0,1,0,1.34Z"/><path class="cls-3" d="M73.79,103.32h-7.4a.67.67,0,1,1,0-1.34h7.4a.67.67,0,1,1,0,1.34Z"/><path class="cls-3" d="M117.77,103.32h-7.4a.67.67,0,1,1,0-1.34h7.4a.67.67,0,0,1,0,1.34Z"/><path class="cls-4" d="M108,103.32h-7.39a.67.67,0,1,1,0-1.34H108a.67.67,0,1,1,0,1.34Z"/><path class="cls-3" d="M97.38,103.32H75.81a.67.67,0,1,1,0-1.34H97.4a.67.67,0,1,1,0,1.34h0Z"/><path class="cls-3" d="M106,57.55h-7.4a.68.68,0,0,1-.67-.68.67.67,0,0,1,.67-.67H106a.67.67,0,0,1,.67.67A.68.68,0,0,1,106,57.55Z"/><path class="cls-3" d="M96.18,57.55H88.79a.68.68,0,0,1-.68-.68.67.67,0,0,1,.68-.67h7.39a.68.68,0,0,1,.68.67A.69.69,0,0,1,96.18,57.55Z"/><path class="cls-3" d="M85.59,57.55H64a.68.68,0,0,1-.67-.68A.67.67,0,0,1,64,56.2h21.6a.67.67,0,0,1,.67.67A.68.68,0,0,1,85.59,57.55Z"/><path class="cls-3" d="M106,64.34h-7.4a.67.67,0,0,1,0-1.34H106a.67.67,0,0,1,0,1.34Z"/><path class="cls-3" d="M96.18,64.34H88.79a.67.67,0,1,1,0-1.34h7.39a.67.67,0,1,1,0,1.34Z"/><path class="cls-4" d="M85.59,64.34H64A.67.67,0,1,1,64,63h21.6a.67.67,0,1,1,0,1.34Z"/><path class="cls-3" d="M71.39,61H64a.68.68,0,0,1,0-1.35h7.4a.68.68,0,0,1,0,1.35Z"/><path class="cls-3" d="M81.2,61H73.79a.68.68,0,0,1,0-1.35H81.2a.68.68,0,0,1,0,1.35Z"/><path class="cls-4" d="M106,61H84.39a.68.68,0,1,1,0-1.35H106A.68.68,0,0,1,106,61Z"/><path class="cls-3" d="M106,81.34h-7.4a.68.68,0,0,1,0-1.35H106a.68.68,0,0,1,0,1.35Z"/><path class="cls-3" d="M96.18,81.34H88.79a.68.68,0,1,1,0-1.35h7.39a.68.68,0,1,1,0,1.35Z"/><path class="cls-3" d="M85.59,81.34H64A.68.68,0,0,1,64,80h21.6a.68.68,0,0,1,0,1.35Z"/><path class="cls-3" d="M106,88.13h-7.4a.67.67,0,1,1,0-1.34H106a.67.67,0,0,1,0,1.34Z"/><path class="cls-3" d="M96.18,88.13H88.79a.67.67,0,1,1,0-1.34h7.39a.67.67,0,1,1,0,1.34Z"/><path class="cls-4" d="M85.59,88.13H64a.67.67,0,1,1,0-1.34h21.6a.67.67,0,0,1,0,1.34Z"/><path class="cls-3" d="M71.39,84.74H64a.67.67,0,1,1,0-1.34h7.4a.67.67,0,0,1,0,1.34Z"/><path class="cls-3" d="M81.2,84.74H73.79a.67.67,0,0,1,0-1.34H81.2a.67.67,0,0,1,0,1.34Z"/><path class="cls-4" d="M106,84.74H84.39a.67.67,0,1,1,0-1.34H106a.67.67,0,0,1,0,1.34Z"/><path class="cls-3" d="M71.39,92.13H64a.67.67,0,1,1,0-1.34h7.4a.67.67,0,0,1,0,1.34Z"/><path class="cls-3" d="M81.2,92.13H73.79a.67.67,0,0,1,0-1.34H81.2a.67.67,0,0,1,0,1.34Z"/><path class="cls-4" d="M106,92.13H84.39a.67.67,0,1,1,0-1.34H106a.67.67,0,0,1,0,1.34Z"/><path class="cls-3" d="M71.39,98.93H64a.68.68,0,0,1,0-1.35h7.4a.68.68,0,0,1,0,1.35Z"/><path class="cls-3" d="M81.2,98.93H73.79a.68.68,0,0,1,0-1.35H81.2a.68.68,0,0,1,0,1.35Z"/><path class="cls-4" d="M106,98.93H84.39a.68.68,0,1,1,0-1.35H106a.68.68,0,0,1,0,1.35Z"/><path class="cls-3" d="M106,95.53h-7.4a.68.68,0,0,1,0-1.35H106a.68.68,0,0,1,0,1.35Z"/><path class="cls-3" d="M96.18,95.53H88.79a.68.68,0,1,1,0-1.35h7.39a.68.68,0,1,1,0,1.35Z"/><path class="cls-4" d="M85.59,95.53H64a.68.68,0,0,1,0-1.35h21.6a.68.68,0,0,1,0,1.35Z"/><rect class="cls-3" x="51.89" y="43.96" width="2.36" height="2.33"/><rect class="cls-3" x="51.89" y="47.79" width="2.36" height="2.33"/><rect class="cls-3" x="51.89" y="51.62" width="2.36" height="2.33"/><rect class="cls-3" x="51.89" y="55.46" width="2.36" height="2.33"/><rect class="cls-3" x="51.89" y="59.29" width="2.36" height="2.33"/><rect class="cls-3" x="51.89" y="63.12" width="2.36" height="2.33"/><rect class="cls-3" x="51.89" y="66.95" width="2.36" height="2.33"/><rect class="cls-3" x="51.89" y="70.78" width="2.36" height="2.33"/><rect class="cls-3" x="51.89" y="74.62" width="2.36" height="2.33"/><rect class="cls-3" x="51.89" y="78.45" width="2.36" height="2.33"/><rect class="cls-3" x="51.89" y="82.28" width="2.36" height="2.33"/><rect class="cls-3" x="51.89" y="86.11" width="2.36" height="2.33"/><rect class="cls-3" x="51.89" y="89.94" width="2.36" height="2.33"/><rect class="cls-3" x="51.89" y="93.78" width="2.36" height="2.33"/><rect class="cls-3" x="51.89" y="97.61" width="2.36" height="2.33"/><rect class="cls-3" x="51.89" y="101.44" width="2.36" height="2.33"/><rect class="cls-3" x="51.89" y="105.27" width="2.36" height="2.33"/><rect class="cls-3" x="51.89" y="109.11" width="2.36" height="2.33"/></g><g id="freepik--speech-bubble--inject-75"><path class="cls-3" d="M164.18,2.05a25.65,25.65,0,0,0-17.73,44.19l-3.65,6.82,9-2.91a25.65,25.65,0,1,0,12.41-48.1Z"/><path class="cls-3" d="M164.18,53.59a25.94,25.94,0,0,1-12.45-3.19l-8.86,2.87a.22.22,0,0,1-.24-.07.23.23,0,0,1,0-.25l3.59-6.66a25.87,25.87,0,1,1,18,7.3Zm-12.43-3.66a.2.2,0,0,1,.11,0,25.36,25.36,0,1,0-5.26-3.86.23.23,0,0,1,.05.27l-3.39,6.32L151.68,50Z"/><path class="cls-4" d="M163,.22a25.65,25.65,0,0,0-17.72,44.19l-3.66,6.82,9-2.91A25.65,25.65,0,1,0,163,.22Z"/><path class="cls-3" d="M163,51.75a25.93,25.93,0,0,1-12.45-3.18l-8.85,2.87a.23.23,0,0,1-.25-.07.25.25,0,0,1,0-.25L145,44.46a25.89,25.89,0,1,1,18,7.29ZM150.55,48.1a.2.2,0,0,1,.11,0,25.49,25.49,0,1,0-5.26-3.88.21.21,0,0,1,0,.26l-3.38,6.33,8.42-2.73Z"/><path id="fullLogo" class="cls-3" d="M175.87,18.27l-1.36-.78V32.61l-10.42,6-10.42-6v-12l10.42-6,5.08,2.94V29.18l-5.08,2.93L159,29.18V24l-1.69.73a1.59,1.59,0,0,0-1,1.47v3.38a2,2,0,0,0,1,1.76l5.71,3.3a2,2,0,0,0,2,0l5.71-3.3a2,2,0,0,0,1-1.76V15.93h0l-6.41-3.7a2.63,2.63,0,0,0-2.63,0l-10.47,6A2.64,2.64,0,0,0,151,20.55V32.64a2.64,2.64,0,0,0,1.31,2.28l10.47,6a2.65,2.65,0,0,0,2.64,0l10.46-6a2.65,2.65,0,0,0,1.32-2.28V20.55A2.65,2.65,0,0,0,175.87,18.27Z"/><path id="fullLogo-2" data-name="fullLogo" class="cls-1" d="M174.87,16.77,173.51,16V31.11l-10.42,6-10.42-6v-12l10.42-6L168.17,16V27.68l-5.08,2.93L158,27.68V22.45l-1.69.73a1.62,1.62,0,0,0-1,1.48V28a2.07,2.07,0,0,0,1,1.77l5.71,3.29a2,2,0,0,0,2,0l5.71-3.29a2.06,2.06,0,0,0,1-1.76V14.42h0l-6.41-3.7a2.7,2.7,0,0,0-2.64,0l-10.46,6A2.63,2.63,0,0,0,150,19.05V31.13a2.63,2.63,0,0,0,1.32,2.28l10.46,6a2.65,2.65,0,0,0,2.64,0l10.46-6a2.63,2.63,0,0,0,1.32-2.28V19.05A2.63,2.63,0,0,0,174.87,16.77Z"/></g><g id="freepik--hand-2--inject-75"><path class="cls-3" d="M143.47,163.92,159,176.75a22.22,22.22,0,0,0,3.06,5.19c2.14,2.75,27.18,13.13,27.18,13.13l4.27,1.22-46.72-35.12Z"/><path class="cls-3" d="M193.51,196.52h-.06l-4.27-1.22c-1.05-.45-25.15-10.45-27.3-13.21a22.49,22.49,0,0,1-3.06-5.2l-15.49-12.78a.22.22,0,0,1,0-.35l3.31-2.75a.21.21,0,0,1,.28,0l46.73,35.12a.24.24,0,0,1,.07.28A.25.25,0,0,1,193.51,196.52Zm-49.69-32.6,15.33,12.65a.21.21,0,0,1,.06.1,21.73,21.73,0,0,0,3,5.13c2.07,2.67,26.83,13,27.08,13.07l3.09.89-45.62-34.32Z"/><path class="cls-4" d="M173.72,153.74a84.27,84.27,0,0,1-6-8.34c-1.85-3.23-4.48-10.8-6.48-15.28s-4.94-5.86-8.49-7.25-4.93-1.08-4.93-.15,1.39,2.62,1.39,2.62l-6,1.08s-2.47-1.39-4-.93-4.48,3.4-4.48,3.4-3.09-1.08-4.94-.62a75.16,75.16,0,0,0-9.1,4c-2.16,1.08-4.49,1.24-4.33,2.17s2.32,2.46,4.33,2.16,5.38-1.55,7.56-1.55a6.42,6.42,0,0,1,4.32,1.24c1.08.79,5.56,7.1,6.18,7.87s1.23,3.86,1.23,3.86a19,19,0,0,1-4.42-2.69c-1.69-1.53-4.12-5.17-6.91-5.47s-5.8,2.16-4.26,3.39,3.09,2,4.17,3.4,2.78,5.55,5.71,10,9.26,7.25,9.26,7.25l13.12,5.39s3.39-8,9.72-10.19a83.12,83.12,0,0,0,8.19-3.08Z"/><path class="cls-3" d="M156.59,169.55h-.09l-13.12-5.41c-.06,0-6.42-2.86-9.36-7.34a76.38,76.38,0,0,1-3.91-6.87,24.93,24.93,0,0,0-1.79-3.14,11.65,11.65,0,0,0-2.61-2.25c-.5-.34-1-.7-1.52-1.11a1.23,1.23,0,0,1-.39-1.52c.52-1.24,2.73-2.51,4.82-2.27s4.07,2.34,5.6,4c.52.57,1,1.1,1.43,1.49a17.12,17.12,0,0,0,4,2.48,12.47,12.47,0,0,0-1.1-3.33c-.15-.18-.52-.68-1-1.37-1.52-2.06-4.32-5.89-5.11-6.46a6.37,6.37,0,0,0-4.19-1.19,21.83,21.83,0,0,0-4.75.9c-1,.27-2,.52-2.78.64-2.06.31-4.4-1.25-4.58-2.35-.13-.76.8-1.06,2.08-1.48a16.39,16.39,0,0,0,2.36-.9c1.17-.58,7.07-3.51,9.16-4,1.69-.42,4.31.38,4.93.58.53-.52,3-2.92,4.49-3.35s3.68.67,4.11.89l5.57-1a5.51,5.51,0,0,1-1.2-2.46A.9.9,0,0,1,148,122c.72-.49,2.4-.25,4.85.71,3.65,1.43,6.6,2.88,8.61,7.37.79,1.76,1.65,3.94,2.56,6.24a87.65,87.65,0,0,0,3.92,9,81.33,81.33,0,0,0,6,8.3.3.3,0,0,1,0,.08l.78,2.31a.23.23,0,0,1-.12.27,77,77,0,0,1-8.21,3.1c-6.15,2.1-9.55,10-9.59,10.07A.21.21,0,0,1,156.59,169.55Zm-28.48-29.5c-1.72,0-3.48,1-3.89,2a.79.79,0,0,0,.25,1c.51.4,1,.76,1.5,1.1a11.52,11.52,0,0,1,2.69,2.33,24.83,24.83,0,0,1,1.83,3.21,74.43,74.43,0,0,0,3.9,6.84c2.86,4.37,9.1,7.14,9.16,7.17L156.46,169c.59-1.27,4-8.13,9.77-10.11,5.19-1.79,7.38-2.72,8-3l-.69-2.09a83.25,83.25,0,0,1-6-8.33,85.88,85.88,0,0,1-3.93-9.08c-.9-2.3-1.78-4.48-2.56-6.22-1.95-4.35-4.69-5.7-8.36-7.14-3.18-1.24-4.17-.94-4.44-.75a.45.45,0,0,0-.2.39,6.07,6.07,0,0,0,1.35,2.48.23.23,0,0,1,0,.32.21.21,0,0,1-.11,0l-6,1.09a.33.33,0,0,1-.15,0s-2.41-1.35-3.84-.9-4.35,3.31-4.38,3.34a.22.22,0,0,1-.23.05s-3-1.05-4.82-.61a72.18,72.18,0,0,0-9.06,4,17.31,17.31,0,0,1-2.42.94c-1,.32-1.84.6-1.8,1,.13.79,2.19,2.25,4.07,2,.75-.12,1.71-.37,2.73-.64a21.29,21.29,0,0,1,4.86-.89,6.71,6.71,0,0,1,4.45,1.28c.79.56,3.1,3.67,5.21,6.55.49.66.87,1.18,1,1.34.64.81,1.25,3.83,1.27,4a.22.22,0,0,1-.07.22.26.26,0,0,1-.24,0,18.94,18.94,0,0,1-4.48-2.75c-.45-.4-.93-.94-1.46-1.51-1.48-1.64-3.34-3.68-5.32-3.9A1.85,1.85,0,0,0,128.11,140.05Z"/><path class="cls-3" d="M116.3,134.67a.23.23,0,0,1-.25-.2.24.24,0,0,1,.2-.25s1.5-.38,1.92-.52a3,3,0,0,0,.87-.54.22.22,0,0,1,.29.34h0a3.48,3.48,0,0,1-1,.63c-.44.14-1.89.51-2,.53Z"/><path class="cls-3" d="M149.32,141.26a.22.22,0,0,1-.15-.06,8.78,8.78,0,0,1-2.22-3.79,5.56,5.56,0,0,0-3.09-3.14l-.18-.09c-2-1.07-9.05-5-9.11-5.06a.22.22,0,0,1-.09-.3.22.22,0,0,1,.3-.09h0c.07,0,7.13,4,9.12,5.05l.17.1a5.94,5.94,0,0,1,3.31,3.42,8.49,8.49,0,0,0,2.1,3.59.22.22,0,0,1,0,.31.21.21,0,0,1-.17.08Z"/><path class="cls-3" d="M155.05,136.83a.24.24,0,0,1-.21-.12s-.77-1.56-1.53-2.93a3.59,3.59,0,0,0-2.47-1.51,2.92,2.92,0,0,1-.34-.08c-.48-.16-6.31-4.69-7.48-5.59a.23.23,0,0,1-.05-.32.23.23,0,0,1,.31-.06l0,0c2.64,2.06,7,5.38,7.35,5.52a1.85,1.85,0,0,0,.29.08,4,4,0,0,1,2.76,1.72c.76,1.38,1.54,2.93,1.55,2.94a.22.22,0,0,1-.1.3h0Z"/><path class="cls-3" d="M157.52,133.28a.21.21,0,0,1-.17-.08c-.16-.18-4-4.51-5-6.37-.84-1.68-3.14-1.27-3.14-1.27a.24.24,0,0,1-.27-.18.23.23,0,0,1,.18-.26s2.65-.48,3.64,1.51c.9,1.79,4.87,6.23,4.91,6.28a.23.23,0,0,1,0,.31A.21.21,0,0,1,157.52,133.28Z"/><path class="cls-3" d="M127.11,145.47a.24.24,0,0,1-.2-.12.22.22,0,0,1,.1-.3h0a2.25,2.25,0,0,0,1-1.1,1.1,1.1,0,0,0-.19-.9,3.4,3.4,0,0,0-2.59-1.29.23.23,0,1,1,0-.45,3.73,3.73,0,0,1,3,1.49,1.47,1.47,0,0,1,.25,1.25,2.56,2.56,0,0,1-1.26,1.39A.17.17,0,0,1,127.11,145.47Z"/><path class="cls-1" d="M173.41,151.73s-8.33,2.16-13.58,8-5.25,10.8-4.78,11.57,10.47,6.18,10.47,6.18,6.18-11.89,10.5-14.81a26.83,26.83,0,0,1,7.45-3.71s-7.72-4.94-8-5.56S174.5,151.27,173.41,151.73Z"/><path class="cls-3" d="M165.52,177.73a.19.19,0,0,1-.1,0c-1.69-.89-10.11-5.47-10.58-6.25s-.54-5.87,4.8-11.84c5.13-5.72,13.26-8,13.68-8.07,1.17-.49,1.87.94,2.2,1.63l.08.18c.27.45,5,3.59,8,5.47a.23.23,0,0,1,.1.22.21.21,0,0,1-.17.18,25.91,25.91,0,0,0-7.33,3.67c-4.23,2.87-10.37,14.62-10.43,14.74a.24.24,0,0,1-.13.11Zm8.26-25.86a.78.78,0,0,0-.3.07h0c-.08,0-8.33,2.22-13.46,8s-5.19,10.58-4.76,11.31c.33.52,6.35,3.9,10.21,6,.86-1.63,6.4-11.94,10.47-14.7a28.23,28.23,0,0,1,7-3.58c-1.9-1.22-7.4-4.8-7.7-5.39l-.09-.18c-.34-.72-.75-1.47-1.32-1.47Z"/><path class="cls-1" d="M196.87,198.19s-8.49-4.32-10.49-5.41l-15.75-8.46a18.94,18.94,0,0,1-2.62-.92c-.92-.45-2.32-.31-2.93-3.56s.92-9.72,7.87-16.2,11.27-6.17,11.27-6.17,2.93-.31,3.7.31.93,2.46,1.7,2.77,22.13,6.73,22.13,6.73"/><path class="cls-3" d="M196.87,198.41l-.1,0c-.08,0-8.52-4.34-10.5-5.39l-15.7-8.47a18.83,18.83,0,0,1-2.64-.94,4.34,4.34,0,0,0-.5-.2c-.9-.32-2-.71-2.55-3.51s.52-9.49,7.93-16.41c6.95-6.48,11.27-6.24,11.44-6.23s3-.3,3.83.36a3.64,3.64,0,0,1,.89,1.5c.22.55.45,1.11.76,1.24.76.3,21.9,6.64,22.11,6.7a.23.23,0,0,1,.16.29.22.22,0,0,1-.28.16c-.9-.26-21.38-6.41-22.15-6.73-.5-.19-.75-.82-1-1.49a3.41,3.41,0,0,0-.75-1.32c-.57-.44-2.75-.34-3.54-.26-.08,0-4.36-.2-11.13,6.12-7.28,6.78-8.33,13.25-7.81,16,.49,2.54,1.43,2.87,2.24,3.17a3.83,3.83,0,0,1,.56.22,19.2,19.2,0,0,0,2.58.9h0l15.75,8.48c2,1.07,10.41,5.36,10.49,5.39a.23.23,0,0,1,.1.3A.21.21,0,0,1,196.87,198.41Z"/><path class="cls-3" d="M173.88,183.13a.23.23,0,0,1-.2-.11,13.89,13.89,0,0,1-1.26-8.64.23.23,0,0,1,.26-.18h0a.21.21,0,0,1,.18.26h0a13.74,13.74,0,0,0,1.21,8.33.22.22,0,0,1-.09.3.19.19,0,0,1-.1,0Z"/><path class="cls-3" d="M176.35,185a.21.21,0,0,1-.19-.1c-1.37-2.22-1.94-3.69-1.7-4.35a.45.45,0,0,1,.27-.3.23.23,0,0,1,.29.14.24.24,0,0,1-.12.27c0,.05-.38.72,1.64,4a.23.23,0,0,1-.07.31h0A.2.2,0,0,1,176.35,185Z"/></g><g id="freepik--hand-1--inject-75"><path class="cls-3" d="M79.69,150.3s-10.17,12.11-13.22,14.54a48.84,48.84,0,0,1-5.81,4l-11,11s.3,1.53-2.75,3.36-9.16,4-10.69,4.58S17.9,196,17.9,196Z"/><path class="cls-3" d="M17.9,196.21a.23.23,0,0,1-.19-.11.22.22,0,0,1,.06-.29l61.79-45.69a.22.22,0,0,1,.3.33c-.41.49-10.22,12.13-13.26,14.56a46.89,46.89,0,0,1-5.8,4l-10.9,10.9c0,.43-.18,1.85-2.87,3.46a68.73,68.73,0,0,1-9.42,4.11l-1.29.49c-1.5.6-18.15,8.17-18.31,8.24A.2.2,0,0,1,17.9,196.21Zm60.37-44.58L19.74,194.91c4.49-2,15.18-6.89,16.4-7.38l1.3-.49A67.9,67.9,0,0,0,46.8,183c2.85-1.71,2.65-3.11,2.64-3.14a.22.22,0,0,1,.07-.2l11-11h.06a47.2,47.2,0,0,0,5.78-4C68.69,162.79,75.45,154.94,78.27,151.63Z"/><path class="cls-4" d="M94.45,131.8a26.7,26.7,0,0,1-4.93.11S87.17,130.11,86,129s-4.17-7.38-5.67-7.7-7.81,3.32-7.81,3.32-5.13-2.25-6.41-2-5.46,4-5.46,4-5.77-.86-6.85.86S51,134.59,49.31,138s-7.92,12.52-7.92,12.52l-.85,1.17a54,54,0,0,1,5.24,2.47c3.95,2,10.27,11.66,10.27,11.66s8.76-4.07,13.69-6.31a24.8,24.8,0,0,0,9.94-9.2,19.79,19.79,0,0,1,5.14-5.78c2.24-1.81,6.41-2.57,7.38-3.85s-.65-3.21-.65-3.21a14.52,14.52,0,0,0,1.72-1.07c.53-.45,2.69-1.6,2.89-2.88S95.52,131.48,94.45,131.8ZM78,142.07l2-6.19a34.55,34.55,0,0,0,4.6,2C82.15,138.54,78,142.07,78,142.07Z"/><path class="cls-3" d="M56.08,166a.21.21,0,0,1-.19-.11c-.06-.09-6.32-9.59-10.18-11.58a48.19,48.19,0,0,0-5.21-2.44.23.23,0,0,1-.15-.28l0,0,.85-1.18c.06-.08,6.22-9.11,7.9-12.48.84-1.68,1.69-3.9,2.45-5.83a36.5,36.5,0,0,1,2.05-4.77c1.07-1.71,6.14-1.09,7-1,.7-.61,4.24-3.73,5.49-3.94s5.58,1.63,6.45,2c1-.57,6.39-3.59,7.86-3.29.94.2,2.17,2.13,3.82,4.84a18.08,18.08,0,0,0,2,2.91c1,1,3.1,2.56,3.46,2.84a25.14,25.14,0,0,0,4.77-.1h0a1.53,1.53,0,0,1,1.51.27,1.8,1.8,0,0,1,.49,1.69c-.19,1.13-1.65,2.12-2.52,2.69l-.45.32a14.9,14.9,0,0,1-1.51,1c.4.56,1.34,2.11.49,3.27-.52.69-1.8,1.19-3.28,1.79a16.57,16.57,0,0,0-4.14,2.1,19.16,19.16,0,0,0-5.08,5.71,25,25,0,0,1-10.07,9.28C65,161.92,56.24,166,56.15,166ZM40.9,151.58c.56.22,2,.84,5,2.36,3.73,1.92,9.37,10.26,10.25,11.57,1.26-.58,9-4.18,13.51-6.23a24.46,24.46,0,0,0,9.87-9.09,19.33,19.33,0,0,1,5.19-5.84A17.19,17.19,0,0,1,89,142.18a8.52,8.52,0,0,0,3.09-1.64c.84-1.12-.62-2.91-.64-2.93a.24.24,0,0,1,0-.18.25.25,0,0,1,.12-.16,14.71,14.71,0,0,0,1.68-1.05c.11-.08.27-.2.48-.33.76-.52,2.17-1.48,2.32-2.42a1.34,1.34,0,0,0-.33-1.28,1.11,1.11,0,0,0-1.09-.18h0a25.8,25.8,0,0,1-5,.12.28.28,0,0,1-.12,0s-2.37-1.84-3.55-2.91a18.48,18.48,0,0,1-2-3c-1.14-1.88-2.69-4.46-3.52-4.63-1.15-.26-5.91,2.29-7.65,3.29a.23.23,0,0,1-.2,0c-1.41-.62-5.29-2.18-6.28-2s-4.2,2.88-5.34,3.91a.25.25,0,0,1-.19,0c-1.56-.23-5.81-.55-6.62.75a37.63,37.63,0,0,0-2,4.7c-.76,2-1.61,4.18-2.46,5.87-1.7,3.4-7.87,12.45-7.93,12.56ZM78,142.29a.31.31,0,0,1-.13,0,.24.24,0,0,1-.08-.26l2-6.2a.23.23,0,0,1,.14-.15.26.26,0,0,1,.21,0,33,33,0,0,0,4.54,2,.22.22,0,0,1,.22.23.22.22,0,0,1-.22.22c-2.38.62-6.5,4.09-6.54,4.13A.25.25,0,0,1,78,142.29Zm2.16-6.08-1.71,5.2a25.44,25.44,0,0,1,5.51-3.53A32.92,32.92,0,0,1,80.14,136.21Z"/><path class="cls-3" d="M56.59,133.84a.23.23,0,0,1-.22-.18,8.13,8.13,0,0,1-.1-2.57c.22-.68,3.56-4,4.23-4.69a.21.21,0,0,1,.31,0,.22.22,0,0,1,0,.32,41.64,41.64,0,0,0-4.11,4.51,7.83,7.83,0,0,0,.11,2.35.23.23,0,0,1-.18.26Z"/><path class="cls-3" d="M60,136H60a.2.2,0,0,1-.15-.26v0l.85-2.78a.27.27,0,0,1,.09-.12l11.66-8.34a.22.22,0,0,1,.31.05h0a.22.22,0,0,1,0,.31h0l-11.6,8.3-.83,2.69A.23.23,0,0,1,60,136Z"/><path class="cls-3" d="M65.79,138h0a.22.22,0,0,1-.18-.25c.07-.45.47-2.79,1-3.25a26.6,26.6,0,0,1,4.64-1.42c1.13-1,6.28-5.38,7.37-5.38a17.53,17.53,0,0,1,3.74,1.44c2.52,1.12,6,2.64,7.15,2.51a.24.24,0,0,1,.25.2.23.23,0,0,1-.2.25c-1.29.14-4.53-1.29-7.38-2.55a22,22,0,0,0-3.56-1.4c-.72,0-4.75,3.24-7.12,5.29a.31.31,0,0,1-.1.05,27.21,27.21,0,0,0-4.49,1.34,8.68,8.68,0,0,0-.89,3A.21.21,0,0,1,65.79,138Z"/><path class="cls-3" d="M93.7,133.93a2,2,0,0,1-1.56-.59c-.25-.29-.34-.56-.23-.79.19-.41.89-.45,1-.45h0a.23.23,0,0,1,.23.23.22.22,0,0,1-.22.22h0c-.26,0-.6.08-.64.18s0,.13.16.31c.67.78,2.27.32,2.87.15a.21.21,0,0,1,.27.14h0a.23.23,0,0,1-.15.28h0A6.64,6.64,0,0,1,93.7,133.93Z"/><path class="cls-3" d="M84.61,138.12a.22.22,0,0,1-.22-.22.23.23,0,0,1,.11-.2c.16-.09,4-2.29,7.17-.42a.22.22,0,0,1,.09.3h0a.22.22,0,0,1-.3.08c-3-1.73-6.69.41-6.73.43A.2.2,0,0,1,84.61,138.12Z"/><path class="cls-3" d="M89.53,142.08a.22.22,0,0,1-.22-.19l-.11-.64a13.44,13.44,0,0,0-.94-2.29.21.21,0,0,1,0-.19.22.22,0,0,1,.13-.12l2.14-.75a.23.23,0,0,1,.19.41h0l-1.9.67a12.39,12.39,0,0,1,.87,2.18l.11.65a.23.23,0,0,1-.19.26Z"/><path class="cls-3" d="M76.06,146.57a.14.14,0,0,1-.09,0,.23.23,0,0,1-.12-.3L77.78,142a.22.22,0,0,1,.29-.11h0a.23.23,0,0,1,.12.3l-1.93,4.26A.22.22,0,0,1,76.06,146.57Z"/><path class="cls-1" d="M27.18,158.65s6.72-4.39,9.2-6.21,3.74-1.5,5-1.92,7.7,1.5,12,6.84,3.84,9.31,3.31,10.38-14,9.2-14,9.2-1.93-7.7-7.59-12.31A89.87,89.87,0,0,0,27.18,158.65Z"/><path class="cls-3" d="M42.69,177.14a.14.14,0,0,1-.09,0,.22.22,0,0,1-.13-.15c0-.07-2-7.68-7.52-12.18a92.75,92.75,0,0,0-7.89-6,.22.22,0,0,1,0-.38c.06-.05,6.75-4.4,9.18-6.2a8.25,8.25,0,0,1,4-1.72,7.84,7.84,0,0,0,1.07-.23c1.52-.51,8,1.69,12.22,6.91,4.36,5.46,3.89,9.52,3.34,10.62s-12.72,8.45-14.11,9.3A.2.2,0,0,1,42.69,177.14Zm-15.1-18.49c.77.52,3.14,2.16,7.62,5.83,5,4.08,7.18,10.67,7.59,12.11,5.21-3.14,13.32-8.23,13.68-9,.51-1,.93-4.87-3.29-10.14s-10.67-7.13-11.74-6.77a7.11,7.11,0,0,1-1.13.25,7.78,7.78,0,0,0-3.83,1.64C34.36,154.21,28.9,157.79,27.59,158.65Z"/><path class="cls-1" d="M.22,171.44l14.57-8.88c2.08-1.25,4.48-3,4.48-3s.66-3.3,3.83-3.41,6.25,1.14,10.41,3.41,9.3,10.59,9.86,13.91,1.65,4.32.77,6.48-4.16,2.28-4.82,2.28-2.19,1.37-2.19,1.37L13.7,198.89"/><path class="cls-3" d="M13.69,199.12a.26.26,0,0,1-.19-.1.23.23,0,0,1,.06-.31h0L37,183.46c.24-.22,1.61-1.4,2.31-1.4s3.79-.11,4.62-2.14a4.71,4.71,0,0,0-.12-3.59,21.91,21.91,0,0,1-.67-2.77c-.55-3.31-5.66-11.5-9.74-13.73s-7.08-3.51-10.28-3.39c-3,.11-3.62,3.21-3.62,3.24a.31.31,0,0,1-.09.14s-2.44,1.72-4.49,3L.34,171.63a.21.21,0,0,1-.3-.07H0a.23.23,0,0,1,.08-.31h0l14.56-8.88c1.86-1.12,4-2.62,4.41-2.9a4.46,4.46,0,0,1,4-3.51c3.3-.12,6.47,1.23,10.52,3.44s9.42,10.67,10,14a21.14,21.14,0,0,0,.66,2.72,5.18,5.18,0,0,1,.1,3.89c-.93,2.3-4.35,2.42-5,2.42a5.69,5.69,0,0,0-2,1.31L13.83,199.07A.24.24,0,0,1,13.69,199.12Z"/><path class="cls-3" d="M38,180.47a.16.16,0,0,1-.12,0,.22.22,0,0,1-.08-.3h0c1.79-2.77,1-3.48,1-3.48a.23.23,0,0,1,0-.32.23.23,0,0,1,.31,0h0c.12.09,1.09.94-.92,4.08A.24.24,0,0,1,38,180.47Z"/><path class="cls-3" d="M34.48,184.25a.23.23,0,0,1-.16-.06.22.22,0,0,1,0-.32h0a9.92,9.92,0,0,0,3-6,.23.23,0,1,1,.45,0,10.24,10.24,0,0,1-3.14,6.28A.25.25,0,0,1,34.48,184.25Z"/></g></g></g></svg>