<svg xmlns="http://www.w3.org/2000/svg" viewBox="0 0 203.45 200"><defs><style>.cls-1{fill:#ebebeb;}.cls-2{fill:#e0e0e0;}.cls-3{fill:#f0f0f0;}.cls-4{fill:#e6e6e6;}.cls-10,.cls-5{fill:#fff;}.cls-6{fill:#f5f5f5;}.cls-11,.cls-12,.cls-7,.cls-9{fill:#ef6236;}.cls-8{opacity:0.2;}.cls-10,.cls-11,.cls-12,.cls-15,.cls-16,.cls-17,.cls-8,.cls-9{isolation:isolate;}.cls-10,.cls-9{opacity:0.5;}.cls-11,.cls-17{opacity:0.3;}.cls-12{opacity:0.6;}.cls-13{fill:#ce7a63;}.cls-14{fill:#263238;}.cls-15{opacity:0.1;}.cls-16{opacity:0.4;}.cls-18{fill:#ba4d3c;}</style></defs><g id="Layer_2" data-name="Layer 2"><g id="icons"><g id="freepik--background-complete--inject-368"><rect class="cls-1" x="139.78" y="186.18" width="4.56" height="0.13"/><path class="cls-2" d="M15.49,29.64A12.53,12.53,0,0,1,32.71,18.12a15.15,15.15,0,0,1,28.41,3.35,13,13,0,0,1-.84,26.05H18.78a9.24,9.24,0,0,1-3.29-17.88Z"/><path class="cls-2" d="M162.64,131.9a7.73,7.73,0,0,1,7.81-7.67,7.83,7.83,0,0,1,2.82.56,9.34,9.34,0,0,1,17.52,2.07,8,8,0,0,1-.53,16.07H164.69a5.7,5.7,0,0,1-2-11Z"/><path class="cls-3" d="M24.16,109.06A13.12,13.12,0,0,1,42.21,97,15.88,15.88,0,0,1,72,100.51a13.65,13.65,0,0,1-.88,27.28H27.61a9.69,9.69,0,0,1-3.45-18.74Z"/><path class="cls-4" d="M33.2,121.53a2,2,0,1,1-2-2h0A2,2,0,0,1,33.2,121.53Z"/><path class="cls-5" d="M40.68,121.53a2,2,0,1,1-2-2h0A2,2,0,0,1,40.68,121.53Z"/><path class="cls-6" d="M159.81,45.59a9.11,9.11,0,0,1,12.51-8.36,11,11,0,0,1,20.62,2.43,9.45,9.45,0,0,1-.62,18.89H162.2a6.71,6.71,0,0,1-2.39-13Z"/><path class="cls-5" d="M187.29,53.85A1.29,1.29,0,1,1,186,52.57h0A1.28,1.28,0,0,1,187.29,53.85Z"/><path class="cls-5" d="M192.13,53.85a1.29,1.29,0,1,1-1.29-1.28h0A1.29,1.29,0,0,1,192.13,53.85Z"/><path class="cls-4" d="M182.45,53.85a1.29,1.29,0,1,1-1.29-1.28h0A1.28,1.28,0,0,1,182.45,53.85Z"/></g><g id="freepik--Shadow--inject-368"><ellipse id="freepik--path--inject-368" class="cls-6" cx="101.73" cy="194.06" rx="101.73" ry="5.94"/></g><g id="freepik--Cloud--inject-368"><path class="cls-7" d="M76.25,26.79H66.61A30.89,30.89,0,0,0,38.14,45.68H30.46a26.47,26.47,0,1,0-.74,52.93c.25,0,.49,0,.74,0H76.25Z"/><path class="cls-7" d="M53.46,28.28l-.22-.48A32.63,32.63,0,0,1,57,26.4l.15.53A32,32,0,0,0,53.46,28.28Z"/><path class="cls-7" d="M41.48,37.53l-.41-.33a32.24,32.24,0,0,1,8.65-7.56l.27.45A31.72,31.72,0,0,0,41.48,37.53Z"/><path class="cls-8" d="M76.25,26.79H66.61A30.89,30.89,0,0,0,38.14,45.68H30.46a26.47,26.47,0,1,0-.74,52.93c.25,0,.49,0,.74,0H76.25Z"/><path class="cls-9" d="M40,42H53.81L64,33H48.1A31,31,0,0,0,40,42Z"/><path class="cls-9" d="M8.52,57.35a26.08,26.08,0,0,0-3.91,9.09H20.4V57.35Z"/><path class="cls-9" d="M73.31,28.91h-18a30.56,30.56,0,0,0-5.49,2.81H63.08Z"/><path class="cls-7" d="M128.94,66a26.47,26.47,0,0,0-24.19-20.31,30.91,30.91,0,0,0-57.38,1,26.46,26.46,0,1,0-7.26,51.91H124.4A16.6,16.6,0,0,0,128.94,66Z"/><path class="cls-8" d="M128.36,68.06l-1.19-.34-.28-1.2a24.5,24.5,0,0,0-22.27-18.7l-1.3-.07-.53-1.21A28.74,28.74,0,0,0,76.23,28.89H75.12a28.74,28.74,0,0,1,25.44,17.63l.53,1.21,1.3.07a24.5,24.5,0,0,1,22.27,18.7l.28,1.2,1.19.34a14.5,14.5,0,0,1-3.94,28.47h2.23a14.5,14.5,0,0,0,4-28.45Z"/><path class="cls-5" d="M126.13,68.06l-1.19-.34-.28-1.2a24.5,24.5,0,0,0-22.27-18.7l-1.3-.07-.53-1.21A28.74,28.74,0,0,0,75.12,28.91h0A29,29,0,0,0,49.31,47.44l-.68,1.8-1.85-.52-.16,0a24,24,0,0,0-6.53-.9H39a24.37,24.37,0,0,0,1.14,48.71h82.1a14.5,14.5,0,0,0,4-28.45Z"/><polygon class="cls-7" points="65.71 65.25 65.71 86.07 86.7 86.07 86.7 65.25 93.33 65.25 76.21 45.99 59.08 65.25 65.71 65.25"/><path class="cls-7" d="M58.76,112.79h6.53v10.79a2.73,2.73,0,0,1-2.73,2.73H61.51a2.74,2.74,0,0,1-2.73-2.73h0V112.79Z"/><path class="cls-8" d="M58.76,112.79h6.53v10.79a2.73,2.73,0,0,1-2.73,2.73H61.51a2.74,2.74,0,0,1-2.73-2.73h0V112.79Z"/><path class="cls-7" d="M55.85,98.61H68.21V111a5.16,5.16,0,0,1-5.16,5.16H61A5.16,5.16,0,0,1,55.85,111V98.61Z"/><polygon class="cls-8" points="68.21 101.71 55.85 103.58 55.85 98.61 68.21 98.61 68.21 101.71"/><circle class="cls-5" cx="65.61" cy="107.93" r="1.64"/><circle class="cls-10" cx="61.24" cy="107.93" r="1.64"/><path class="cls-7" d="M103.19,144.44H75.67a15,15,0,0,1-15-14.95V126.3h2.63v3.19a12.35,12.35,0,0,0,12.33,12.33h27.52Z"/></g><g id="freepik--Server--inject-368"><rect class="cls-7" x="115.47" y="78.68" width="58.78" height="115.37" rx="6.84"/><rect class="cls-8" x="115.47" y="78.68" width="58.78" height="115.37" rx="6.84"/><rect class="cls-7" x="103.19" y="78.68" width="58.78" height="115.37" rx="6.84"/><rect class="cls-8" x="105.47" y="80.96" width="54.21" height="110.81" rx="4.56"/><rect class="cls-5" x="107.59" y="80.96" width="52.09" height="110.81" rx="4.56"/><path class="cls-11" d="M152.58,94.31h-37.9a3.58,3.58,0,0,1-3.55-3.55h0a3.56,3.56,0,0,1,3.55-3.55h37.9a3.57,3.57,0,0,1,3.56,3.55h0A3.57,3.57,0,0,1,152.58,94.31Z"/><path class="cls-5" d="M140.09,91.53h-26a.77.77,0,0,1-.77-.77h0a.78.78,0,0,1,.77-.78h26a.77.77,0,0,1,.77.77h0a.76.76,0,0,1-.77.77Z"/><circle class="cls-7" cx="149.47" cy="90.76" r="0.78"/><circle class="cls-7" cx="152.89" cy="90.76" r="0.78"/><circle class="cls-7" cx="146.05" cy="90.76" r="0.78"/><path class="cls-11" d="M152.58,105.71h-37.9a3.57,3.57,0,0,1-3.55-3.55h0a3.57,3.57,0,0,1,3.55-3.55h37.9a3.57,3.57,0,0,1,3.56,3.55h0A3.57,3.57,0,0,1,152.58,105.71Z"/><path class="cls-5" d="M140.09,102.94h-26a.78.78,0,0,1-.77-.78h0a.78.78,0,0,1,.77-.78h26a.78.78,0,0,1,.77.78h0A.78.78,0,0,1,140.09,102.94Z"/><circle class="cls-7" cx="149.47" cy="102.16" r="0.78"/><circle class="cls-7" cx="152.89" cy="102.16" r="0.78"/><circle class="cls-11" cx="146.05" cy="102.16" r="0.78"/><path class="cls-11" d="M152.58,117.11h-37.9a3.57,3.57,0,0,1-3.55-3.54h0a3.57,3.57,0,0,1,3.55-3.56h37.9a3.58,3.58,0,0,1,3.56,3.56h0A3.56,3.56,0,0,1,152.58,117.11Z"/><path class="cls-5" d="M140.09,114.34h-26a.77.77,0,0,1-.77-.77h0a.78.78,0,0,1,.77-.78h26a.77.77,0,0,1,.77.77h0a.77.77,0,0,1-.77.77Z"/><circle class="cls-7" cx="149.47" cy="113.57" r="0.78"/><circle class="cls-7" cx="152.89" cy="113.57" r="0.78"/><circle class="cls-12" cx="146.05" cy="113.57" r="0.78"/><path class="cls-11" d="M114.68,121.42h37.9a3.55,3.55,0,0,1,3.55,3.55h0a3.54,3.54,0,0,1-3.55,3.54h-37.9a3.54,3.54,0,0,1-3.55-3.54h0A3.55,3.55,0,0,1,114.68,121.42Z"/><path class="cls-5" d="M140.09,125.73h-26a.78.78,0,0,1-.77-.78h0a.77.77,0,0,1,.77-.77h26a.76.76,0,0,1,.77.77h0A.77.77,0,0,1,140.09,125.73Z"/><circle class="cls-7" cx="149.47" cy="124.97" r="0.78"/><circle class="cls-11" cx="152.89" cy="124.97" r="0.78"/><circle class="cls-12" cx="146.05" cy="124.97" r="0.78"/><path class="cls-11" d="M152.58,139.92h-37.9a3.57,3.57,0,0,1-3.55-3.55h0a3.57,3.57,0,0,1,3.55-3.55h37.9a3.57,3.57,0,0,1,3.56,3.55h0A3.57,3.57,0,0,1,152.58,139.92Z"/><path class="cls-5" d="M140.09,137.15h-26a.77.77,0,0,1-.77-.77h0a.77.77,0,0,1,.77-.77h26a.76.76,0,0,1,.77.77h0a.77.77,0,0,1-.77.78Z"/><circle class="cls-7" cx="149.47" cy="136.37" r="0.78"/><circle class="cls-12" cx="152.89" cy="136.37" r="0.78"/><circle class="cls-7" cx="146.05" cy="136.37" r="0.78"/><path class="cls-11" d="M152.58,151.32h-37.9a3.56,3.56,0,0,1-3.55-3.55h0a3.56,3.56,0,0,1,3.55-3.54h37.9a3.56,3.56,0,0,1,3.56,3.53h0A3.57,3.57,0,0,1,152.58,151.32Z"/><path class="cls-5" d="M140.09,148.55h-26a.78.78,0,0,1-.77-.78h0a.78.78,0,0,1,.77-.77h26a.77.77,0,0,1,.77.77h0A.77.77,0,0,1,140.09,148.55Z"/><circle class="cls-11" cx="149.47" cy="147.77" r="0.78"/><circle class="cls-7" cx="152.89" cy="147.77" r="0.78"/><circle class="cls-7" cx="146.05" cy="147.77" r="0.78"/><path class="cls-11" d="M152.58,162.73h-37.9a3.57,3.57,0,0,1-3.55-3.55h0a3.56,3.56,0,0,1,3.55-3.55h37.9a3.57,3.57,0,0,1,3.56,3.55h0A3.57,3.57,0,0,1,152.58,162.73Z"/><path class="cls-5" d="M140.09,160h-26a.78.78,0,0,1-.77-.78h0a.78.78,0,0,1,.77-.78h26a.77.77,0,0,1,.77.78h0A.78.78,0,0,1,140.09,160Z"/><circle class="cls-11" cx="149.47" cy="159.18" r="0.78"/><circle class="cls-7" cx="152.89" cy="159.18" r="0.78"/><circle class="cls-11" cx="146.05" cy="159.18" r="0.78"/><path class="cls-11" d="M114.68,167h37.9a3.54,3.54,0,0,1,3.55,3.54h0a3.55,3.55,0,0,1-3.55,3.55h-37.9a3.55,3.55,0,0,1-3.55-3.55h0A3.54,3.54,0,0,1,114.68,167Z"/><path class="cls-5" d="M140.09,171.37h-26a.77.77,0,0,1-.77-.77h0a.78.78,0,0,1,.77-.78h26a.77.77,0,0,1,.77.78h0A.77.77,0,0,1,140.09,171.37Z"/><circle class="cls-7" cx="149.47" cy="170.58" r="0.78"/><circle class="cls-7" cx="152.89" cy="170.58" r="0.78"/><circle class="cls-7" cx="146.05" cy="170.58" r="0.78"/><path class="cls-11" d="M152.58,185.54h-37.9a3.57,3.57,0,0,1-3.55-3.55h0a3.57,3.57,0,0,1,3.55-3.55h37.9a3.57,3.57,0,0,1,3.56,3.55h0A3.57,3.57,0,0,1,152.58,185.54Z"/><path class="cls-5" d="M140.09,182.76h-26a.77.77,0,0,1-.77-.77h0a.78.78,0,0,1,.77-.78h26a.77.77,0,0,1,.77.77h0A.76.76,0,0,1,140.09,182.76Z"/><circle class="cls-7" cx="149.47" cy="181.99" r="0.78"/><circle class="cls-7" cx="152.89" cy="181.99" r="0.78"/><circle class="cls-12" cx="146.05" cy="181.99" r="0.78"/><rect class="cls-8" x="163.9" y="102.51" width="8.42" height="9.66" rx="1.56"/></g><g id="freepik--Character--inject-368"><polygon class="cls-13" points="108.51 78.09 114.44 80.67 111.03 84.64 106.08 82.48 108.51 78.09"/><polygon class="cls-8" points="108.51 78.09 114.44 80.67 112.54 82.89 107.14 80.56 108.51 78.09"/><path class="cls-14" d="M111.8,86.74l-.67-.18a1.26,1.26,0,0,1-.85-.8h0l-.43.19a1.29,1.29,0,0,1-.8,0L100,83.56a3.6,3.6,0,0,1,.82-1.7s4,.86,5.25-.07a.31.31,0,0,1,.32,0c.72.37,3.58,1.75,5.46,1.65a.36.36,0,0,1,.39.35s0,.07,0,.11A18.67,18.67,0,0,0,111.8,86.74Z"/><path class="cls-14" d="M161.82,59.41l-2.54,5.32c-3.75,7.87-13,11.81-20.37,8.72-4.31-1.81-9-5.62-12.21-7.37-2.74,6-7.87,12.62-11.79,17.22l-7.94-4c3-6.82,7.58-17.42,10.5-24.32a7,7,0,0,1,6.18-4.29C136.84,50.35,161.82,59.41,161.82,59.41Z"/><polygon class="cls-13" points="123.62 95.48 129.32 95.23 128.26 101.49 123.5 101.71 123.62 95.48"/><polygon class="cls-8" points="123.62 95.49 129.32 95.23 128.89 97.81 123.56 98.15 123.62 95.49"/><path class="cls-14" d="M130.45,101.78l-.65.21a1.24,1.24,0,0,1-1.14-.22h0l-.27.39a1.27,1.27,0,0,1-.64.48l-9,2.81a3.66,3.66,0,0,1-.22-1.88s3.87-1.45,4.4-2.88a.28.28,0,0,1,.25-.2c.81-.08,4-.45,5.49-1.55a.37.37,0,0,1,.52.11.22.22,0,0,1,.05.08A19.62,19.62,0,0,0,130.45,101.78Z"/><path class="cls-14" d="M165.52,57.3l0,5.63c-.07,8.29-7.1,15.69-15.49,16.31-4.9.36-11.55.48-15.35.41a76.41,76.41,0,0,1-4.2,17.6l-8.25-.57c-.22-7-.53-17-.8-23.64a6.92,6.92,0,0,1,4-6.33C137.72,60.61,165.52,57.3,165.52,57.3Z"/><path class="cls-15" d="M128.68,97.33h-.05a.2.2,0,0,1-.13-.24c1.24-4.11,3.5-16.92,3.6-22.79a.2.2,0,0,1,.06-.15.24.24,0,0,1,.16-.05c12.06,1.61,20.22,1.05,23.61-1.57,5.95-4.64,5.87-12.13,4.36-16a.19.19,0,0,1,.11-.25h0a.19.19,0,0,1,.25.11h0c1.58,4,1.64,11.72-4.48,16.49-3.51,2.72-11.48,3.29-23.7,1.68a127.26,127.26,0,0,1-3.61,22.68A.2.2,0,0,1,128.68,97.33Z"/><path class="cls-8" d="M126.39,66.77a59.32,59.32,0,0,1-4.91,8.13c0,1.17.09,2.4.13,3.68,2.92-4.62,4.78-11.82,4.78-11.82Z"/><path class="cls-13" d="M147.73,30.84c-.23.81-.43,1.52-.68,2.26s-.48,1.46-.74,2.19c-.53,1.45-1.08,2.89-1.72,4.32s-1.3,2.85-2.1,4.27a33.79,33.79,0,0,1-2.72,4.26l-.33.45a2.36,2.36,0,0,1-.8.64,12.94,12.94,0,0,1-1.78.71,14.41,14.41,0,0,1-1.83.46,12.89,12.89,0,0,1-1.86.19h-.95l-.49,0c-.18,0-.32,0-.53-.06a1.83,1.83,0,0,1-1.72-1.93,1.91,1.91,0,0,1,.1-.53l.69-1.92a1.38,1.38,0,0,1,.22-.26l.26-.25.53-.49,1.05-.94,1-.9c.31-.29.61-.6.91-.88l-1.13,1.1c.62-1.11,1.18-2.26,1.69-3.43l.39-.93.38-1c.26-.63.53-1.28.75-1.93.49-1.32,1-2.63,1.42-4l1.35-4,0-.1a4.51,4.51,0,0,1,8.62,2.63Z"/><path class="cls-7" d="M143.4,23.46c-2.4.68-5.62,3.33-6.72,9.31,1.6,2.5,9.13.58,9.13.58Z"/><path class="cls-13" d="M132.16,46.17l.24,2.59c-.72,2.62-4,1.12-4,1.12l-1.84-.11a1.37,1.37,0,0,1-1.22-1.31l-.18-1.81A1.44,1.44,0,0,1,126.34,45l1.62-.17a2.81,2.81,0,0,1,1.37.19Z"/><path class="cls-7" d="M144.56,23.09a81.66,81.66,0,0,1,12-1.62,7.55,7.55,0,0,1,8,7.12,4.42,4.42,0,0,1,0,.63c-.33,13.21,1.53,27.11,1.26,29.66,0,0-27.86,4-32.13-4.28-1.8-11.74,4-10.25,4.47-23.74A8.64,8.64,0,0,1,144.56,23.09Z"/><path class="cls-5" d="M142.36,35l.1,0v-.1a1.81,1.81,0,0,1,1.69-1.57h.11l0-.1a2.09,2.09,0,0,1,2-1.45h0a2.57,2.57,0,0,1,2.17,1.57l.06.15.15,0h0a1.81,1.81,0,0,1,.52-.07h.09a2.22,2.22,0,0,1,2,2.1,1.85,1.85,0,0,1-1.64,2h-.2l-6.59-.11a1.33,1.33,0,0,1-1.24-1.25A1.11,1.11,0,0,1,142.36,35Z"/><path class="cls-13" d="M164.2,26l.26.57.22.52c.15.34.27.69.41,1.05.26.69.49,1.37.71,2.07a38.86,38.86,0,0,1,1.11,4.24c.15.73.28,1.47.39,2.21s.17,1.51.23,2.28a24.07,24.07,0,0,1-.14,4.8l0,.38a3.4,3.4,0,0,1-.52,1.39,10.24,10.24,0,0,1-1.76,2,18.09,18.09,0,0,1-1.75,1.39,25.57,25.57,0,0,1-3.48,2c-1.17.56-2.34,1.05-3.52,1.48a33,33,0,0,1-3.64,1.08,2.28,2.28,0,0,1-1.93-4l.1-.07c.87-.71,1.83-1.41,2.72-2.1s1.8-1.4,2.63-2.1,1.63-1.43,2.32-2.1a10.73,10.73,0,0,0,.88-1,2.93,2.93,0,0,0,.45-.76l-.57,1.77a22.53,22.53,0,0,0-.31-3.18c-.19-1.12-.45-2.25-.76-3.4s-.66-2.3-1-3.45c-.19-.57-.4-1.14-.6-1.72L156,29.69l-.09-.24A4.5,4.5,0,0,1,164.2,26Z"/><path class="cls-7" d="M158,21.53c1.92.21,6,1.66,8.68,7.18-2.62,5.2-9.5,7.19-9.5,7.19S152.39,24.29,158,21.53Z"/><path class="cls-7" d="M142.25,58.82H119.61c-1,0-1.2-.23-.47-.53l10.33-3.92a10.68,10.68,0,0,1,3.12-.52h22.65c1,0,1.2.23.47.52l-10.34,4A10.66,10.66,0,0,1,142.25,58.82Z"/><path class="cls-16" d="M142.25,58.82H119.61c-1,0-1.2-.23-.47-.53l10.33-3.92a10.68,10.68,0,0,1,3.12-.52h22.65c1,0,1.2.23.47.52l-10.34,4A10.66,10.66,0,0,1,142.25,58.82Z"/><path class="cls-7" d="M142.25,57.88H119.61a2.27,2.27,0,0,1-2.13-1.79l-2.56-14A1.45,1.45,0,0,1,116,40.38a1.64,1.64,0,0,1,.38,0H139a2.26,2.26,0,0,1,2.1,1.79l2.56,14a1.45,1.45,0,0,1-1.07,1.75A1.14,1.14,0,0,1,142.25,57.88Z"/><path class="cls-17" d="M142.25,57.88H119.61a2.27,2.27,0,0,1-2.13-1.79l-2.56-14A1.45,1.45,0,0,1,116,40.38a1.64,1.64,0,0,1,.38,0H139a2.26,2.26,0,0,1,2.1,1.79l2.56,14a1.45,1.45,0,0,1-1.07,1.75A1.14,1.14,0,0,1,142.25,57.88Z"/><path class="cls-11" d="M141.72,57.88H119.61a2.27,2.27,0,0,1-2.13-1.79l-2.56-14A1.45,1.45,0,0,1,116,40.38a1.64,1.64,0,0,1,.38,0H138.5a2.26,2.26,0,0,1,2.1,1.79l2.57,14a1.46,1.46,0,0,1-1.08,1.75A1.14,1.14,0,0,1,141.72,57.88Z"/><path class="cls-13" d="M152,50.29l1.13,1.19c1,2.52-2.41,3.33-2.41,3.33l-1.52,1a1.39,1.39,0,0,1-1.77-.28l-1.26-1.31a1.44,1.44,0,0,1-.12-2l1.16-1.12a2.82,2.82,0,0,1,1.2-.71l2-.58A1.6,1.6,0,0,1,152,50.29Z"/><path class="cls-13" d="M146.08,24.47a3.58,3.58,0,0,1,1.38-1.95,3.35,3.35,0,0,0-.39-2.23L153.33,15c.39,2.63,1.3,6.09,2.59,7.22-1.43,1.33-4.07,3.71-7.35,4.27S145.8,25.72,146.08,24.47Z"/><path class="cls-8" d="M147.19,20.52l5.34-2.22c-.67,2.71-3.67,5-5,3.88A3.29,3.29,0,0,0,147.19,20.52Z"/><path class="cls-14" d="M146.88,12.13a3.49,3.49,0,1,1-3.49-3.48h0a3.48,3.48,0,0,1,3.48,3.48Z"/><path class="cls-13" d="M152.87,10.17c.82,4,1.29,6.7-.53,9-3.62,4.5-6.91,3.1-8.92-.56-1.8-3.29-2.84-9.24.59-11.81a5.6,5.6,0,0,1,7.84,1.11A5.71,5.71,0,0,1,152.87,10.17Z"/><path class="cls-14" d="M145.05,9.12a4.54,4.54,0,0,1-6,1.11c-3.09-1.73-1.83-5.89,0-7.22a5.71,5.71,0,0,1,5.39-.71S144.2.09,147.31,0s2.95,2.1,2.95,2.1,4-1.67,5.94,1.42c1.79,2.88-.87,5.12-.87,5.12a3.34,3.34,0,0,1,1.87,4.09,3.35,3.35,0,0,1-3,2.47s-3,.21-3.48-2a5.52,5.52,0,0,1,.44-3.77S146.32,11.35,145.05,9.12Z"/><path class="cls-14" d="M149.62,13.81h0l-.73-.08a.12.12,0,0,1-.12-.12v0a.12.12,0,0,1,.14-.11h0l.7.06,3.71-.89a.13.13,0,0,1,.16.08h0a.13.13,0,0,1-.09.16l-3.73.91Z"/><path class="cls-14" d="M155,9.07h-.37a.27.27,0,0,1-.23-.29.27.27,0,0,1,.29-.24,1.88,1.88,0,0,0,1.84-.67,1.28,1.28,0,0,0,.09-1.33.26.26,0,0,1,.1-.35h0a.25.25,0,0,1,.35.11,1.81,1.81,0,0,1-.12,1.86A2.25,2.25,0,0,1,155,9.07Z"/><path class="cls-14" d="M140.55,11.63A5.57,5.57,0,0,1,139,11.4a3.33,3.33,0,0,1-2.62-3,3.89,3.89,0,0,1,1.76-3.79.26.26,0,0,1,.36.08.27.27,0,0,1-.08.37h0a3.42,3.42,0,0,0-1.49,3.28,2.83,2.83,0,0,0,2.22,2.51,4.29,4.29,0,0,0,5.27-2.39.27.27,0,0,1,.36-.11.26.26,0,0,1,.11.35A4.82,4.82,0,0,1,140.55,11.63Z"/><path class="cls-14" d="M146.38,17.65a4.06,4.06,0,0,1-.59.19.1.1,0,0,1-.12-.09.11.11,0,0,1,.08-.13,3.11,3.11,0,0,0,2.1-1.67.1.1,0,0,1,.13-.07h0a.12.12,0,0,1,.06.14h0A3.28,3.28,0,0,1,146.38,17.65Z"/><path class="cls-8" d="M147.93,12.32a1.88,1.88,0,0,1,1.36-.44A3.46,3.46,0,0,1,147.93,12.32Z"/><path class="cls-8" d="M148.06,12.64a1.57,1.57,0,0,1,1.29-.08A3.12,3.12,0,0,1,148.06,12.64Z"/><path class="cls-8" d="M142.56,13.84s-.45-.25-.6,0A.78.78,0,0,0,142.56,13.84Z"/><path class="cls-8" d="M142.61,14.15s-.37-.23-.42.14A.36.36,0,0,0,142.61,14.15Z"/><path class="cls-13" d="M155.33,14.5a3.8,3.8,0,0,1-1.9,2.24c-1.21.62-2.1-.4-2-1.67s.83-2.85,2.16-2.93a1.74,1.74,0,0,1,1.82,1.67A1.82,1.82,0,0,1,155.33,14.5Z"/><path class="cls-14" d="M147,12.81c.09.32,0,.62-.22.68s-.45-.16-.52-.48,0-.63.22-.68S146.85,12.49,147,12.81Z"/><path class="cls-14" d="M143.59,13.77c.08.32,0,.62-.23.68s-.44-.17-.52-.48,0-.63.23-.68S143.5,13.45,143.59,13.77Z"/><path class="cls-14" d="M141.65,16.15a.64.64,0,0,1-.53-.3l-.52-1a.43.43,0,0,1,0-.35.38.38,0,0,1,.27-.21l2.73-.6a.6.6,0,0,1,.63.29l.52,1a.38.38,0,0,1,0,.36.35.35,0,0,1-.27.2l-2.73.61Zm2-2.18h0l-2.74.61a.16.16,0,0,0-.08.06.13.13,0,0,0,0,.12l.53,1a.35.35,0,0,0,.34.16l2.73-.6a.16.16,0,0,0,.08-.06.13.13,0,0,0,0-.12l-.52-1A.4.4,0,0,0,143.66,14Z"/><path class="cls-18" d="M144.71,13.8l1.15,2.53a2.36,2.36,0,0,1-1.62.48A5.66,5.66,0,0,1,144.71,13.8Z"/><path class="cls-14" d="M146.17,15.15a.62.62,0,0,1-.52-.3l-.53-1a.41.41,0,0,1,0-.36.38.38,0,0,1,.26-.2l2.73-.61a.61.61,0,0,1,.63.29l.53,1a.41.41,0,0,1,0,.36.38.38,0,0,1-.26.2h0l-2.73.61Zm2-2.18h-.05l-2.73.61a.1.1,0,0,0-.08.05.13.13,0,0,0,0,.12l.52,1a.37.37,0,0,0,.35.17l2.73-.61a.16.16,0,0,0,.08-.06.13.13,0,0,0,0-.12l-.52-.95A.35.35,0,0,0,148.19,13Z"/><path class="cls-14" d="M144.29,14.6h0a.12.12,0,0,1-.08-.15h0s.19-.58,1.3-.35a.12.12,0,0,1,.1.15h0a.12.12,0,0,1-.14.11h0c-.86-.18-1,.17-1,.17A.13.13,0,0,1,144.29,14.6Z"/><path class="cls-14" d="M147.72,11.66l.08-.06a.2.2,0,0,0,0-.28A2,2,0,0,0,146,11a.19.19,0,0,0-.12.24h0a.2.2,0,0,0,.25.12h0a1.54,1.54,0,0,1,1.37.31A.22.22,0,0,0,147.72,11.66Z"/><path class="cls-14" d="M141.49,13.3a.21.21,0,0,0,.13-.13,1.55,1.55,0,0,1,1-1.05.19.19,0,0,0,.13-.23h0a.19.19,0,0,0-.24-.14A1.91,1.91,0,0,0,141.25,13a.2.2,0,0,0,.13.24h0A.23.23,0,0,0,141.49,13.3Z"/></g><g id="freepik--Folder--inject-368"><path class="cls-8" d="M103.19,152.72v34.5A6.85,6.85,0,0,0,110,194h8.39l-3-38.08Z"/><path class="cls-7" d="M90.68,153l-3.35,4.2a3.22,3.22,0,0,1-2.47,1.21H54.58a3.23,3.23,0,0,0-3.15,2.91l-2.66,32.23a2.62,2.62,0,0,0,2.32,2.89,2,2,0,0,0,.35,0h59.29a3.21,3.21,0,0,0,3.14-2.91l3.22-38.83a2.62,2.62,0,0,0-2.32-2.89,2.08,2.08,0,0,0-.35,0H93.14A3.17,3.17,0,0,0,90.68,153Z"/><path class="cls-17" d="M90.68,153l-3.35,4.2a3.22,3.22,0,0,1-2.47,1.21H54.58a3.23,3.23,0,0,0-3.15,2.91l-2.66,32.23a2.62,2.62,0,0,0,2.32,2.89,2,2,0,0,0,.35,0h59.29a3.21,3.21,0,0,0,3.14-2.91l3.22-38.83a2.62,2.62,0,0,0-2.32-2.89,2.08,2.08,0,0,0-.35,0H93.14A3.17,3.17,0,0,0,90.68,153Z"/><path class="cls-7" d="M78.71,155.3l-2.72,4a2.75,2.75,0,0,1-2.28,1.14H48.8A2.64,2.64,0,0,0,46.09,163a1.62,1.62,0,0,0,0,.22l2.22,30.53a3.11,3.11,0,0,0,3.11,2.76h59.29a2.63,2.63,0,0,0,2.71-2.54v-.22l-2.68-36.79a3.12,3.12,0,0,0-3.11-2.75H81A2.72,2.72,0,0,0,78.71,155.3Z"/></g></g></g></svg>