<svg xmlns="http://www.w3.org/2000/svg" viewBox="0 0 222.01 200"><defs><style>.cls-1{fill:#ebebeb;}.cls-2{fill:#e6e6e6;}.cls-3{fill:#f0f0f0;}.cls-12,.cls-15,.cls-16,.cls-4,.cls-9{fill:#fff;}.cls-5{fill:#f5f5f5;}.cls-6{fill:#e0e0e0;}.cls-7{fill:#e4897b;}.cls-8{fill:#ef6236;}.cls-9{opacity:0.5;}.cls-10,.cls-12,.cls-15,.cls-16,.cls-17,.cls-9{isolation:isolate;}.cls-10,.cls-16{opacity:0.2;}.cls-11{fill:#263238;}.cls-12{opacity:0.6;}.cls-13{fill:#de5753;}.cls-14{fill:none;stroke:#263238;stroke-linecap:round;stroke-linejoin:round;stroke-width:3.4px;}.cls-15,.cls-17{opacity:0.4;}</style></defs><g id="Layer_2" data-name="Layer 2"><g id="icons"><g id="freepik--background-complete--inject-351"><rect class="cls-1" x="153.05" y="185.07" width="4.92" height="0.14"/><rect class="cls-2" x="128.81" width="93.2" height="82.7"/><rect class="cls-3" x="131.14" y="2.27" width="88.41" height="78.21"/><polygon class="cls-4" points="151.89 2.27 131.14 80.3 131.14 43.64 142.09 2.27 151.89 2.27"/><polygon class="cls-4" points="159.24 2.27 138.31 80.47 134.97 80.47 155.9 2.27 159.24 2.27"/><polygon class="cls-4" points="219.55 51.62 219.55 64.11 215.31 80.47 211.97 80.47 219.55 51.62"/><rect class="cls-2" x="160.49" y="0.86" width="1.49" height="81.36"/><rect class="cls-2" x="189.35" y="0.86" width="1.49" height="81.36"/><rect class="cls-5" y="128.3" width="51.38" height="46.08"/><rect class="cls-1" y="128.3" width="17.89" height="46.08"/><rect class="cls-1" x="10.22" y="83.17" width="51.38" height="46.08"/><rect class="cls-6" x="10.22" y="83.17" width="17.89" height="46.08"/><rect class="cls-5" y="37.23" width="51.38" height="46.08"/><rect class="cls-1" y="37.23" width="17.89" height="46.08"/><rect class="cls-1" x="55.92" y="128.34" width="51.38" height="46.08"/><rect class="cls-6" x="55.92" y="128.34" width="17.89" height="46.08"/><rect class="cls-5" x="61.61" y="100.43" width="51.38" height="28.86"/><rect class="cls-2" x="61.61" y="100.43" width="17.89" height="28.86"/><rect class="cls-1" x="57.62" y="54.84" width="33.2" height="46.08"/><rect class="cls-6" x="57.62" y="54.84" width="11.56" height="46.08"/><rect class="cls-5" x="166.64" y="128.39" width="51.38" height="46.08"/><rect class="cls-2" x="200.14" y="128.39" width="17.89" height="46.08"/><rect class="cls-1" x="156.41" y="91.83" width="51.38" height="37.51"/><rect class="cls-6" x="189.92" y="91.83" width="17.89" height="37.51"/><rect class="cls-5" x="168.47" y="73.46" width="49.55" height="18.36"/><rect class="cls-2" x="200.79" y="73.46" width="17.25" height="18.36"/></g><g id="freepik--Shadow--inject-351"><ellipse id="freepik--path--inject-351" class="cls-5" cx="111.95" cy="193.58" rx="109.88" ry="6.42"/></g><g id="freepik--character-1--inject-351"><g id="freepik--group--inject-351"><path class="cls-7" d="M98.21,86,87,87,82.53,84.5s-14.4-8-18.14-10.55a11.36,11.36,0,0,1-3.11-4.45,46.37,46.37,0,0,1-2-5.23c-.25-.8-.48-1.56-.67-2.27-.43-1.51-.7-2.64-.77-3h0V59h0l3.54-1.14,3-.94s.13.71.37,1.78l.2.94c.06.28.12.57.19.87.75,3.29,1.9,7.79,2.73,8.53,1.35,1.18,18.24,12.69,18.84,13s6,0,6,0Z"/><path class="cls-8" d="M57.78,43.09C62.93,43,66.22,59,66.22,59l-6.81,3.4a21.77,21.77,0,0,1-2.91-11C56.65,45.25,57.78,43.09,57.78,43.09Z"/><path class="cls-9" d="M57.78,43.09C62.93,43,66.22,59,66.22,59l-6.81,3.4a21.77,21.77,0,0,1-2.91-11C56.65,45.25,57.78,43.09,57.78,43.09Z"/><polygon class="cls-8" points="66.97 59.3 65.13 60.49 62.74 62.04 59.29 64.27 58.67 64.67 57.92 62.4 58.62 62.03 59.07 61.78 62.22 60.06 64.74 58.68 65.99 58 66.22 57.88 66.97 59.3"/><path class="cls-10" d="M63,64.67a7.3,7.3,0,0,1-1.78,4.83,46.37,46.37,0,0,1-2-5.23l-.62.4-.75-2.26.7-.38c-.44-1.51-.7-2.64-.78-3h0V59l.82-6.23a29.38,29.38,0,0,1,2.73,5.1c.3.69.57,1.44.82,2.21.09.26.16.53.24.81s.19.78.27,1.17A14.43,14.43,0,0,1,63,64.67Z"/><polygon class="cls-7" points="57.01 189.69 61.75 190.19 62.64 179.96 57.9 179.46 57.01 189.69"/><polygon class="cls-7" points="33.35 189.34 37.94 189.34 38.32 178.7 33.72 178.7 33.35 189.34"/><path class="cls-11" d="M38.58,188.81H33a.41.41,0,0,0-.39.31l-.9,4.1a.67.67,0,0,0,.51.8h.16c1.8,0,3.12-.13,5.38-.13,1.4,0,5.62.14,7.55.14s2.18-1.91,1.39-2.08c-3.55-.77-6.24-1.84-7.37-2.84A1.14,1.14,0,0,0,38.58,188.81Z"/><path class="cls-8" d="M38.89,189.45a.11.11,0,0,1-.08-.1.09.09,0,0,1,0-.1c.16-.11,1.65-1,2.16-.75a.32.32,0,0,1,.19.3.67.67,0,0,1-.23.56,1.33,1.33,0,0,1-.88.24A5.49,5.49,0,0,1,38.89,189.45Zm.32-.16a2.14,2.14,0,0,0,1.63-.08.44.44,0,0,0,.15-.39c0-.09,0-.13-.07-.13a.22.22,0,0,0-.14,0A4.45,4.45,0,0,0,39.21,189.29Z"/><path class="cls-8" d="M38.84,189.48a.12.12,0,0,1-.05-.1c0-.06.12-1.38.65-1.81a.57.57,0,0,1,.46-.15.35.35,0,0,1,.35.29c.09.49-.82,1.49-1.29,1.75h-.05A.1.1,0,0,1,38.84,189.48Zm.74-1.79a2.61,2.61,0,0,0-.57,1.44c.48-.36,1.06-1.13,1-1.42,0,0,0-.11-.16-.11h0a.39.39,0,0,0-.21.08Z"/><path class="cls-11" d="M62.25,188.67H56.67a.42.42,0,0,0-.4.31l-.9,4.09a.67.67,0,0,0,.52.8H56c1.8,0,3.12-.14,5.39-.14,1.4,0,5.61.15,7.54.15s2.18-1.91,1.39-2.09C66.82,191,64.13,190,63,189A1.1,1.1,0,0,0,62.25,188.67Z"/><path class="cls-8" d="M62.57,189.3a.12.12,0,0,1-.09-.1.1.1,0,0,1,.06-.1c.16-.11,1.65-1,2.15-.75a.32.32,0,0,1,.19.3.66.66,0,0,1-.23.57,1.42,1.42,0,0,1-.87.26A4.92,4.92,0,0,1,62.57,189.3Zm.31-.15a2.27,2.27,0,0,0,1.64-.08.48.48,0,0,0,.14-.39c0-.09,0-.13-.07-.13a.17.17,0,0,0-.14,0A4.47,4.47,0,0,0,62.88,189.15Z"/><path class="cls-8" d="M62.54,189.32a.1.1,0,0,1-.06-.09c0-.07.12-1.39.65-1.82a.53.53,0,0,1,.46-.14.36.36,0,0,1,.35.28c.1.49-.82,1.5-1.3,1.76h-.1Zm.73-1.79a2.55,2.55,0,0,0-.56,1.44c.47-.36,1-1.13,1-1.42,0,0,0-.11-.15-.11h-.06A.47.47,0,0,0,63.27,187.53Z"/><polygon class="cls-10" points="57.9 179.46 62.64 179.96 62.17 185.24 57.43 184.73 57.9 179.46"/><polygon class="cls-10" points="33.72 178.7 38.32 178.7 38.12 184.19 33.52 184.19 33.72 178.7"/><path class="cls-8" d="M35.61,85.33H60c2.32,12.67,9.58,57.48,4.37,97.4l-8.26-1s.77-53-6.52-72.6c-.84,10.48-1.84,21.64-2.7,27.58-2.1,14.61-6.64,46.56-6.64,46.56h-8.4s1.7-30.57,2.51-44.94C35.2,122.72,35.58,88.53,35.61,85.33Z"/><path class="cls-10" d="M49.61,109.11a66.19,66.19,0,0,1,2.73,10.55c.68-9.33-2.05-19.23-2.05-19.23Z"/><polygon class="cls-8" points="65.32 184.65 55.1 183.13 55.41 180.31 66.04 181.7 65.32 184.65"/><polygon class="cls-12" points="65.32 184.65 55.1 183.13 55.41 180.31 66.04 181.7 65.32 184.65"/><polygon class="cls-8" points="41.24 183.31 31.33 183.31 31.33 180.35 41.61 180.15 41.24 183.31"/><polygon class="cls-12" points="41.24 183.31 31.33 183.31 31.33 180.35 41.61 180.15 41.24 183.31"/><polygon class="cls-11" points="35.57 89.57 35.54 86.04 60.4 84.5 60.58 87.93 35.57 89.57"/><rect class="cls-8" x="40.74" y="85.14" width="1.12" height="5.17"/><rect class="cls-8" x="58.1" y="83.46" width="1.12" height="5.17" transform="matrix(1, -0.07, 0.07, 1, -6.1, 4.49)"/><path class="cls-8" d="M60.38,84.5,35.54,86.34c0-2.18,0-4.6-.22-7.16-.3-4.74-.89-9.92-1.54-14.77C32.4,54.09,30.7,45.23,30.7,45.23c11.57-2.92,27.08-2.16,27.08-2.16C61.81,58.17,60.38,84.5,60.38,84.5Z"/><path class="cls-12" d="M60.38,84.5,35.54,86.34c0-2.18,0-4.6-.22-7.16-.3-4.74-.89-9.92-1.54-14.77C32.4,54.09,30.7,45.23,30.7,45.23c11.57-2.92,27.08-2.16,27.08-2.16C61.81,58.17,60.38,84.5,60.38,84.5Z"/><path class="cls-7" d="M39.53,43.68c2.27,2,7.72,1.29,7.72,1.29S50.65,44,50,43c-2-.33-3-1.27-3.4-2.48a5.59,5.59,0,0,1-.21-2.3,11.39,11.39,0,0,1,.17-1.29l-6.8-5C40.63,35.19,41.72,41.28,39.53,43.68Z"/><path class="cls-10" d="M41.31,35.06a5.75,5.75,0,0,0,5.25,5.42,5.76,5.76,0,0,1-.2-2.3Z"/><path class="cls-11" d="M53,22.2c1.65,1.57,1,6.33-2.4,8.77s-3.36-9.35-3.36-9.35S52,21.21,53,22.2Z"/><path class="cls-7" d="M40.85,36a5.75,5.75,0,0,0,6.61,2.23,6.4,6.4,0,0,0,3.65-3c.11-.2.21-.4.3-.61C53.07,30.8,53.58,24,49.5,21.47a6.23,6.23,0,0,0-8.58,2A6.4,6.4,0,0,0,40,26.18C39.48,30.69,39,33.33,40.85,36Z"/><path class="cls-11" d="M46.58,28.59c-.09.35.08.69.32.73s.48-.23.57-.57-.09-.69-.32-.73S46.65,28.22,46.58,28.59Z"/><path class="cls-11" d="M50.71,29.29c-.09.35.08.69.32.73s.48-.22.56-.56-.08-.7-.32-.74S50.77,28.94,50.71,29.29Z"/><path class="cls-13" d="M49.37,29.24a12.77,12.77,0,0,0,1.21,3.4,2.12,2.12,0,0,1-1.81,0Z"/><path class="cls-11" d="M45.52,27a.27.27,0,0,0,.23-.05,1.77,1.77,0,0,1,1.5-.49.22.22,0,0,0,.26-.15h0a.24.24,0,0,0-.16-.27h0a2.21,2.21,0,0,0-1.9.57.23.23,0,0,0,0,.31h0A.27.27,0,0,0,45.52,27Z"/><path class="cls-11" d="M47.85,34.48h0A3.3,3.3,0,0,1,45.14,33a.13.13,0,0,1,0-.16h0a.13.13,0,0,1,.16,0h0a3.19,3.19,0,0,0,2.51,1.35.13.13,0,0,1,.12.11h0a.13.13,0,0,1-.11.11Z"/><path class="cls-11" d="M52.73,28.17l.12,0a.24.24,0,0,0,.16-.27h0a2.13,2.13,0,0,0-1.34-1.46.22.22,0,0,0-.27.14h0a.23.23,0,0,0,.14.27h0a1.77,1.77,0,0,1,1.05,1.18A.26.26,0,0,0,52.73,28.17Z"/><path class="cls-11" d="M44.23,21.13v2a1.49,1.49,0,0,0-1,1.78A5.44,5.44,0,0,1,41,30s0-.73-.57-.63-.92,3.89,0,5.84c0,0-1.61-1.85-2.14-5.94-.5-3.79-.24-6.86.69-8.18Z"/><path class="cls-7" d="M37.4,29.51a4.33,4.33,0,0,0,2.07,2.58c1.34.72,2.34-.4,2.27-1.84-.09-1.28-.89-3.23-2.37-3.34A1.93,1.93,0,0,0,37.4,29.51Z"/><path class="cls-11" d="M38.13,24.57s-1.4-3.36,2.27-5.83,12.37.41,13,2.41S47.41,26.78,38.13,24.57Z"/><polygon class="cls-8" points="40.38 41.59 45.93 44.63 46.69 40.48 50.58 43.01 50.58 48.31 46.47 45.85 43.58 50.18 37.87 43.91 40.38 41.59"/><rect class="cls-4" x="48.07" y="84.77" width="5.69" height="4.27" rx="0.66" transform="translate(-4.73 2.95) rotate(-3.17)"/><polygon class="cls-9" points="40.38 41.59 45.93 44.63 46.69 40.48 50.58 43.01 50.58 48.31 46.47 45.85 43.58 50.18 37.87 43.91 40.38 41.59"/><path class="cls-10" d="M44.23,78.1c-1.65,2.48-6.92,2.46-8.91,1.09-.3-4.73-.89-9.91-1.54-14.77Z"/><path class="cls-7" d="M35.54,59s1.18,7.64,2.33,9.13S62.8,82.62,62.8,82.62L71,82l3.78,4.34s-11,1.7-12.15,1.37a11.62,11.62,0,0,1-2.12-.82s-24.93-9.82-27-12.06S29,61.08,29,61.08Z"/><path class="cls-8" d="M30.7,45.25c4.36-.91,6.61,17.15,6.61,17.15L28.4,64.67S25.35,46.37,30.7,45.25Z"/><path class="cls-9" d="M30.7,45.25c4.36-.91,6.61,17.15,6.61,17.15L28.4,64.67S25.35,46.37,30.7,45.25Z"/><polygon class="cls-8" points="27.88 64.24 37.87 61.85 37.87 63.56 28.33 66.33 27.88 64.24"/></g></g><g id="freepik--Boxes--inject-351"><path class="cls-14" d="M62.08,177V99.33a16.44,16.44,0,0,0-2.95-9.4L56.41,86h48.23l2.71,3.89a16.37,16.37,0,0,1,3,9.4v77"/><circle class="cls-11" cx="164.57" cy="189.05" r="4.99"/><path class="cls-15" d="M167.07,189.05a2.5,2.5,0,1,0-2.51,2.49h0a2.49,2.49,0,0,0,2.5-2.48Z"/><path class="cls-11" d="M164,190.16h0a1.92,1.92,0,0,1-1.79-1.24l-2.94-8.06h6.63v7.4a1.9,1.9,0,0,1-1.9,1.9Z"/><path class="cls-16" d="M164,190.16h0a1.92,1.92,0,0,1-1.79-1.24l-2.94-8.06h6.63v7.4a1.9,1.9,0,0,1-1.9,1.9Z"/><circle class="cls-11" cx="109.03" cy="189.05" r="4.99"/><path class="cls-15" d="M111.53,189.05a2.5,2.5,0,1,0-2.51,2.49h0a2.48,2.48,0,0,0,2.5-2.48Z"/><path class="cls-11" d="M108.43,190.16h0a1.92,1.92,0,0,1-1.79-1.24l-2.94-8.06h6.63v7.4a1.9,1.9,0,0,1-1.9,1.9Z"/><path class="cls-16" d="M108.43,190.16h0a1.92,1.92,0,0,1-1.79-1.24l-2.94-8.06h6.63v7.4a1.9,1.9,0,0,1-1.9,1.9Z"/><path class="cls-11" d="M173.15,175.05v4.71a1.6,1.6,0,0,1-1.59,1.6H60a1.6,1.6,0,0,1-1.59-1.6v-4.71Z"/><path class="cls-15" d="M173.15,175.05v4.71a1.6,1.6,0,0,1-1.59,1.6H60a1.6,1.6,0,0,1-1.59-1.6v-4.71Z"/><path class="cls-16" d="M133.48,175.05v4.71a1.6,1.6,0,0,1-1.59,1.6H60a1.6,1.6,0,0,1-1.59-1.6v-4.71Z"/><circle class="cls-11" cx="124.33" cy="189.05" r="4.99"/><path class="cls-12" d="M126.83,189.05a2.5,2.5,0,1,0-2.5,2.49h0a2.48,2.48,0,0,0,2.5-2.48Z"/><path class="cls-11" d="M123.73,190.16h0a1.89,1.89,0,0,1-1.78-1.24l-3-8.06h6.63v7.4a1.9,1.9,0,0,1-1.9,1.9Z"/><path class="cls-15" d="M123.73,190.16h0a1.89,1.89,0,0,1-1.78-1.24l-3-8.06h6.63v7.4a1.9,1.9,0,0,1-1.9,1.9Z"/><circle class="cls-11" cx="68.79" cy="189.05" r="4.99"/><path class="cls-12" d="M71.29,189.05a2.5,2.5,0,1,0-2.5,2.49h0a2.48,2.48,0,0,0,2.5-2.48Z"/><path class="cls-11" d="M68.19,190.16h0a1.9,1.9,0,0,1-1.78-1.24l-2.94-8.06h6.62v7.4a1.9,1.9,0,0,1-1.9,1.9Z"/><path class="cls-15" d="M68.19,190.16h0a1.9,1.9,0,0,1-1.78-1.24l-2.94-8.06h6.62v7.4a1.9,1.9,0,0,1-1.9,1.9Z"/><rect class="cls-8" x="72.19" y="138.47" width="52.85" height="36.58"/><rect class="cls-15" x="72.19" y="138.47" width="52.85" height="36.58"/><rect class="cls-16" x="72.19" y="138.47" width="24.52" height="36.58"/><rect class="cls-10" x="90.81" y="167.31" width="4.11" height="5.23" rx="0.52"/><rect class="cls-10" x="85.27" y="167.31" width="4.11" height="5.23" rx="0.52"/><rect class="cls-17" x="110.69" y="138.47" width="2.99" height="3.81"/><rect class="cls-10" x="101.27" y="154.08" width="20.57" height="4.78"/><rect class="cls-10" x="73.79" y="140.37" width="7.03" height="7.03"/><rect class="cls-8" x="77.58" y="101.88" width="52.85" height="36.58"/><rect class="cls-17" x="77.58" y="101.88" width="52.85" height="36.58"/><rect class="cls-16" x="77.58" y="101.88" width="24.52" height="36.58"/><rect class="cls-10" x="96.21" y="130.73" width="4.11" height="5.23" rx="0.52"/><rect class="cls-10" x="90.67" y="130.73" width="4.11" height="5.23" rx="0.52"/><rect class="cls-17" x="116.08" y="101.88" width="2.99" height="3.81"/><rect class="cls-10" x="106.66" y="117.5" width="20.57" height="4.78"/><rect class="cls-10" x="79.19" y="103.79" width="7.03" height="7.03"/><rect class="cls-8" x="109.93" y="101.88" width="52.85" height="36.58"/><rect class="cls-15" x="109.93" y="101.88" width="52.85" height="36.58"/><rect class="cls-16" x="109.93" y="101.88" width="24.52" height="36.58"/><rect class="cls-10" x="128.55" y="130.73" width="4.11" height="5.23" rx="0.52"/><rect class="cls-10" x="123.02" y="130.73" width="4.11" height="5.23" rx="0.52"/><rect class="cls-17" x="148.43" y="101.88" width="2.99" height="3.81"/><rect class="cls-10" x="139.01" y="117.5" width="20.57" height="4.78"/><rect class="cls-10" x="111.54" y="103.79" width="7.03" height="7.03"/><rect class="cls-8" x="91.66" y="65.3" width="52.85" height="36.58"/><rect class="cls-16" x="91.66" y="65.3" width="24.52" height="36.58"/><rect class="cls-10" x="110.27" y="94.15" width="4.11" height="5.23" rx="0.52"/><rect class="cls-10" x="104.75" y="94.15" width="4.11" height="5.23" rx="0.52"/><rect class="cls-17" x="130.15" y="65.3" width="2.99" height="3.81"/><rect class="cls-10" x="120.73" y="80.92" width="20.57" height="4.78"/><rect class="cls-10" x="93.25" y="67.21" width="7.03" height="7.03"/><rect class="cls-11" x="105.82" y="138.47" width="52.85" height="36.58"/><rect class="cls-16" x="105.82" y="138.47" width="52.85" height="36.58"/><rect class="cls-16" x="105.82" y="138.47" width="24.52" height="36.58"/><rect class="cls-10" x="124.43" y="167.31" width="4.11" height="5.23" rx="0.52"/><rect class="cls-10" x="118.9" y="167.31" width="4.11" height="5.23" rx="0.52"/><rect class="cls-17" x="144.31" y="138.47" width="2.99" height="3.81"/><rect class="cls-10" x="134.9" y="154.08" width="20.57" height="4.78"/><rect class="cls-10" x="107.42" y="140.37" width="7.03" height="7.03"/></g></g></g></svg>