<?xml version="1.0" encoding="UTF-8" standalone="no"?><!DOCTYPE svg PUBLIC "-//W3C//DTD SVG 1.1//EN" "http://www.w3.org/Graphics/SVG/1.1/DTD/svg11.dtd"><!-- Generated by graphviz version 2.40.1 (20161225.0304)
 --><!-- Title: root Pages: 1 --><svg xmlns="http://www.w3.org/2000/svg" xmlns:xlink="http://www.w3.org/1999/xlink" width="392pt" height="222pt" viewBox="0.00 0.00 392.46 221.60">
<g id="graph0" class="graph" transform="scale(1 1) rotate(0) translate(4 217.6)">
<title>root</title>
<polygon fill="#ffffff" stroke="transparent" points="-4,4 -4,-217.6 388.4639,-217.6 388.4639,4 -4,4"/>
<!-- n0 -->
<g id="4fbe8ce995244035a33972341b2a58a6" class="node">
<title>n0</title>
<ellipse fill="none" stroke="#000000" cx="192.2319" cy="-195.6" rx="38.8652" ry="18"/>
<text text-anchor="middle" x="192.2319" y="-191.4" font-family="Times,serif" font-size="14.00" fill="#000000">n0:root</text>
</g>
<!-- n1 -->
<g id="fb41899ce31c4e4a9e2d67cda80f5790" class="node">
<title>n1</title>
<ellipse fill="none" stroke="#000000" cx="192.2319" cy="-106.8" rx="56.1821" ry="18"/>
<text text-anchor="middle" x="192.2319" y="-102.6" font-family="Times,serif" font-size="14.00" fill="#000000">n1:faq_root</text>
</g>
<!-- n0&#45;&gt;n1 -->
<g id="002f6d32bb2a44eea5ff50295d4b2221" class="edge">
<title>n0-&gt;n1</title>
<path fill="none" stroke="#000000" d="M192.2319,-177.2006C192.2319,-165.0949 192.2319,-149.0076 192.2319,-135.2674"/>
<polygon fill="#000000" stroke="#000000" points="195.732,-134.872 192.2319,-124.872 188.732,-134.8721 195.732,-134.872"/>
<text text-anchor="middle" x="198.8392" y="-147" font-family="Times,serif" font-size="14.00" fill="#000000">e0</text>
</g>
<!-- n2 -->
<g id="c0a242cda9e944e38753cef623356cb4" class="node">
<title>n2</title>
<ellipse fill="none" stroke="#000000" cx="58.2319" cy="-18" rx="58.4648" ry="18"/>
<text text-anchor="middle" x="58.2319" y="-13.8" font-family="Times,serif" font-size="14.00" fill="#000000">n2:faq_state</text>
</g>
<!-- n1&#45;&gt;n2 -->
<g id="a96eaa5735c041e0894c66936404d51a" class="edge">
<title>n1-&gt;n2</title>
<path fill="none" stroke="#000000" d="M167.6543,-90.5127C146.3492,-76.3942 115.3222,-55.833 91.7438,-40.2078"/>
<polygon fill="#000000" stroke="#000000" points="93.3768,-37.0913 83.1076,-34.4848 89.51,-42.9263 93.3768,-37.0913"/>
<text text-anchor="middle" x="144.8392" y="-58.2" font-family="Times,serif" font-size="14.00" fill="#000000">e2</text>
</g>
<!-- n3 -->
<g id="9c70bdfd7fcd4424adaf54ba1e8b6332" class="node">
<title>n3</title>
<ellipse fill="none" stroke="#000000" cx="192.2319" cy="-18" rx="58.4648" ry="18"/>
<text text-anchor="middle" x="192.2319" y="-13.8" font-family="Times,serif" font-size="14.00" fill="#000000">n3:faq_state</text>
</g>
<!-- n1&#45;&gt;n3 -->
<g id="cdcbd2db615d4ecf96a3b8666bb21870" class="edge">
<title>n1-&gt;n3</title>
<path fill="none" stroke="#000000" d="M192.2319,-88.4006C192.2319,-76.2949 192.2319,-60.2076 192.2319,-46.4674"/>
<polygon fill="#000000" stroke="#000000" points="195.732,-46.072 192.2319,-36.072 188.732,-46.0721 195.732,-46.072"/>
<text text-anchor="middle" x="198.8392" y="-58.2" font-family="Times,serif" font-size="14.00" fill="#000000">e3</text>
</g>
<!-- n4 -->
<g id="71b16900dd2d4b3bb4a4b0eb0ace6eb0" class="node">
<title>n4</title>
<ellipse fill="none" stroke="#000000" cx="326.2319" cy="-18" rx="58.4648" ry="18"/>
<text text-anchor="middle" x="326.2319" y="-13.8" font-family="Times,serif" font-size="14.00" fill="#000000">n4:faq_state</text>
</g>
<!-- n1&#45;&gt;n4 -->
<g id="0a4cfce4bcac421d984454a40d14f7ea" class="edge">
<title>n1-&gt;n4</title>
<path fill="none" stroke="#000000" d="M216.8096,-90.5127C238.1146,-76.3942 269.1416,-55.833 292.7201,-40.2078"/>
<polygon fill="#000000" stroke="#000000" points="294.9539,-42.9263 301.3563,-34.4848 291.0871,-37.0913 294.9539,-42.9263"/>
<text text-anchor="middle" x="277.8392" y="-58.2" font-family="Times,serif" font-size="14.00" fill="#000000">e1</text>
</g>
</g>
</svg>