<?xml version="1.0" encoding="UTF-8" standalone="no"?><!DOCTYPE svg PUBLIC "-//W3C//DTD SVG 1.1//EN" "http://www.w3.org/Graphics/SVG/1.1/DTD/svg11.dtd"><!-- Generated by graphviz version 2.40.1 (20161225.0304)
 --><!-- Title: root Pages: 1 --><svg xmlns="http://www.w3.org/2000/svg" xmlns:xlink="http://www.w3.org/1999/xlink" width="392pt" height="222pt" viewBox="0.00 0.00 392.46 221.60">
<g id="graph0" class="graph" transform="scale(1 1) rotate(0) translate(4 217.6)">
<title>root</title>
<polygon fill="#ffffff" stroke="transparent" points="-4,4 -4,-217.6 388.4639,-217.6 388.4639,4 -4,4"/>
<!-- n0 -->
<g id="616d3d5a38de431481ccef5e4d36213c" class="node">
<title>n0</title>
<ellipse fill="none" stroke="#000000" cx="192.2319" cy="-195.6" rx="38.8652" ry="18"/>
<text text-anchor="middle" x="192.2319" y="-191.4" font-family="Times,serif" font-size="14.00" fill="#000000">n0:root</text>
</g>
<!-- n1 -->
<g id="a838b735cf4741bbb2a76eef7abc2df7" class="node">
<title>n1</title>
<ellipse fill="none" stroke="#000000" cx="192.2319" cy="-106.8" rx="58.4648" ry="18"/>
<text text-anchor="middle" x="192.2319" y="-102.6" font-family="Times,serif" font-size="14.00" fill="#000000">n1:faq_state</text>
</g>
<!-- n0&#45;&gt;n1 -->
<g id="76e7686373224af49659909aa098c38c" class="edge">
<title>n0-&gt;n1</title>
<path fill="none" stroke="#000000" d="M192.2319,-177.2006C192.2319,-165.0949 192.2319,-149.0076 192.2319,-135.2674"/>
<polygon fill="#000000" stroke="#000000" points="195.732,-134.872 192.2319,-124.872 188.732,-134.8721 195.732,-134.872"/>
<text text-anchor="middle" x="198.8392" y="-147" font-family="Times,serif" font-size="14.00" fill="#000000">e2</text>
</g>
<!-- n2 -->
<g id="72291a54ecdd49d0a0884017fb3f2991" class="node">
<title>n2</title>
<ellipse fill="none" stroke="#000000" cx="58.2319" cy="-18" rx="58.4648" ry="18"/>
<text text-anchor="middle" x="58.2319" y="-13.8" font-family="Times,serif" font-size="14.00" fill="#000000">n2:faq_state</text>
</g>
<!-- n1&#45;&gt;n2 -->
<g id="3ca71a667cf645f59fd0a48baf23df98" class="edge">
<title>n1-&gt;n2</title>
<path fill="none" stroke="#000000" d="M167.3416,-90.3055C145.9996,-76.1625 115.0712,-55.6666 91.5888,-40.1051"/>
<polygon fill="#000000" stroke="#000000" points="93.2582,-37.0127 82.989,-34.4062 89.3913,-42.8477 93.2582,-37.0127"/>
<text text-anchor="middle" x="144.8392" y="-58.2" font-family="Times,serif" font-size="14.00" fill="#000000">e0</text>
</g>
<!-- n3 -->
<g id="71429914623949e39c86a22df6f27c68" class="node">
<title>n3</title>
<ellipse fill="none" stroke="#000000" cx="192.2319" cy="-18" rx="58.4648" ry="18"/>
<text text-anchor="middle" x="192.2319" y="-13.8" font-family="Times,serif" font-size="14.00" fill="#000000">n3:faq_state</text>
</g>
<!-- n1&#45;&gt;n3 -->
<g id="7a034dd6b3b040098006feef9b28eb90" class="edge">
<title>n1-&gt;n3</title>
<path fill="none" stroke="#000000" d="M192.2319,-88.4006C192.2319,-76.2949 192.2319,-60.2076 192.2319,-46.4674"/>
<polygon fill="#000000" stroke="#000000" points="195.732,-46.072 192.2319,-36.072 188.732,-46.0721 195.732,-46.072"/>
<text text-anchor="middle" x="198.8392" y="-58.2" font-family="Times,serif" font-size="14.00" fill="#000000">e3</text>
</g>
<!-- n4 -->
<g id="9b6611ca77e84659bf5ffc8f671457ee" class="node">
<title>n4</title>
<ellipse fill="none" stroke="#000000" cx="326.2319" cy="-18" rx="58.4648" ry="18"/>
<text text-anchor="middle" x="326.2319" y="-13.8" font-family="Times,serif" font-size="14.00" fill="#000000">n4:faq_state</text>
</g>
<!-- n1&#45;&gt;n4 -->
<g id="5f2af5a98b384b668ac56fb66c1cb382" class="edge">
<title>n1-&gt;n4</title>
<path fill="none" stroke="#000000" d="M217.1223,-90.3055C238.4642,-76.1625 269.3927,-55.6666 292.8751,-40.1051"/>
<polygon fill="#000000" stroke="#000000" points="295.0725,-42.8477 301.4749,-34.4062 291.2057,-37.0127 295.0725,-42.8477"/>
<text text-anchor="middle" x="277.8392" y="-58.2" font-family="Times,serif" font-size="14.00" fill="#000000">e1</text>
</g>
</g>
</svg>