<?xml version="1.0" encoding="utf-8"?>
<svg viewBox="0 0 500 500" xmlns="http://www.w3.org/2000/svg">
  <defs>
    <linearGradient id="linear-gradient" x1="835.5723" y1="-33.0837" x2="842.5495" y2="-33.0837" gradientTransform="matrix(55.735512, 0, 0, 55.735512, -46550.078447, 2052.907156)" gradientUnits="userSpaceOnUse">
      <stop offset="0" stop-color="#f3993e"/>
      <stop offset="1" stop-color="#ed4834"/>
    </linearGradient>
  </defs>
  <g transform="matrix(1, 0, 0, 1, 40.093639, 39.762859)">
    <path id="fullLogo" d="M 390.276 85.427 L 370.084 73.771 L 370.084 298.278 L 215.405 387.584 L 60.72 298.278 L 60.72 119.667 L 215.405 30.362 L 290.857 73.923 L 290.857 247.344 L 215.405 290.904 L 139.947 247.344 L 139.947 169.829 L 114.855 180.655 C 106.116 184.416 100.456 193.021 100.462 202.535 L 100.462 252.685 C 100.479 263.48 106.236 273.451 115.578 278.861 L 200.283 327.774 C 209.639 333.157 221.152 333.157 230.505 327.774 L 315.212 278.869 C 324.554 273.457 330.311 263.486 330.326 252.692 L 330.326 50.677 L 330.079 50.677 L 234.955 -4.248 C 222.849 -11.207 207.955 -11.207 195.849 -4.248 L 40.515 85.427 C 28.436 92.433 20.995 105.334 20.975 119.298 L 20.975 298.647 C 20.995 312.611 28.442 325.512 40.525 332.511 L 195.86 422.187 C 207.966 429.153 222.863 429.153 234.966 422.187 L 390.302 332.511 C 402.384 325.511 409.83 312.611 409.852 298.647 L 409.852 119.298 C 409.826 105.326 402.368 92.424 390.276 85.427 Z" style="fill: url(#linear-gradient);"/>
  </g>
</svg>
